<?xml version="1.0" encoding="UTF-8" standalone="no"?>
<svg xmlns:dc="http://purl.org/dc/elements/1.1/" xmlns:cc="http://creativecommons.org/ns#" xmlns:rdf="http://www.w3.org/1999/02/22-rdf-syntax-ns#" xmlns:svg="http://www.w3.org/2000/svg" xmlns="http://www.w3.org/2000/svg" xmlns:sodipodi="http://sodipodi.sourceforge.net/DTD/sodipodi-0.dtd" xmlns:inkscape="http://www.inkscape.org/namespaces/inkscape" width="64px" height="64px" viewBox="0 0 64.000001 64.000001" id="svg2" version="1.1" inkscape:version="0.91 r13725" sodipodi:docname="Announcement communication loud sound speaker stereo megaphone.svg">
  <defs id="defs4"/>
  <sodipodi:namedview id="base" pagecolor="#ffffff" bordercolor="#666666" borderopacity="1.0" inkscape:pageopacity="0.0" inkscape:pageshadow="2" inkscape:zoom="1.979899" inkscape:cx="-193.90856" inkscape:cy="95.317545" inkscape:document-units="px" inkscape:current-layer="layer1" showgrid="true" units="px" inkscape:window-width="1366" inkscape:window-height="705" inkscape:window-x="-8" inkscape:window-y="-8" inkscape:window-maximized="1" inkscape:snap-bbox="true" inkscape:bbox-paths="true" inkscape:bbox-nodes="true" inkscape:snap-bbox-edge-midpoints="true" inkscape:snap-bbox-midpoints="true">
    <inkscape:grid type="xygrid" id="grid3363"/>
  </sodipodi:namedview>
  
  <g inkscape:label="Layer 1" inkscape:groupmode="layer" id="layer1" transform="translate(0,-988.36216)">
    <g id="g3394">
      <path inkscape:connector-curvature="0" id="path11293" d="m 9.5012188,1035.3621 a 0.4942299,0.50005 0 1 0 0,1 l 42.9975622,0 a 0.4942299,0.50005 0 1 0 0,-1 l -42.9975622,0 z" style="color:#000000;font-style:normal;font-variant:normal;font-weight:normal;font-stretch:normal;font-size:medium;line-height:normal;font-family:sans-serif;text-indent:0;text-align:start;text-decoration:none;text-decoration-line:none;text-decoration-style:solid;text-decoration-color:#000000;letter-spacing:normal;word-spacing:normal;text-transform:none;direction:ltr;block-progression:tb;writing-mode:lr-tb;baseline-shift:baseline;text-anchor:start;white-space:normal;clip-rule:nonzero;display:inline;overflow:visible;visibility:visible;opacity:1;isolation:auto;mix-blend-mode:normal;color-interpolation:sRGB;color-interpolation-filters:linearRGB;solid-color:#000000;solid-opacity:1;fill:#2b4255;fill-opacity:1;fill-rule:nonzero;stroke:none;stroke-width:1px;stroke-linecap:round;stroke-linejoin:round;stroke-miterlimit:4;stroke-dasharray:none;stroke-dashoffset:0;stroke-opacity:1;color-rendering:auto;image-rendering:auto;shape-rendering:auto;text-rendering:auto;enable-background:accumulate"/>
      <path inkscape:connector-curvature="0" id="path11295" d="m 55.494158,1035.3621 a 0.48726811,0.50005 0 1 0 0,1 l 2.011683,0 a 0.48726811,0.50005 0 1 0 0,-1 l -2.011683,0 z" style="color:#000000;font-style:normal;font-variant:normal;font-weight:normal;font-stretch:normal;font-size:medium;line-height:normal;font-family:sans-serif;text-indent:0;text-align:start;text-decoration:none;text-decoration-line:none;text-decoration-style:solid;text-decoration-color:#000000;letter-spacing:normal;word-spacing:normal;text-transform:none;direction:ltr;block-progression:tb;writing-mode:lr-tb;baseline-shift:baseline;text-anchor:start;white-space:normal;clip-rule:nonzero;display:inline;overflow:visible;visibility:visible;opacity:1;isolation:auto;mix-blend-mode:normal;color-interpolation:sRGB;color-interpolation-filters:linearRGB;solid-color:#000000;solid-opacity:1;fill:#2b4255;fill-opacity:1;fill-rule:nonzero;stroke:none;stroke-width:1px;stroke-linecap:round;stroke-linejoin:round;stroke-miterlimit:4;stroke-dasharray:none;stroke-dashoffset:0;stroke-opacity:1;color-rendering:auto;image-rendering:auto;shape-rendering:auto;text-rendering:auto;enable-background:accumulate"/>
      <path inkscape:connector-curvature="0" id="path11297" d="m 1.6378654,1035.3621 a 0.43175986,0.50005 0 1 0 0,1 l 4.9242692,0 a 0.43175986,0.50005 0 1 0 0,-1 l -4.9242692,0 z" style="color:#000000;font-style:normal;font-variant:normal;font-weight:normal;font-stretch:normal;font-size:medium;line-height:normal;font-family:sans-serif;text-indent:0;text-align:start;text-decoration:none;text-decoration-line:none;text-decoration-style:solid;text-decoration-color:#000000;letter-spacing:normal;word-spacing:normal;text-transform:none;direction:ltr;block-progression:tb;writing-mode:lr-tb;baseline-shift:baseline;text-anchor:start;white-space:normal;clip-rule:nonzero;display:inline;overflow:visible;visibility:visible;opacity:1;isolation:auto;mix-blend-mode:normal;color-interpolation:sRGB;color-interpolation-filters:linearRGB;solid-color:#000000;solid-opacity:1;fill:#2b4255;fill-opacity:1;fill-rule:nonzero;stroke:none;stroke-width:1px;stroke-linecap:round;stroke-linejoin:round;stroke-miterlimit:4;stroke-dasharray:none;stroke-dashoffset:0;stroke-opacity:1;color-rendering:auto;image-rendering:auto;shape-rendering:auto;text-rendering:auto;enable-background:accumulate"/>
      <path inkscape:connector-curvature="0" id="path11299" d="m 21.513265,1037.3621 a 0.50610843,0.50005 0 1 0 0,1 l 19.97347,0 a 0.50610843,0.50005 0 1 0 0,-1 l -19.97347,0 z" style="color:#000000;font-style:normal;font-variant:normal;font-weight:normal;font-stretch:normal;font-size:medium;line-height:normal;font-family:sans-serif;text-indent:0;text-align:start;text-decoration:none;text-decoration-line:none;text-decoration-style:solid;text-decoration-color:#000000;letter-spacing:normal;word-spacing:normal;text-transform:none;direction:ltr;block-progression:tb;writing-mode:lr-tb;baseline-shift:baseline;text-anchor:start;white-space:normal;clip-rule:nonzero;display:inline;overflow:visible;visibility:visible;opacity:1;isolation:auto;mix-blend-mode:normal;color-interpolation:sRGB;color-interpolation-filters:linearRGB;solid-color:#000000;solid-opacity:1;fill:#f05542;fill-opacity:1;fill-rule:evenodd;stroke:none;stroke-width:1px;stroke-linecap:round;stroke-linejoin:round;stroke-miterlimit:4;stroke-dasharray:none;stroke-dashoffset:0;stroke-opacity:1;color-rendering:auto;image-rendering:auto;shape-rendering:auto;text-rendering:auto;enable-background:accumulate"/>
      <path inkscape:connector-curvature="0" id="path11301" d="m 23.565626,1039.3622 a 0.55773926,0.50005 0 1 0 0,1 l 5.868748,0 a 0.55773926,0.50005 0 1 0 0,-1 l -5.868748,0 z" style="color:#000000;font-style:normal;font-variant:normal;font-weight:normal;font-stretch:normal;font-size:medium;line-height:normal;font-family:sans-serif;text-indent:0;text-align:start;text-decoration:none;text-decoration-line:none;text-decoration-style:solid;text-decoration-color:#000000;letter-spacing:normal;word-spacing:normal;text-transform:none;direction:ltr;block-progression:tb;writing-mode:lr-tb;baseline-shift:baseline;text-anchor:start;white-space:normal;clip-rule:nonzero;display:inline;overflow:visible;visibility:visible;opacity:1;isolation:auto;mix-blend-mode:normal;color-interpolation:sRGB;color-interpolation-filters:linearRGB;solid-color:#000000;solid-opacity:1;fill:#f05542;fill-opacity:1;fill-rule:evenodd;stroke:none;stroke-width:1px;stroke-linecap:round;stroke-linejoin:round;stroke-miterlimit:4;stroke-dasharray:none;stroke-dashoffset:0;stroke-opacity:1;color-rendering:auto;image-rendering:auto;shape-rendering:auto;text-rendering:auto;enable-background:accumulate"/>
      <path inkscape:connector-curvature="0" id="path11303" d="m 32.502303,1039.3621 a 0.49529872,0.50005 0 1 0 0,1 l 6.995394,0 a 0.49529872,0.50005 0 1 0 0,-1 l -6.995394,0 z" style="color:#000000;font-style:normal;font-variant:normal;font-weight:normal;font-stretch:normal;font-size:medium;line-height:normal;font-family:sans-serif;text-indent:0;text-align:start;text-decoration:none;text-decoration-line:none;text-decoration-style:solid;text-decoration-color:#000000;letter-spacing:normal;word-spacing:normal;text-transform:none;direction:ltr;block-progression:tb;writing-mode:lr-tb;baseline-shift:baseline;text-anchor:start;white-space:normal;clip-rule:nonzero;display:inline;overflow:visible;visibility:visible;opacity:1;isolation:auto;mix-blend-mode:normal;color-interpolation:sRGB;color-interpolation-filters:linearRGB;solid-color:#000000;solid-opacity:1;fill:#f05542;fill-opacity:1;fill-rule:evenodd;stroke:none;stroke-width:1px;stroke-linecap:round;stroke-linejoin:round;stroke-miterlimit:4;stroke-dasharray:none;stroke-dashoffset:0;stroke-opacity:1;color-rendering:auto;image-rendering:auto;shape-rendering:auto;text-rendering:auto;enable-background:accumulate"/>
      <path inkscape:connector-curvature="0" id="path11305" d="m 27.579144,1041.3622 a 0.57106827,0.50005 0 1 0 0,1 l 5.841712,0 a 0.57106827,0.50005 0 1 0 0,-1 l -5.841712,0 z" style="color:#000000;font-style:normal;font-variant:normal;font-weight:normal;font-stretch:normal;font-size:medium;line-height:normal;font-family:sans-serif;text-indent:0;text-align:start;text-decoration:none;text-decoration-line:none;text-decoration-style:solid;text-decoration-color:#000000;letter-spacing:normal;word-spacing:normal;text-transform:none;direction:ltr;block-progression:tb;writing-mode:lr-tb;baseline-shift:baseline;text-anchor:start;white-space:normal;clip-rule:nonzero;display:inline;overflow:visible;visibility:visible;opacity:1;isolation:auto;mix-blend-mode:normal;color-interpolation:sRGB;color-interpolation-filters:linearRGB;solid-color:#000000;solid-opacity:1;fill:#f05542;fill-opacity:1;fill-rule:evenodd;stroke:none;stroke-width:1px;stroke-linecap:round;stroke-linejoin:round;stroke-miterlimit:4;stroke-dasharray:none;stroke-dashoffset:0;stroke-opacity:1;color-rendering:auto;image-rendering:auto;shape-rendering:auto;text-rendering:auto;enable-background:accumulate"/>
      <path sodipodi:nodetypes="cccccccccc" inkscape:connector-curvature="0" id="path11307" d="m 46.515106,1002.8227 c -0.1727,0 -0.3104,0.1448 -0.3077,0.3173 0,0.2167 -0.093,0.3151 -0.3076,0.3151 -0.4228,-0.01 -0.4228,0.6311 0,0.625 0.207,0 0.3076,0.057 0.3076,0.3016 -0.01,0.4227 0.6311,0.4227 0.6251,0 0,-0.2218 0.1038,-0.3016 0.3089,-0.3016 0.4227,0.01 0.4227,-0.6312 0,-0.625 -0.2787,0 -0.3089,-0.1595 -0.3089,-0.3151 0,-0.1764 -0.141,-0.3202 -0.3174,-0.3173 z" style="color:#000000;font-style:normal;font-variant:normal;font-weight:normal;font-stretch:normal;font-size:medium;line-height:normal;font-family:sans-serif;text-indent:0;text-align:start;text-decoration:none;text-decoration-line:none;letter-spacing:normal;word-spacing:normal;text-transform:none;direction:ltr;block-progression:tb;writing-mode:lr-tb;baseline-shift:baseline;text-anchor:start;display:inline;overflow:visible;visibility:visible;fill:#f05542;fill-opacity:1;fill-rule:evenodd;stroke:none;enable-background:accumulate"/>
      <path sodipodi:nodetypes="cccccccccc" inkscape:connector-curvature="0" id="path11309" d="m 12.786006,1024.5989 c -0.237,0 -0.426,0.1987 -0.4223,0.4356 0,0.2975 -0.1271,0.4323 -0.4222,0.4323 -0.5802,-0.01 -0.5802,0.8663 0,0.858 0.2842,0 0.4222,0.079 0.4222,0.4138 -0.01,0.5801 0.8661,0.5801 0.8579,0 0,-0.3043 0.1424,-0.4138 0.424,-0.4138 0.5801,0.01 0.5801,-0.8662 0,-0.858 -0.3825,0 -0.424,-0.2188 -0.424,-0.4323 0,-0.2421 -0.1935,-0.4394 -0.4356,-0.4356 z" style="color:#000000;font-style:normal;font-variant:normal;font-weight:normal;font-stretch:normal;font-size:medium;line-height:normal;font-family:sans-serif;text-indent:0;text-align:start;text-decoration:none;text-decoration-line:none;letter-spacing:normal;word-spacing:normal;text-transform:none;direction:ltr;block-progression:tb;writing-mode:lr-tb;baseline-shift:baseline;text-anchor:start;display:inline;overflow:visible;visibility:visible;fill:#2b4255;fill-opacity:1;fill-rule:evenodd;stroke:none;enable-background:accumulate"/>
      <path sodipodi:nodetypes="cccccccccc" inkscape:connector-curvature="0" id="path11311" d="m 17.071106,1014.0481 c -0.1301,0 -0.2339,0.109 -0.2318,0.2392 0,0.1633 -0.07,0.2373 -0.2319,0.2373 -0.3185,-0.01 -0.3185,0.4756 0,0.471 0.1561,0 0.2319,0.043 0.2319,0.2273 -0.01,0.3184 0.4755,0.3184 0.471,0 0,-0.1671 0.078,-0.2273 0.2327,-0.2273 0.3185,0 0.3185,-0.4755 0,-0.471 -0.21,0 -0.2327,-0.1202 -0.2327,-0.2373 0,-0.133 -0.1063,-0.2413 -0.2392,-0.2392 z" style="color:#000000;font-style:normal;font-variant:normal;font-weight:normal;font-stretch:normal;font-size:medium;line-height:normal;font-family:sans-serif;text-indent:0;text-align:start;text-decoration:none;text-decoration-line:none;letter-spacing:normal;word-spacing:normal;text-transform:none;direction:ltr;block-progression:tb;writing-mode:lr-tb;baseline-shift:baseline;text-anchor:start;display:inline;overflow:visible;visibility:visible;fill:#2b4255;fill-opacity:1;fill-rule:evenodd;stroke:none;enable-background:accumulate"/>
      <path sodipodi:nodetypes="cccccccccc" inkscape:connector-curvature="0" id="path11313" d="m 18.891006,999.6267 c -0.1727,0 -0.3104,0.1448 -0.3077,0.3174 0,0.2167 -0.093,0.315 -0.3076,0.315 -0.4228,-0.01 -0.4228,0.6313 0,0.6252 0.207,0 0.3076,0.057 0.3076,0.3016 -0.01,0.4226 0.6311,0.4226 0.6251,0 0,-0.2218 0.1038,-0.3016 0.3089,-0.3016 0.4227,0.01 0.4227,-0.6312 0,-0.6252 -0.2787,0 -0.3089,-0.1594 -0.3089,-0.315 0,-0.1764 -0.141,-0.3201 -0.3174,-0.3174 z" style="color:#000000;font-style:normal;font-variant:normal;font-weight:normal;font-stretch:normal;font-size:medium;line-height:normal;font-family:sans-serif;text-indent:0;text-align:start;text-decoration:none;text-decoration-line:none;letter-spacing:normal;word-spacing:normal;text-transform:none;direction:ltr;block-progression:tb;writing-mode:lr-tb;baseline-shift:baseline;text-anchor:start;display:inline;overflow:visible;visibility:visible;fill:#f05542;fill-opacity:1;fill-rule:evenodd;stroke:none;enable-background:accumulate"/>
      <path sodipodi:nodetypes="cccccccccc" inkscape:connector-curvature="0" id="path11315" d="m 37.478006,1000.6083 c -0.1301,0 -0.2339,0.1091 -0.2319,0.2391 0,0.1633 -0.07,0.2374 -0.2318,0.2374 -0.3185,0 -0.3185,0.4755 0,0.471 0.156,0 0.2318,0.043 0.2318,0.2272 -0.01,0.3186 0.4755,0.3186 0.471,0 0,-0.167 0.078,-0.2272 0.2328,-0.2272 0.3185,0.01 0.3185,-0.4756 0,-0.471 -0.21,0 -0.2328,-0.1202 -0.2328,-0.2374 0,-0.1329 -0.1062,-0.2412 -0.2391,-0.2391 z" style="color:#000000;font-style:normal;font-variant:normal;font-weight:normal;font-stretch:normal;font-size:medium;line-height:normal;font-family:sans-serif;text-indent:0;text-align:start;text-decoration:none;text-decoration-line:none;letter-spacing:normal;word-spacing:normal;text-transform:none;direction:ltr;block-progression:tb;writing-mode:lr-tb;baseline-shift:baseline;text-anchor:start;display:inline;overflow:visible;visibility:visible;fill:#2b4255;fill-opacity:1;fill-rule:evenodd;stroke:none;enable-background:accumulate"/>
      <path sodipodi:nodetypes="cccccccccc" inkscape:connector-curvature="0" id="path11317" d="m 48.229706,1008.8254 c -0.1726,0 -0.3104,0.1448 -0.3077,0.3173 0,0.2167 -0.093,0.3151 -0.3076,0.3151 -0.4227,-0.01 -0.4227,0.6311 0,0.6251 0.2071,0 0.3076,0.057 0.3076,0.3015 -0.01,0.4227 0.6311,0.4227 0.6251,0 0,-0.2218 0.1038,-0.3015 0.3089,-0.3015 0.4227,0.01 0.4227,-0.6313 0,-0.6251 -0.2787,0 -0.3089,-0.1595 -0.3089,-0.3151 0,-0.1764 -0.1409,-0.3202 -0.3174,-0.3173 z" style="color:#000000;font-style:normal;font-variant:normal;font-weight:normal;font-stretch:normal;font-size:medium;line-height:normal;font-family:sans-serif;text-indent:0;text-align:start;text-decoration:none;text-decoration-line:none;letter-spacing:normal;word-spacing:normal;text-transform:none;direction:ltr;block-progression:tb;writing-mode:lr-tb;baseline-shift:baseline;text-anchor:start;display:inline;overflow:visible;visibility:visible;fill:#2b4255;fill-opacity:1;fill-rule:evenodd;stroke:none;enable-background:accumulate"/>
      <path sodipodi:nodetypes="cccccccccc" inkscape:connector-curvature="0" id="path11319" d="m 49.664406,1019.2627 c -0.13,0 -0.2338,0.1092 -0.2318,0.2392 0,0.1633 -0.07,0.2374 -0.2318,0.2374 -0.3185,-0.01 -0.3185,0.4755 0,0.471 0.156,0 0.2318,0.043 0.2318,0.2272 -0.01,0.3185 0.4755,0.3185 0.471,0 0,-0.1671 0.078,-0.2272 0.2327,-0.2272 0.3186,0 0.3186,-0.4756 0,-0.471 -0.2099,0 -0.2327,-0.1202 -0.2327,-0.2374 0,-0.1329 -0.1062,-0.2412 -0.2392,-0.2392 z" style="color:#000000;font-style:normal;font-variant:normal;font-weight:normal;font-stretch:normal;font-size:medium;line-height:normal;font-family:sans-serif;text-indent:0;text-align:start;text-decoration:none;text-decoration-line:none;letter-spacing:normal;word-spacing:normal;text-transform:none;direction:ltr;block-progression:tb;writing-mode:lr-tb;baseline-shift:baseline;text-anchor:start;display:inline;overflow:visible;visibility:visible;fill:#2b4255;fill-opacity:1;fill-rule:evenodd;stroke:none;enable-background:accumulate"/>
      <path sodipodi:nodetypes="cccccccccc" inkscape:connector-curvature="0" id="path11321" d="m 48.954406,1025.6095 c -0.237,0 -0.426,0.1988 -0.4223,0.4357 0,0.2974 -0.1271,0.4323 -0.4223,0.4323 -0.5801,-0.01 -0.5801,0.8662 0,0.8579 0.2842,0 0.4223,0.079 0.4223,0.4139 -0.01,0.5801 0.8661,0.5801 0.8579,0 0,-0.3044 0.1424,-0.4139 0.4239,-0.4139 0.5802,0.01 0.5802,-0.8662 0,-0.8579 -0.3825,0 -0.4239,-0.2188 -0.4239,-0.4323 0,-0.2422 -0.1935,-0.4395 -0.4356,-0.4357 z" style="color:#000000;font-style:normal;font-variant:normal;font-weight:normal;font-stretch:normal;font-size:medium;line-height:normal;font-family:sans-serif;text-indent:0;text-align:start;text-decoration:none;text-decoration-line:none;letter-spacing:normal;word-spacing:normal;text-transform:none;direction:ltr;block-progression:tb;writing-mode:lr-tb;baseline-shift:baseline;text-anchor:start;display:inline;overflow:visible;visibility:visible;fill:#2b4255;fill-opacity:1;fill-rule:evenodd;stroke:none;enable-background:accumulate"/>
      <path sodipodi:nodetypes="cccccccccc" inkscape:connector-curvature="0" id="path11323" d="m 16.292406,1006.2543 c -0.1727,0 -0.3104,0.1448 -0.3077,0.3174 0,0.2167 -0.093,0.315 -0.3077,0.315 -0.4227,-0.01 -0.4227,0.6311 0,0.6251 0.2071,0 0.3077,0.057 0.3077,0.3016 -0.01,0.4226 0.6311,0.4226 0.6251,0 0,-0.2218 0.1038,-0.3016 0.3089,-0.3016 0.4227,0.01 0.4227,-0.6311 0,-0.6251 -0.2787,0 -0.3089,-0.1594 -0.3089,-0.315 0,-0.1764 -0.141,-0.3202 -0.3174,-0.3174 z" style="color:#000000;font-style:normal;font-variant:normal;font-weight:normal;font-stretch:normal;font-size:medium;line-height:normal;font-family:sans-serif;text-indent:0;text-align:start;text-decoration:none;text-decoration-line:none;letter-spacing:normal;word-spacing:normal;text-transform:none;direction:ltr;block-progression:tb;writing-mode:lr-tb;baseline-shift:baseline;text-anchor:start;display:inline;overflow:visible;visibility:visible;fill:#2b4255;fill-opacity:1;fill-rule:evenodd;stroke:none;enable-background:accumulate"/>
      <path sodipodi:nodetypes="cccccccccc" inkscape:connector-curvature="0" id="path11325" d="m 25.468306,1001.4278 c -0.1334,0 -0.2399,0.1119 -0.2378,0.2453 0,0.1675 -0.072,0.2434 -0.2378,0.2434 -0.3267,0 -0.3267,0.4878 0,0.4831 0.16,0 0.2378,0.044 0.2378,0.2331 0,0.3267 0.4877,0.3267 0.4831,0 0,-0.1714 0.08,-0.2331 0.2387,-0.2331 0.3267,0 0.3267,-0.4877 0,-0.4831 -0.2154,0 -0.2387,-0.1232 -0.2387,-0.2434 0.001,-0.1364 -0.109,-0.2475 -0.2453,-0.2453 z" style="color:#000000;font-style:normal;font-variant:normal;font-weight:normal;font-stretch:normal;font-size:medium;line-height:normal;font-family:sans-serif;text-indent:0;text-align:start;text-decoration:none;text-decoration-line:none;letter-spacing:normal;word-spacing:normal;text-transform:none;direction:ltr;block-progression:tb;writing-mode:lr-tb;baseline-shift:baseline;text-anchor:start;display:inline;overflow:visible;visibility:visible;fill:#2b4255;fill-opacity:1;fill-rule:evenodd;stroke:none;enable-background:accumulate"/>
      <path sodipodi:nodetypes="cccccccccccccccccccccccccccccccccccccccccccccccccccccccccccccccccccccccccccccccccccccccccccccccccccccccccccccccccccccccccccccccccccccccccccccccccccccccccccccccccccccccccccccccccccccccccccczcccccccccccccccccccccccccccccccc" inkscape:connector-curvature="0" id="path4779" d="m 34.333493,1004.721 -0.803659,-0.01 -0.0055,1.0013 0.778308,0 0.169215,0.017 0.106784,-0.9937 -0.194459,-0.021 -0.02524,0 z m 1.133941,1.1241 0.128376,0.013 0.802243,0.1704 0.205686,-0.9783 -0.817736,-0.1732 -0.02513,-0.01 -0.02524,0 -0.161415,-0.017 z m -3.871666,-1.0024 -0.02558,0 -0.02579,0.01 -0.106836,0.021 0.19528,0.9793 0.08896,-0.017 0.855616,-0.083 -0.09657,-0.9953 z m -1.341226,0.2649 -0.02384,0.01 -0.02384,0.01 -0.760389,0.233 0.292479,0.9554 0.728531,-0.2231 0.185934,-0.036 -0.197118,-0.9814 z m -2.527682,0.9082 -0.02395,0.01 -0.02027,0.013 -0.179475,0.095 0.472703,0.8815 0.159429,-0.087 0.711139,-0.2964 -0.386328,-0.9216 z m -1.175835,0.6284 -0.02211,0.01 -0.01843,0.015 -0.766226,0.5106 0.555727,0.8313 0.760152,-0.5069 0.0061,0 0.02818,-0.014 -0.472702,-0.8814 z m -2.13478,1.5739 -0.01843,0.015 -0.01659,0.017 -0.25684,0.2535 0.703373,0.7106 0.240365,-0.2389 0.475671,-0.3879 -0.631385,-0.7731 z m -1.668109,1.7978 0.767995,0.6399 0.639871,-0.7681 -0.767994,-0.6399 z m -0.884522,1.2569 -0.01475,0.019 -0.01107,0.023 -0.246145,0.4459 0.876667,0.4816 0.235406,-0.4288 0.262128,-0.3823 -0.82709,-0.5631 z m -1.148679,2.3356 0.918763,0.3941 0.394042,-0.9187 -0.920713,-0.3942 z m -0.454085,1.3947 -0.0073,0.025 -0.0052,0.023 -0.120129,0.5704 0.98022,0.2058 0.112851,-0.5454 0.118904,-0.3748 -0.953284,-0.302 z m -0.4266,2.6444 0.99362,0.1067 0.106779,-0.9935 -0.995565,-0.1069 z m -0.02188,1.0493 -0.0047,0.5005 5.24e-4,0.026 0.0025,0.025 0.04634,0.4975 0.99712,-0.094 -0.04419,-0.4661 0.0016,-0.4811 z m 0.162088,2.0905 c 0.115404,1.3936 1.250014,1.1746 0.981048,-0.1913 z m 25.581627,2.2906 -0.0025,0.01 -0.371366,0.8633 0.918771,0.3941 0.380483,-0.8864 0.0091,-0.023 0.0072,-0.023 0.01172,-0.035 -0.814962,-0.2571 -0.131815,-0.056 z m -1.101603,2.2639 -0.187521,0.2731 0.825034,0.5649 0.204544,-0.2976 0.0128,-0.019 0.01107,-0.023 0.309279,-0.5597 -0.876663,-0.4817 z m -1.368457,1.8264 0.76799,0.6399 0.639862,-0.768 -0.767877,-0.6418 z m -0.997895,1.012 -0.373235,0.3057 0.63334,0.7731 0.393731,-0.3222 0.01842,-0.015 0.01659,-0.017 0.350079,-0.3461 -0.703377,-0.7105 z m -1.953545,1.4469 0.555727,0.8313 0.83137,-0.5557 -0.555728,-0.8314 z m -15.053852,-0.1253 0.138269,0.1153 0.01667,0.017 0.02079,0.013 0.674077,0.4664 0.568618,-0.8229 -0.634665,-0.4367 -0.0038,0 -0.134481,-0.1132 z m 13.942176,0.7259 -0.590955,0.2465 0.386328,0.9215 0.615014,-0.2568 0.022,-0.01 0.02027,-0.013 0.294477,-0.1576 -0.472703,-0.8814 z m -12.20199,0.4362 0.660065,0.3677 0.02091,0.011 0.02285,0.011 0.225385,0.097 0.397835,-0.9166 -0.196573,-0.087 -0.643065,-0.357 z m 9.867851,0.4046 -0.05548,0.013 0.197231,0.9794 0.07314,-0.014 0.02384,-0.01 0.02384,-0.01 0.885766,-0.2709 -0.292479,-0.9555 z m -8.022052,0.4798 0.05156,0.022 0.02296,0.01 0.02296,0.01 0.899336,0.2874 0.305992,-0.9531 -0.88396,-0.2825 -0.02101,-0.01 z m 6.773579,-0.2292 -0.729718,0.07 0.09657,0.9953 0.757238,-0.073 0.02362,0 0.02579,-0.01 0.235347,-0.045 -0.195169,-0.9814 z m -4.758336,0.814 0.690241,0.1444 0.02513,0.01 0.02524,0 0.291629,0.032 0.106892,-0.9956 -0.254799,-0.026 -0.676585,-0.1437 z m 2.175535,-0.6991 -0.04084,0 -0.106891,0.9955 0.06424,0.01 0.02524,0 0.02546,-5e-4 0.934755,0.01 0.0054,-0.9994 z" style="color:#000000;font-style:normal;font-variant:normal;font-weight:normal;font-stretch:normal;font-size:medium;line-height:normal;font-family:sans-serif;text-indent:0;text-align:start;text-decoration:none;text-decoration-line:none;text-decoration-style:solid;text-decoration-color:#000000;letter-spacing:normal;word-spacing:normal;text-transform:none;direction:ltr;block-progression:tb;writing-mode:lr-tb;baseline-shift:baseline;text-anchor:start;white-space:normal;clip-rule:nonzero;display:inline;overflow:visible;visibility:visible;opacity:1;isolation:auto;mix-blend-mode:normal;color-interpolation:sRGB;color-interpolation-filters:linearRGB;solid-color:#000000;solid-opacity:1;fill:#f05542;fill-opacity:1;fill-rule:nonzero;stroke:none;stroke-width:1;stroke-linecap:butt;stroke-linejoin:miter;stroke-miterlimit:4;stroke-dasharray:1, 1;stroke-dashoffset:0;stroke-opacity:1;color-rendering:auto;image-rendering:auto;shape-rendering:auto;text-rendering:auto;enable-background:accumulate"/>
      <path sodipodi:nodetypes="ccccccccccccccccccccccccccccccccccccccccccccccccccccccccccccccccccccccccccccccccccccccccccccccccccccccccccccccccccccccccccccccccccccccccccccccccccc" inkscape:connector-curvature="0" id="path4775" d="m 33.196196,1009.7392 -0.02546,5e-4 -0.02362,0 -0.46416,0.044 0.09657,0.9953 0.430677,-0.04 0.516351,0 0.0055,-1.0013 z m 1.475142,1.0748 0.153615,0.017 0.779061,0.1651 0.205686,-0.9783 -0.808093,-0.1707 -0.02513,-0.01 -0.02525,0 -0.173115,-0.018 z m -3.218508,-0.8247 -0.02568,0 -0.02395,0.01 -0.76624,0.2327 0.290535,0.9552 0.732426,-0.2228 0.181927,-0.035 -0.195168,-0.9813 z m -2.378878,0.9753 -0.02211,0.01 -0.01843,0.015 -0.308806,0.2037 0.553665,0.8332 0.294612,-0.1948 0.528357,-0.2812 -0.47064,-0.8834 z m -1.370892,1.0007 -0.01843,0.015 -0.01658,0.017 -0.546749,0.5385 0.701311,0.7124 0.530159,-0.5218 0.161954,-0.1317 -0.629217,-0.7769 z m -1.639177,1.9442 -0.01486,0.021 -0.01096,0.021 -0.172163,0.3131 0.874605,0.4835 0.161204,-0.2922 0.349441,-0.5086 -0.822976,-0.5666 z m -0.761768,1.5436 -0.01107,0.023 -0.0073,0.025 -0.221085,0.6958 0.953172,0.3041 0.216415,-0.6824 0.0943,-0.2157 -0.918657,-0.3959 z m -0.553326,2.6019 -0.0014,0.025 -0.0014,0.025 -2.63e-4,0.2133 0.999325,0.01 0.0026,-0.1856 0.07996,-0.7604 -0.993728,-0.1048 z m 15.507681,4.6445 -0.428284,0.6234 -0.0167,0.019 0.765824,0.6436 0.0335,-0.039 0.01464,-0.017 0.01291,-0.021 0.455939,-0.663 0.01486,-0.021 0.01096,-0.021 0.06975,-0.1271 -0.874605,-0.4835 z m -1.459296,1.7372 -0.0082,0.01 -0.311437,0.2504 0.631166,0.777 0.34646,-0.2818 0.01843,-0.015 0.01659,-0.017 0.395506,-0.3886 -0.701317,-0.7123 z m -1.211986,0.8883 -0.653434,0.3487 -0.01994,0.01 0.0018,0 -0.01008,0.01 0.04955,0.093 0.340891,0.8252 0.03609,-0.016 0.022,-0.01 0.02222,-0.012 0.709895,-0.3787 0.02211,-0.01 0.02038,-0.015 0.130068,-0.086 -0.553665,-0.8333 z m -8.412387,0.9155 0.4895,0.2702 0.0209,0.011 0.02285,0.011 0.404958,0.1735 0.395885,-0.9167 -0.387627,-0.1686 -0.46297,-0.2549 z m 6.323514,-0.053 -0.387809,0.078 0.193331,0.9792 0.405466,-0.079 0.02373,0 0.02394,-0.01 0.563167,-0.1698 -0.290417,-0.9574 z m -4.397932,0.8754 0.190307,0.06 0.02502,0.01 0.02318,0.01 0.782961,0.1654 0.205686,-0.9783 -0.755886,-0.1598 -0.169187,-0.053 z m 2.84948,-0.6475 -0.727499,0 -0.0073,0.9993 0.748954,0 0.02546,-5e-4 0.02557,0 0.24974,-0.023 -0.09451,-0.9972 z" style="color:#000000;font-style:normal;font-variant:normal;font-weight:normal;font-stretch:normal;font-size:medium;line-height:normal;font-family:sans-serif;text-indent:0;text-align:start;text-decoration:none;text-decoration-line:none;text-decoration-style:solid;text-decoration-color:#000000;letter-spacing:normal;word-spacing:normal;text-transform:none;direction:ltr;block-progression:tb;writing-mode:lr-tb;baseline-shift:baseline;text-anchor:start;white-space:normal;clip-rule:nonzero;display:inline;overflow:visible;visibility:visible;opacity:1;isolation:auto;mix-blend-mode:normal;color-interpolation:sRGB;color-interpolation-filters:linearRGB;solid-color:#000000;solid-opacity:1;fill:#f05542;fill-opacity:1;fill-rule:nonzero;stroke:none;stroke-width:0.99999994;stroke-linecap:butt;stroke-linejoin:miter;stroke-miterlimit:4;stroke-dasharray:0.99999997, 0.99999997;stroke-dashoffset:0;stroke-opacity:1;color-rendering:auto;image-rendering:auto;shape-rendering:auto;text-rendering:auto;enable-background:accumulate"/>
      <path inkscape:connector-curvature="0" id="rect4379" d="m 17.988464,1023.0689 c -0.723311,0.4198 -0.924621,1.3737 -0.504654,2.0995 l 2.21062,3.8206 c 0.419962,0.7258 1.346384,1.0252 2.069695,0.6053 l 1.481434,-0.8598 a 0.49971033,0.50038992 14.907128 1 0 -0.500813,-0.8656 l -1.481434,0.8599 c -0.224357,0.1302 -0.534092,0.052 -0.704008,-0.2418 l -2.21062,-3.8206 c -0.169916,-0.2937 -0.08376,-0.6018 0.140593,-0.732 l 1.440898,-0.8363 a 0.49971033,0.50038992 14.907128 1 0 -0.500814,-0.8656 l -1.440897,0.8364 z" style="color:#000000;font-style:normal;font-variant:normal;font-weight:normal;font-stretch:normal;font-size:medium;line-height:normal;font-family:sans-serif;text-indent:0;text-align:start;text-decoration:none;text-decoration-line:none;text-decoration-style:solid;text-decoration-color:#000000;letter-spacing:normal;word-spacing:normal;text-transform:none;direction:ltr;block-progression:tb;writing-mode:lr-tb;baseline-shift:baseline;text-anchor:start;white-space:normal;clip-rule:nonzero;display:inline;overflow:visible;visibility:visible;opacity:1;isolation:auto;mix-blend-mode:normal;color-interpolation:sRGB;color-interpolation-filters:linearRGB;solid-color:#000000;solid-opacity:1;fill:#2b4255;fill-opacity:1;fill-rule:nonzero;stroke:none;stroke-width:1.00000048;stroke-linecap:round;stroke-linejoin:round;stroke-miterlimit:4;stroke-dasharray:none;stroke-dashoffset:0;stroke-opacity:1;color-rendering:auto;image-rendering:auto;shape-rendering:auto;text-rendering:auto;enable-background:accumulate"/>
      <path inkscape:connector-curvature="0" id="rect4398" d="m 22.792278,1027.7761 a 0.50005,0.50005 0 0 0 -0.402344,0.7598 l 4.017578,6.8164 -1.089844,0 -3.707031,-6.3691 a 0.50063587,0.50063587 0 1 0 -0.865234,0.5039 l 3.853515,6.6172 a 0.50005,0.50005 0 0 0 0.431641,0.248 l 2.251953,0 a 0.50005,0.50005 0 0 0 0.431641,-0.7539 l -4.462891,-7.5703 a 0.50005,0.50005 0 0 0 -0.458984,-0.252 z" style="color:#000000;font-style:normal;font-variant:normal;font-weight:normal;font-stretch:normal;font-size:medium;line-height:normal;font-family:sans-serif;text-indent:0;text-align:start;text-decoration:none;text-decoration-line:none;text-decoration-style:solid;text-decoration-color:#000000;letter-spacing:normal;word-spacing:normal;text-transform:none;direction:ltr;block-progression:tb;writing-mode:lr-tb;baseline-shift:baseline;text-anchor:start;white-space:normal;clip-rule:nonzero;display:inline;overflow:visible;visibility:visible;opacity:1;isolation:auto;mix-blend-mode:normal;color-interpolation:sRGB;color-interpolation-filters:linearRGB;solid-color:#000000;solid-opacity:1;fill:#2b4255;fill-opacity:1;fill-rule:nonzero;stroke:none;stroke-width:1;stroke-linecap:round;stroke-linejoin:round;stroke-miterlimit:4;stroke-dasharray:none;stroke-dashoffset:0;stroke-opacity:1;color-rendering:auto;image-rendering:auto;shape-rendering:auto;text-rendering:auto;enable-background:accumulate"/>
      <path inkscape:connector-curvature="0" id="path4785" d="m 37.771303,1005.3683 a 0.50004921,0.50005073 0 0 0 -0.164515,0.9767 c 6.299405,2.0736 9.990109,8.5793 8.538902,15.0503 a 0.50004921,0.50005073 0 1 0 0.975551,0.2193 c 1.561926,-6.9648 -2.422738,-13.9886 -9.202724,-16.2204 a 0.50004921,0.50005073 0 0 0 -0.147214,-0.026 z" style="color:#000000;font-style:normal;font-variant:normal;font-weight:normal;font-stretch:normal;font-size:medium;line-height:normal;font-family:sans-serif;text-indent:0;text-align:start;text-decoration:none;text-decoration-line:none;text-decoration-style:solid;text-decoration-color:#000000;letter-spacing:normal;word-spacing:normal;text-transform:none;direction:ltr;block-progression:tb;writing-mode:lr-tb;baseline-shift:baseline;text-anchor:start;white-space:normal;clip-rule:nonzero;display:inline;overflow:visible;visibility:visible;opacity:1;isolation:auto;mix-blend-mode:normal;color-interpolation:sRGB;color-interpolation-filters:linearRGB;solid-color:#000000;solid-opacity:1;fill:#f05542;fill-opacity:1;fill-rule:nonzero;stroke:none;stroke-width:0.99999994;stroke-linecap:round;stroke-linejoin:round;stroke-miterlimit:4;stroke-dasharray:none;stroke-dashoffset:0;stroke-opacity:1;color-rendering:auto;image-rendering:auto;shape-rendering:auto;text-rendering:auto;enable-background:accumulate"/>
      <path inkscape:connector-curvature="0" id="path4789" d="m 37.389702,1010.654 a 0.50004921,0.50005073 0 0 0 -0.217689,0.9482 c 3.432309,1.7684 5.066404,5.7617 3.859093,9.4291 a 0.50028871,0.50029023 0 1 0 0.950784,0.3117 c 1.358852,-4.1277 -0.487974,-8.6382 -4.351068,-10.6285 a 0.50004921,0.50005073 0 0 0 -0.24112,-0.061 z" style="color:#000000;font-style:normal;font-variant:normal;font-weight:normal;font-stretch:normal;font-size:medium;line-height:normal;font-family:sans-serif;text-indent:0;text-align:start;text-decoration:none;text-decoration-line:none;text-decoration-style:solid;text-decoration-color:#000000;letter-spacing:normal;word-spacing:normal;text-transform:none;direction:ltr;block-progression:tb;writing-mode:lr-tb;baseline-shift:baseline;text-anchor:start;white-space:normal;clip-rule:nonzero;display:inline;overflow:visible;visibility:visible;opacity:1;isolation:auto;mix-blend-mode:normal;color-interpolation:sRGB;color-interpolation-filters:linearRGB;solid-color:#000000;solid-opacity:1;fill:#f05542;fill-opacity:1;fill-rule:nonzero;stroke:none;stroke-width:0.99999994;stroke-linecap:round;stroke-linejoin:round;stroke-miterlimit:4;stroke-dasharray:none;stroke-dashoffset:0;stroke-opacity:1;color-rendering:auto;image-rendering:auto;shape-rendering:auto;text-rendering:auto;enable-background:accumulate"/>
      <path sodipodi:nodetypes="cccccccccccccccccccccccccccccccc" inkscape:connector-curvature="0" id="path4771" d="m 33.011075,1014.3846 -0.04897,0 -0.04963,0.013 -0.712247,0.1771 -0.04768,0.013 -0.04422,0.021 -0.07034,0.033 0.380988,0.8079 0.02398,0.095 0.01788,0 0.0036,0.01 0.03013,-0.014 0.615048,-0.1531 0.135322,-0.01 -0.04359,-0.9982 z m 3.139912,6.1486 -0.418739,0.4538 -0.02038,0.014 0.0037,0 -0.01659,0.017 0.08738,0.081 0.517895,0.7041 0.05919,-0.044 0.0388,-0.029 0.03123,-0.034 0.487366,-0.5261 0.03133,-0.035 0.02582,-0.042 0.111831,-0.1796 -0.85063,-0.5271 z" style="color:#000000;font-style:normal;font-variant:normal;font-weight:normal;font-stretch:normal;font-size:medium;line-height:normal;font-family:sans-serif;text-indent:0;text-align:start;text-decoration:none;text-decoration-line:none;text-decoration-style:solid;text-decoration-color:#000000;letter-spacing:normal;word-spacing:normal;text-transform:none;direction:ltr;block-progression:tb;writing-mode:lr-tb;baseline-shift:baseline;text-anchor:start;white-space:normal;clip-rule:nonzero;display:inline;overflow:visible;visibility:visible;opacity:1;isolation:auto;mix-blend-mode:normal;color-interpolation:sRGB;color-interpolation-filters:linearRGB;solid-color:#000000;solid-opacity:1;fill:#f05542;fill-opacity:1;fill-rule:nonzero;stroke:none;stroke-width:1;stroke-linecap:butt;stroke-linejoin:miter;stroke-miterlimit:4;stroke-dasharray:1, 1;stroke-dashoffset:0;stroke-opacity:1;color-rendering:auto;image-rendering:auto;shape-rendering:auto;text-rendering:auto;enable-background:accumulate"/>
      <path inkscape:connector-curvature="0" id="path4793" d="m 34.755675,1014.5297 a 0.50004924,0.50005076 0 0 0 -0.164515,0.9767 c 1.701873,0.5602 2.619366,2.3793 2.05909,4.0811 a 0.50054816,0.50054969 0 1 0 0.950677,0.3137 c 0.729284,-2.2152 -0.482819,-4.6165 -2.698038,-5.3456 a 0.50004924,0.50005076 0 0 0 -0.147214,-0.026 z" style="color:#000000;font-style:normal;font-variant:normal;font-weight:normal;font-stretch:normal;font-size:medium;line-height:normal;font-family:sans-serif;text-indent:0;text-align:start;text-decoration:none;text-decoration-line:none;text-decoration-style:solid;text-decoration-color:#000000;letter-spacing:normal;word-spacing:normal;text-transform:none;direction:ltr;block-progression:tb;writing-mode:lr-tb;baseline-shift:baseline;text-anchor:start;white-space:normal;clip-rule:nonzero;display:inline;overflow:visible;visibility:visible;opacity:1;isolation:auto;mix-blend-mode:normal;color-interpolation:sRGB;color-interpolation-filters:linearRGB;solid-color:#000000;solid-opacity:1;fill:#f05542;fill-opacity:1;fill-rule:nonzero;stroke:none;stroke-width:1;stroke-linecap:round;stroke-linejoin:round;stroke-miterlimit:4;stroke-dasharray:none;stroke-dashoffset:0;stroke-opacity:1;color-rendering:auto;image-rendering:auto;shape-rendering:auto;text-rendering:auto;enable-background:accumulate"/>
      <path inkscape:connector-curvature="0" id="path15048" d="m 17.492048,1024.7029 c -0.845535,0.4908 -1.368214,1.398 -1.366705,2.3764 0.0015,0.9783 0.525521,1.884 1.372343,2.3718 0.84682,0.4877 1.892538,0.4846 2.738073,-0.01 a 0.49971032,0.50038992 14.907157 1 0 -0.500813,-0.8656 c -0.537753,0.3122 -1.198761,0.3141 -1.737656,0 -0.538899,-0.3104 -0.870578,-0.8837 -0.87153,-1.5063 -9.62e-4,-0.6226 0.329349,-1.1961 0.867102,-1.5082 a 0.49971032,0.50038992 14.907157 1 0 -0.500814,-0.8656 z" style="color:#000000;font-style:normal;font-variant:normal;font-weight:normal;font-stretch:normal;font-size:medium;line-height:normal;font-family:sans-serif;text-indent:0;text-align:start;text-decoration:none;text-decoration-line:none;text-decoration-style:solid;text-decoration-color:#000000;letter-spacing:normal;word-spacing:normal;text-transform:none;direction:ltr;block-progression:tb;writing-mode:lr-tb;baseline-shift:baseline;text-anchor:start;white-space:normal;clip-rule:nonzero;display:inline;overflow:visible;visibility:visible;opacity:1;isolation:auto;mix-blend-mode:normal;color-interpolation:sRGB;color-interpolation-filters:linearRGB;solid-color:#000000;solid-opacity:1;fill:#2b4255;fill-opacity:1;fill-rule:nonzero;stroke:none;stroke-width:1.00000048;stroke-linecap:round;stroke-linejoin:round;stroke-miterlimit:4;stroke-dasharray:none;stroke-dashoffset:0;stroke-opacity:1;color-rendering:auto;image-rendering:auto;shape-rendering:auto;text-rendering:auto;enable-background:accumulate"/>
      <path inkscape:connector-curvature="0" id="path15062" d="m 28.653606,1014.0281 a 0.50005,0.50005 0 0 0 -0.464844,0.2988 c -0.370477,0.8163 -0.857216,1.6475 -1.447265,2.4571 a 0.50005,0.50005 0 1 0 0.808593,0.5878 c 0.627261,-0.8606 1.149419,-1.7465 1.550782,-2.6308 a 0.50005,0.50005 0 0 0 -0.447266,-0.7129 z m -2.837891,4.1758 a 0.50005,0.50005 0 0 0 -0.388671,0.164 c -0.09701,0.1033 -0.194863,0.2053 -0.294922,0.3067 a 0.50005,0.50005 0 1 0 0.71289,0.7012 c 0.105941,-0.1074 0.20816,-0.2153 0.310547,-0.3243 a 0.50005,0.50005 0 0 0 -0.339844,-0.8476 z m -1.457031,1.3515 a 0.50005,0.50005 0 0 0 -0.304687,0.1231 c -0.767715,0.6562 -1.607302,1.2577 -2.50586,1.7793 a 0.50013195,0.50013195 0 1 0 0.501953,0.8652 c 0.953443,-0.5534 1.840459,-1.1908 2.652344,-1.8847 a 0.50005,0.50005 0 0 0 -0.34375,-0.8829 z m 10.400391,4.7715 c -2.939407,-0.2326 -6.954541,0.4608 -10.195313,2.3418 a 0.5001752,0.5001752 0 0 0 0.501953,0.8653 c 3.018574,-1.7521 6.908652,-2.4232 9.615235,-2.209 a 0.50057664,0.50057664 0 0 0 0.07813,-0.9981 z" style="color:#000000;font-style:normal;font-variant:normal;font-weight:normal;font-stretch:normal;font-size:medium;line-height:normal;font-family:sans-serif;text-indent:0;text-align:start;text-decoration:none;text-decoration-line:none;text-decoration-style:solid;text-decoration-color:#000000;letter-spacing:normal;word-spacing:normal;text-transform:none;direction:ltr;block-progression:tb;writing-mode:lr-tb;baseline-shift:baseline;text-anchor:start;white-space:normal;clip-rule:nonzero;display:inline;overflow:visible;visibility:visible;opacity:1;isolation:auto;mix-blend-mode:normal;color-interpolation:sRGB;color-interpolation-filters:linearRGB;solid-color:#000000;solid-opacity:1;fill:#2b4255;fill-opacity:1;fill-rule:nonzero;stroke:none;stroke-width:1;stroke-linecap:round;stroke-linejoin:round;stroke-miterlimit:4;stroke-dasharray:none;stroke-dashoffset:0;stroke-opacity:1;color-rendering:auto;image-rendering:auto;shape-rendering:auto;text-rendering:auto;enable-background:accumulate"/>
      <path inkscape:connector-curvature="0" id="path15567" d="m 29.93095,1011.4871 c -0.421415,-0.1122 -0.885452,-0.066 -1.289063,0.168 -0.807227,0.4685 -1.084604,1.5183 -0.617187,2.3261 l 3.611328,6.2403 a 0.50005,0.50005 0 1 0 0.865234,-0.5 l -3.611328,-6.2422 c -0.198583,-0.3432 -0.08731,-0.7598 0.25586,-0.959 0.342593,-0.1975 0.756857,-0.087 0.955078,0.2558 l 6.736328,11.6426 c 0.198628,0.3434 0.08714,0.758 -0.25586,0.9571 -0.342994,0.199 -0.756488,0.089 -0.955078,-0.254 L 34.36845,1022.95 a 0.50005,0.50005 0 1 0 -0.865235,0.5 l 1.257813,2.1738 c 0.46741,0.8079 1.51506,1.0857 2.322266,0.6172 0.807195,-0.4685 1.086511,-1.5164 0.61914,-2.3242 l -6.736328,-11.6426 c -0.2337,-0.4039 -0.613742,-0.6749 -1.035156,-0.7871 z m 2.8125,9.1855 a 0.50005,0.50005 0 0 0 -0.427735,0.7754 l 0.320313,0.502 a 0.50009761,0.50009761 0 1 0 0.84375,-0.5371 l -0.320313,-0.502 a 0.50005,0.50005 0 0 0 -0.416015,-0.2383 z" style="color:#000000;font-style:normal;font-variant:normal;font-weight:normal;font-stretch:normal;font-size:medium;line-height:normal;font-family:sans-serif;text-indent:0;text-align:start;text-decoration:none;text-decoration-line:none;text-decoration-style:solid;text-decoration-color:#000000;letter-spacing:normal;word-spacing:normal;text-transform:none;direction:ltr;block-progression:tb;writing-mode:lr-tb;baseline-shift:baseline;text-anchor:start;white-space:normal;clip-rule:nonzero;display:inline;overflow:visible;visibility:visible;opacity:1;isolation:auto;mix-blend-mode:normal;color-interpolation:sRGB;color-interpolation-filters:linearRGB;solid-color:#000000;solid-opacity:1;fill:#2b4255;fill-opacity:1;fill-rule:nonzero;stroke:none;stroke-width:1;stroke-linecap:round;stroke-linejoin:round;stroke-miterlimit:4;stroke-dasharray:none;stroke-dashoffset:0;stroke-opacity:1;color-rendering:auto;image-rendering:auto;shape-rendering:auto;text-rendering:auto;enable-background:accumulate"/>
      <path inkscape:connector-curvature="0" id="rect15591" d="m 20.006427,1021.2982 c -0.742714,0.4517 -0.98183,1.4359 -0.531174,2.1792 l 2.725846,4.496 c 0.450657,0.7434 1.431858,0.9832 2.174572,0.5315 0.742705,-0.4517 0.982832,-1.4342 0.532176,-2.1775 L 22.182,1021.8313 c -0.450656,-0.7433 -1.432868,-0.9848 -2.175573,-0.5331 z m 0.518436,0.8551 c 0.284143,-0.1728 0.630321,-0.087 0.802727,0.1976 l 2.725846,4.4961 c 0.172406,0.2843 0.08794,0.63 -0.196202,0.8028 -0.28416,0.1728 -0.629318,0.088 -0.801724,-0.196 l -2.725846,-4.496 c -0.172406,-0.2844 -0.08896,-0.6317 0.195199,-0.8045 z" style="color:#000000;font-style:normal;font-variant:normal;font-weight:normal;font-stretch:normal;font-size:medium;line-height:normal;font-family:sans-serif;text-indent:0;text-align:start;text-decoration:none;text-decoration-line:none;text-decoration-style:solid;text-decoration-color:#000000;letter-spacing:normal;word-spacing:normal;text-transform:none;direction:ltr;block-progression:tb;writing-mode:lr-tb;baseline-shift:baseline;text-anchor:start;white-space:normal;clip-rule:nonzero;display:inline;overflow:visible;visibility:visible;opacity:1;isolation:auto;mix-blend-mode:normal;color-interpolation:sRGB;color-interpolation-filters:linearRGB;solid-color:#000000;solid-opacity:1;fill:#2b4255;fill-opacity:1;fill-rule:nonzero;stroke:none;stroke-width:1.00000048;stroke-linecap:round;stroke-linejoin:round;stroke-miterlimit:4;stroke-dasharray:none;stroke-dashoffset:0;stroke-opacity:1;color-rendering:auto;image-rendering:auto;shape-rendering:auto;text-rendering:auto;enable-background:accumulate"/>
    </g>
  </g>

	
	
	<metadata>
		<rdf:RDF xmlns:rdf="http://www.w3.org/1999/02/22-rdf-syntax-ns#" xmlns:rdfs="http://www.w3.org/2000/01/rdf-schema#" xmlns:dc="http://purl.org/dc/elements/1.1/">
			<rdf:Description about="https://iconscout.com/legal#licenses" dc:title="Announcement, Communication, Loud, Sound, Speaker, Stereo, Megaphone" dc:description="Announcement, Communication, Loud, Sound, Speaker, Stereo, Megaphone" dc:publisher="Iconscout" dc:date="2016-12-14" dc:format="image/svg+xml" dc:language="en">
				<dc:creator>
					<rdf:Bag>
						<rdf:li>Dalpat Prajapati</rdf:li>
					</rdf:Bag>
				</dc:creator>
			</rdf:Description>
		</rdf:RDF>
    </metadata></svg>
