<svg width="200" height="200" viewBox="0 0 202 202" fill="none" xmlns="http://www.w3.org/2000/svg">
<path d="M156.629 44.1448C156.211 44.1389 155.795 44.2162 155.407 44.3722C155.019 44.5281 154.666 44.7597 154.368 45.0533C154.07 45.347 153.834 45.697 153.672 46.0828C153.511 46.4687 153.428 46.8828 153.428 47.3011C153.428 47.7194 153.511 48.1335 153.672 48.5194C153.834 48.9052 154.07 49.2552 154.368 49.5488C154.666 49.8425 155.019 50.0741 155.407 50.23C155.795 50.386 156.211 50.4633 156.629 50.4573H189.375V59.1V70.8867C189.369 71.3049 189.446 71.7199 189.602 72.108C189.758 72.4961 189.99 72.8497 190.284 73.1475C190.577 73.4454 190.927 73.6819 191.313 73.8433C191.699 74.0048 192.113 74.0876 192.531 74.0876C192.95 74.0876 193.364 74.0048 193.75 73.8433C194.135 73.6819 194.485 73.4454 194.779 73.1475C195.073 72.8497 195.304 72.4961 195.46 72.108C195.616 71.7199 195.693 71.3049 195.688 70.8867V59.1V47.3011C195.687 46.464 195.355 45.6614 194.763 45.0695C194.171 44.4776 193.368 44.1449 192.531 44.1448H156.629ZM192.482 79.4801C191.647 79.4931 190.851 79.8362 190.269 80.4348C189.687 81.0333 189.365 81.8383 189.375 82.6733V85.7556C189.369 86.1738 189.446 86.5896 189.602 86.9777C189.758 87.3658 189.99 87.7186 190.284 88.0164C190.577 88.3143 190.927 88.5508 191.313 88.7122C191.699 88.8737 192.113 88.9573 192.531 88.9573C192.95 88.9573 193.364 88.8737 193.75 88.7122C194.135 88.5508 194.485 88.3143 194.779 88.0164C195.073 87.7186 195.304 87.3658 195.46 86.9777C195.616 86.5896 195.693 86.1738 195.688 85.7556V82.6733C195.692 82.2515 195.613 81.8332 195.453 81.4427C195.294 81.0522 195.058 80.6978 194.759 80.4001C194.46 80.1024 194.105 79.8677 193.714 79.7097C193.323 79.5517 192.904 79.4735 192.482 79.4801V79.4801ZM192.482 91.2667C191.647 91.2797 190.851 91.6229 190.269 92.2214C189.687 92.82 189.365 93.6249 189.375 94.4599V106.259V118.045V129.832V138.475H158.367C157.53 138.475 156.727 138.808 156.136 139.399C155.544 139.991 155.211 140.794 155.211 141.631V165.118L133.29 139.572C132.992 139.226 132.623 138.949 132.208 138.76C131.793 138.57 131.342 138.473 130.886 138.475H57.6016C57.1833 138.469 56.7681 138.546 56.38 138.702C55.9919 138.858 55.6386 139.09 55.3407 139.383C55.0429 139.677 54.8063 140.027 54.6449 140.413C54.4834 140.799 54.4004 141.213 54.4004 141.631C54.4004 142.049 54.4834 142.463 54.6449 142.849C54.8063 143.235 55.0429 143.585 55.3407 143.879C55.6386 144.172 55.9919 144.404 56.38 144.56C56.7681 144.716 57.1833 144.793 57.6016 144.787H129.443L155.963 175.696C156.382 176.189 156.943 176.541 157.569 176.704C158.195 176.868 158.856 176.835 159.463 176.61C160.07 176.386 160.593 175.98 160.962 175.448C161.33 174.916 161.526 174.284 161.524 173.637V144.787H192.531C193.368 144.787 194.171 144.455 194.763 143.863C195.355 143.271 195.687 142.468 195.688 141.631V129.832V118.045V106.259V94.4599C195.692 94.0381 195.613 93.6198 195.453 93.2293C195.294 92.8388 195.058 92.4844 194.759 92.1867C194.46 91.889 194.105 91.6543 193.714 91.4963C193.323 91.3383 192.904 91.2601 192.482 91.2667V91.2667Z" fill="#EC8600"/>
<path d="M9.46875 25.207C8.63169 25.2071 7.82888 25.5398 7.23699 26.1317C6.6451 26.7236 6.31258 27.5262 6.3125 28.3633V122.681C6.31258 123.518 6.6451 124.321 7.23699 124.912C7.82888 125.504 8.63169 125.837 9.46875 125.837H40.4764V154.7C40.4767 155.344 40.6739 155.972 41.0418 156.501C41.4098 157.03 41.9307 157.434 42.5346 157.658C43.1386 157.882 43.7968 157.916 44.4206 157.755C45.0444 157.594 45.6041 157.247 46.0245 156.759L72.5568 125.837H154.656C155.493 125.837 156.296 125.504 156.888 124.912C157.48 124.321 157.812 123.518 157.812 122.681V28.3633C157.812 27.5262 157.48 26.7236 156.888 26.1317C156.296 25.5398 155.493 25.2071 154.656 25.207H9.46875ZM12.625 31.5195H151.5V119.525H71.1019C70.6468 119.526 70.1975 119.627 69.7846 119.818C69.3718 120.01 69.0052 120.288 68.7101 120.634L46.7889 146.18V122.681C46.7889 121.844 46.4563 121.041 45.8645 120.449C45.2726 119.857 44.4698 119.525 43.6327 119.525H12.625V31.5195Z" fill="#4C475A"/>
<path d="M112.7 63.7231C119.127 63.7231 124.388 69.0065 124.388 75.4358C124.388 81.8651 119.127 87.1484 112.7 87.1484C106.274 87.1484 101 81.8651 101 75.4358C101 69.0065 106.274 63.7231 112.7 63.7231ZM112.7 70.0356C109.693 70.0356 107.313 72.4108 107.312 75.4358C107.313 78.4607 109.693 80.8359 112.7 80.8359C115.708 80.8359 118.076 78.4607 118.076 75.4358C118.076 72.4108 115.708 70.0356 112.7 70.0356ZM82.0625 63.7231C88.4887 63.7231 93.7504 69.0065 93.7505 75.4358C93.7504 81.8651 88.4887 87.1484 82.0625 87.1484C75.6363 87.1484 70.3623 81.8651 70.3622 75.4358C70.3623 69.0065 75.6363 63.7231 82.0625 63.7231ZM82.0625 70.0356C79.0553 70.0356 76.6747 72.4108 76.6747 75.4358C76.6747 78.4607 79.0553 80.8359 82.0625 80.8359C85.0697 80.8359 87.438 78.4607 87.438 75.4358C87.438 72.4108 85.0697 70.0356 82.0625 70.0356ZM51.4247 63.7231C57.8509 63.7231 63.1249 69.0065 63.125 75.4358C63.1249 81.8651 57.8509 87.1484 51.4247 87.1484C44.9985 87.1484 39.7244 81.8651 39.7244 75.4358C39.7244 69.0065 44.9985 63.7231 51.4247 63.7231ZM51.4247 70.0356C48.4175 70.0356 46.0369 72.4108 46.0369 75.4358C46.0369 78.4607 48.4175 80.8359 51.4247 80.8359C54.4319 80.8359 56.8124 78.4607 56.8125 75.4358C56.8124 72.4108 54.4319 70.0356 51.4247 70.0356Z" fill="#4C475A"/>
</svg>
