<!-- <?xml version="1.0" encoding="UTF-8" standalone="no"?>
<svg xmlns:dc="http://purl.org/dc/elements/1.1/" xmlns:cc="http://creativecommons.org/ns#" xmlns:rdf="http://www.w3.org/1999/02/22-rdf-syntax-ns#" xmlns:svg="http://www.w3.org/2000/svg" xmlns="http://www.w3.org/2000/svg" xmlns:sodipodi="http://sodipodi.sourceforge.net/DTD/sodipodi-0.dtd" xmlns:inkscape="http://www.inkscape.org/namespaces/inkscape" width="64px" height="64px" viewBox="0 0 64.000001 64.000001" id="svg2" version="1.1" inkscape:version="0.91 r13725" sodipodi:docname="Face happy healthy lucky smile emoticon cheerful.svg">
  <defs id="defs4">
    <pattern y="0" x="0" height="6" width="6" patternUnits="userSpaceOnUse" id="EMFhbasepattern"/>
  </defs>
  <sodipodi:namedview id="base" pagecolor="#ffffff" bordercolor="#666666" borderopacity="1.0" inkscape:pageopacity="0.0" inkscape:pageshadow="2" inkscape:zoom="15.839192" inkscape:cx="36.235171" inkscape:cy="38.720102" inkscape:document-units="px" inkscape:current-layer="layer1" showgrid="true" units="px" inkscape:window-width="1366" inkscape:window-height="705" inkscape:window-x="-8" inkscape:window-y="-8" inkscape:window-maximized="1" inkscape:snap-bbox="true" inkscape:bbox-paths="true" inkscape:bbox-nodes="true" inkscape:snap-bbox-edge-midpoints="true" inkscape:snap-bbox-midpoints="true">
    <inkscape:grid type="xygrid" id="grid3358"/>
  </sodipodi:namedview>

  <g inkscape:label="Layer 1" inkscape:groupmode="layer" id="layer1" transform="translate(0,-988.36216)">
    <g id="g3410">
      <path inkscape:connector-curvature="0" id="path8840" d="m 12.447266,1033.3613 a 0.50005,0.50005 0 1 0 0,1 l 39.816406,0 a 0.50005,0.50005 0 1 0 0,-1 l -39.816406,0 z" style="color:#000000;font-style:normal;font-variant:normal;font-weight:normal;font-stretch:normal;font-size:medium;line-height:normal;font-family:sans-serif;text-indent:0;text-align:start;text-decoration:none;text-decoration-line:none;text-decoration-style:solid;text-decoration-color:#000000;letter-spacing:normal;word-spacing:normal;text-transform:none;direction:ltr;block-progression:tb;writing-mode:lr-tb;baseline-shift:baseline;text-anchor:start;white-space:normal;clip-rule:nonzero;display:inline;overflow:visible;visibility:visible;opacity:1;isolation:auto;mix-blend-mode:normal;color-interpolation:sRGB;color-interpolation-filters:linearRGB;solid-color:#000000;solid-opacity:1;fill:#2b4255;fill-opacity:1;fill-rule:nonzero;stroke:none;stroke-width:1px;stroke-linecap:round;stroke-linejoin:round;stroke-miterlimit:4;stroke-dasharray:none;stroke-dashoffset:0;stroke-opacity:1;color-rendering:auto;image-rendering:auto;shape-rendering:auto;text-rendering:auto;enable-background:accumulate"/>
      <path inkscape:connector-curvature="0" id="path8842" d="m 54.972656,1033.3613 a 0.50005,0.50005 0 1 0 0,1 l 2.064453,0 a 0.50005,0.50005 0 1 0 0,-1 l -2.064453,0 z" style="color:#000000;font-style:normal;font-variant:normal;font-weight:normal;font-stretch:normal;font-size:medium;line-height:normal;font-family:sans-serif;text-indent:0;text-align:start;text-decoration:none;text-decoration-line:none;text-decoration-style:solid;text-decoration-color:#000000;letter-spacing:normal;word-spacing:normal;text-transform:none;direction:ltr;block-progression:tb;writing-mode:lr-tb;baseline-shift:baseline;text-anchor:start;white-space:normal;clip-rule:nonzero;display:inline;overflow:visible;visibility:visible;opacity:1;isolation:auto;mix-blend-mode:normal;color-interpolation:sRGB;color-interpolation-filters:linearRGB;solid-color:#000000;solid-opacity:1;fill:#2b4255;fill-opacity:1;fill-rule:nonzero;stroke:none;stroke-width:1px;stroke-linecap:round;stroke-linejoin:round;stroke-miterlimit:4;stroke-dasharray:none;stroke-dashoffset:0;stroke-opacity:1;color-rendering:auto;image-rendering:auto;shape-rendering:auto;text-rendering:auto;enable-background:accumulate"/>
      <path inkscape:connector-curvature="0" id="path8844" d="m 4.5078125,1033.3613 a 0.50005,0.50005 0 1 0 0,1 l 5.7031255,0 a 0.50005,0.50005 0 1 0 0,-1 l -5.7031255,0 z" style="color:#000000;font-style:normal;font-variant:normal;font-weight:normal;font-stretch:normal;font-size:medium;line-height:normal;font-family:sans-serif;text-indent:0;text-align:start;text-decoration:none;text-decoration-line:none;text-decoration-style:solid;text-decoration-color:#000000;letter-spacing:normal;word-spacing:normal;text-transform:none;direction:ltr;block-progression:tb;writing-mode:lr-tb;baseline-shift:baseline;text-anchor:start;white-space:normal;clip-rule:nonzero;display:inline;overflow:visible;visibility:visible;opacity:1;isolation:auto;mix-blend-mode:normal;color-interpolation:sRGB;color-interpolation-filters:linearRGB;solid-color:#000000;solid-opacity:1;fill:#2b4255;fill-opacity:1;fill-rule:nonzero;stroke:none;stroke-width:1px;stroke-linecap:round;stroke-linejoin:round;stroke-miterlimit:4;stroke-dasharray:none;stroke-dashoffset:0;stroke-opacity:1;color-rendering:auto;image-rendering:auto;shape-rendering:auto;text-rendering:auto;enable-background:accumulate"/>
      <path inkscape:connector-curvature="0" id="path8846" d="m 21.507812,1035.3613 a 0.50005,0.50005 0 1 0 0,1 l 19.734376,0 a 0.50005,0.50005 0 1 0 0,-1 l -19.734376,0 z" style="color:#000000;font-style:normal;font-variant:normal;font-weight:normal;font-stretch:normal;font-size:medium;line-height:normal;font-family:sans-serif;text-indent:0;text-align:start;text-decoration:none;text-decoration-line:none;text-decoration-style:solid;text-decoration-color:#000000;letter-spacing:normal;word-spacing:normal;text-transform:none;direction:ltr;block-progression:tb;writing-mode:lr-tb;baseline-shift:baseline;text-anchor:start;white-space:normal;clip-rule:nonzero;display:inline;overflow:visible;visibility:visible;opacity:1;isolation:auto;mix-blend-mode:normal;color-interpolation:sRGB;color-interpolation-filters:linearRGB;solid-color:#000000;solid-opacity:1;fill:#f05542;fill-opacity:1;fill-rule:evenodd;stroke:none;stroke-width:1px;stroke-linecap:round;stroke-linejoin:round;stroke-miterlimit:4;stroke-dasharray:none;stroke-dashoffset:0;stroke-opacity:1;color-rendering:auto;image-rendering:auto;shape-rendering:auto;text-rendering:auto;enable-background:accumulate"/>
      <path inkscape:connector-curvature="0" id="path8848" d="m 24.507812,1037.3613 a 0.50005,0.50005 0 1 0 0,1 l 5.261719,0 a 0.50005,0.50005 0 1 0 0,-1 l -5.261719,0 z" style="color:#000000;font-style:normal;font-variant:normal;font-weight:normal;font-stretch:normal;font-size:medium;line-height:normal;font-family:sans-serif;text-indent:0;text-align:start;text-decoration:none;text-decoration-line:none;text-decoration-style:solid;text-decoration-color:#000000;letter-spacing:normal;word-spacing:normal;text-transform:none;direction:ltr;block-progression:tb;writing-mode:lr-tb;baseline-shift:baseline;text-anchor:start;white-space:normal;clip-rule:nonzero;display:inline;overflow:visible;visibility:visible;opacity:1;isolation:auto;mix-blend-mode:normal;color-interpolation:sRGB;color-interpolation-filters:linearRGB;solid-color:#000000;solid-opacity:1;fill:#f05542;fill-opacity:1;fill-rule:evenodd;stroke:none;stroke-width:1px;stroke-linecap:round;stroke-linejoin:round;stroke-miterlimit:4;stroke-dasharray:none;stroke-dashoffset:0;stroke-opacity:1;color-rendering:auto;image-rendering:auto;shape-rendering:auto;text-rendering:auto;enable-background:accumulate"/>
      <path inkscape:connector-curvature="0" id="path8850" d="m 32.507812,1037.3613 a 0.50005,0.50005 0 1 0 0,1 l 7.060547,0 a 0.50005,0.50005 0 1 0 0,-1 l -7.060547,0 z" style="color:#000000;font-style:normal;font-variant:normal;font-weight:normal;font-stretch:normal;font-size:medium;line-height:normal;font-family:sans-serif;text-indent:0;text-align:start;text-decoration:none;text-decoration-line:none;text-decoration-style:solid;text-decoration-color:#000000;letter-spacing:normal;word-spacing:normal;text-transform:none;direction:ltr;block-progression:tb;writing-mode:lr-tb;baseline-shift:baseline;text-anchor:start;white-space:normal;clip-rule:nonzero;display:inline;overflow:visible;visibility:visible;opacity:1;isolation:auto;mix-blend-mode:normal;color-interpolation:sRGB;color-interpolation-filters:linearRGB;solid-color:#000000;solid-opacity:1;fill:#f05542;fill-opacity:1;fill-rule:evenodd;stroke:none;stroke-width:1px;stroke-linecap:round;stroke-linejoin:round;stroke-miterlimit:4;stroke-dasharray:none;stroke-dashoffset:0;stroke-opacity:1;color-rendering:auto;image-rendering:auto;shape-rendering:auto;text-rendering:auto;enable-background:accumulate"/>
      <path inkscape:connector-curvature="0" id="path8852" d="m 27.507812,1039.3613 a 0.50005,0.50005 0 1 0 0,1 l 5.115235,0 a 0.50005,0.50005 0 1 0 0,-1 l -5.115235,0 z" style="color:#000000;font-style:normal;font-variant:normal;font-weight:normal;font-stretch:normal;font-size:medium;line-height:normal;font-family:sans-serif;text-indent:0;text-align:start;text-decoration:none;text-decoration-line:none;text-decoration-style:solid;text-decoration-color:#000000;letter-spacing:normal;word-spacing:normal;text-transform:none;direction:ltr;block-progression:tb;writing-mode:lr-tb;baseline-shift:baseline;text-anchor:start;white-space:normal;clip-rule:nonzero;display:inline;overflow:visible;visibility:visible;opacity:1;isolation:auto;mix-blend-mode:normal;color-interpolation:sRGB;color-interpolation-filters:linearRGB;solid-color:#000000;solid-opacity:1;fill:#f05542;fill-opacity:1;fill-rule:evenodd;stroke:none;stroke-width:1px;stroke-linecap:round;stroke-linejoin:round;stroke-miterlimit:4;stroke-dasharray:none;stroke-dashoffset:0;stroke-opacity:1;color-rendering:auto;image-rendering:auto;shape-rendering:auto;text-rendering:auto;enable-background:accumulate"/>
      <path sodipodi:nodetypes="cccccccccc" inkscape:connector-curvature="0" id="path8854" d="m 31.31018,1006.2145 c -0.17262,0 -0.31037,0.1448 -0.30767,0.3174 0,0.2167 -0.0926,0.315 -0.30765,0.315 -0.42273,-0.01 -0.42273,0.6312 0,0.6251 0.20707,0 0.30765,0.057 0.30765,0.3016 -0.006,0.4226 0.63107,0.4226 0.62509,0 0,-0.2218 0.10377,-0.3016 0.30888,-0.3016 0.42273,0.01 0.42273,-0.6311 0,-0.6251 -0.27869,0 -0.30888,-0.1594 -0.30888,-0.315 0.002,-0.1764 -0.14098,-0.3201 -0.31742,-0.3174 z" style="color:#000000;font-style:normal;font-variant:normal;font-weight:normal;font-stretch:normal;font-size:medium;line-height:normal;font-family:sans-serif;text-indent:0;text-align:start;text-decoration:none;text-decoration-line:none;letter-spacing:normal;word-spacing:normal;text-transform:none;direction:ltr;block-progression:tb;writing-mode:lr-tb;baseline-shift:baseline;text-anchor:start;display:inline;overflow:visible;visibility:visible;fill:#2a4255;fill-opacity:0.99215686;fill-rule:evenodd;stroke:none;enable-background:accumulate"/>
      <path sodipodi:nodetypes="cccccccccc" inkscape:connector-curvature="0" id="path8856" d="m 15.05968,1010.0899 c -0.23692,0 -0.42598,0.1987 -0.42227,0.4357 0,0.2974 -0.12709,0.4323 -0.42225,0.4323 -0.58018,-0.01 -0.58018,0.8662 0,0.8579 0.2842,0 0.42225,0.079 0.42225,0.4139 -0.008,0.5801 0.86613,0.5801 0.85792,0 0,-0.3044 0.14242,-0.4139 0.42393,-0.4139 0.58019,0.01 0.58019,-0.8662 0,-0.8579 -0.38249,0 -0.42393,-0.2189 -0.42393,-0.4323 0.003,-0.2422 -0.19349,-0.4395 -0.43565,-0.4357 z" style="color:#000000;font-style:normal;font-variant:normal;font-weight:normal;font-stretch:normal;font-size:medium;line-height:normal;font-family:sans-serif;text-indent:0;text-align:start;text-decoration:none;text-decoration-line:none;letter-spacing:normal;word-spacing:normal;text-transform:none;direction:ltr;block-progression:tb;writing-mode:lr-tb;baseline-shift:baseline;text-anchor:start;display:inline;overflow:visible;visibility:visible;fill:#2a4255;fill-opacity:0.99215686;fill-rule:evenodd;stroke:none;enable-background:accumulate"/>
      <path sodipodi:nodetypes="cccccccccc" inkscape:connector-curvature="0" id="path8858" d="m 14.97706,1021.211 c -0.13007,0 -0.23387,0.1091 -0.23183,0.2392 0,0.1632 -0.0698,0.2373 -0.23181,0.2373 -0.31853,-0 -0.31853,0.4755 0,0.471 0.15602,0 0.23181,0.043 0.23181,0.2272 -0.005,0.3185 0.47551,0.3185 0.471,0 0,-0.1671 0.0782,-0.2272 0.23274,-0.2272 0.31853,0 0.31853,-0.4756 0,-0.471 -0.20999,0 -0.23274,-0.1201 -0.23274,-0.2373 0.002,-0.133 -0.10623,-0.2413 -0.23917,-0.2392 z" style="color:#000000;font-style:normal;font-variant:normal;font-weight:normal;font-stretch:normal;font-size:medium;line-height:normal;font-family:sans-serif;text-indent:0;text-align:start;text-decoration:none;text-decoration-line:none;letter-spacing:normal;word-spacing:normal;text-transform:none;direction:ltr;block-progression:tb;writing-mode:lr-tb;baseline-shift:baseline;text-anchor:start;display:inline;overflow:visible;visibility:visible;fill:#f05542;fill-opacity:1;fill-rule:evenodd;stroke:none;enable-background:accumulate"/>
      <path sodipodi:nodetypes="cccccccccc" inkscape:connector-curvature="0" id="path8860" d="m 21.97105,1002.2067 c -0.17262,0 -0.31037,0.1448 -0.30767,0.3174 0,0.2167 -0.0926,0.315 -0.30765,0.315 -0.42273,-0.01 -0.42273,0.6311 0,0.6251 0.20707,0 0.30765,0.057 0.30765,0.3016 -0.006,0.4226 0.63107,0.4226 0.62509,0 0,-0.2218 0.10377,-0.3016 0.30888,-0.3016 0.42273,0.01 0.42273,-0.6311 0,-0.6251 -0.27869,0 -0.30888,-0.1594 -0.30888,-0.315 0.002,-0.1764 -0.14098,-0.3202 -0.31742,-0.3174 z" style="color:#000000;font-style:normal;font-variant:normal;font-weight:normal;font-stretch:normal;font-size:medium;line-height:normal;font-family:sans-serif;text-indent:0;text-align:start;text-decoration:none;text-decoration-line:none;letter-spacing:normal;word-spacing:normal;text-transform:none;direction:ltr;block-progression:tb;writing-mode:lr-tb;baseline-shift:baseline;text-anchor:start;display:inline;overflow:visible;visibility:visible;fill:#2a4255;fill-opacity:0.99215686;fill-rule:evenodd;stroke:none;enable-background:accumulate"/>
      <path sodipodi:nodetypes="cccccccccc" inkscape:connector-curvature="0" id="path8862" d="m 36.98804,999.4164 c -0.13007,0.002 -0.23387,0.10912 -0.23183,0.23918 0,0.16329 -0.0698,0.23734 -0.23182,0.23734 -0.31852,-0.005 -0.31852,0.47558 0,0.47098 0.15603,0 0.23182,0.043 0.23182,0.2272 -0.005,0.3185 0.47551,0.3185 0.471,0 0,-0.1671 0.0782,-0.2272 0.23274,-0.2272 0.31853,0.01 0.31853,-0.47553 0,-0.47098 -0.20999,0 -0.23274,-0.12014 -0.23274,-0.23734 0.002,-0.13294 -0.10623,-0.24126 -0.23917,-0.23918 z" style="color:#000000;font-style:normal;font-variant:normal;font-weight:normal;font-stretch:normal;font-size:medium;line-height:normal;font-family:sans-serif;text-indent:0;text-align:start;text-decoration:none;text-decoration-line:none;letter-spacing:normal;word-spacing:normal;text-transform:none;direction:ltr;block-progression:tb;writing-mode:lr-tb;baseline-shift:baseline;text-anchor:start;display:inline;overflow:visible;visibility:visible;fill:#2a4255;fill-opacity:0.99215686;fill-rule:evenodd;stroke:none;enable-background:accumulate"/>
      <path sodipodi:nodetypes="cccccccccc" inkscape:connector-curvature="0" id="path8864" d="m 49.63042,1009.8143 c -0.17262,0 -0.31037,0.1448 -0.30767,0.3174 0,0.2167 -0.0926,0.315 -0.30765,0.315 -0.42273,-0.01 -0.42273,0.6311 0,0.6251 0.20707,0 0.30765,0.057 0.30765,0.3015 -0.006,0.4227 0.63107,0.4227 0.62509,0 0,-0.2217 0.10377,-0.3015 0.30888,-0.3015 0.42273,0.01 0.42273,-0.6312 0,-0.6251 -0.27869,0 -0.30888,-0.1595 -0.30888,-0.315 0.002,-0.1764 -0.14098,-0.3202 -0.31742,-0.3174 z" style="color:#000000;font-style:normal;font-variant:normal;font-weight:normal;font-stretch:normal;font-size:medium;line-height:normal;font-family:sans-serif;text-indent:0;text-align:start;text-decoration:none;text-decoration-line:none;letter-spacing:normal;word-spacing:normal;text-transform:none;direction:ltr;block-progression:tb;writing-mode:lr-tb;baseline-shift:baseline;text-anchor:start;display:inline;overflow:visible;visibility:visible;fill:#f05542;fill-opacity:1;fill-rule:evenodd;stroke:none;enable-background:accumulate"/>
      <path sodipodi:nodetypes="cccccccccc" inkscape:connector-curvature="0" id="path8866" d="m 47.98724,1011.6904 c -0.13007,0 -0.23386,0.1091 -0.23183,0.2391 0,0.1633 -0.0698,0.2374 -0.23181,0.2374 -0.31853,-0.01 -0.31853,0.4755 0,0.471 0.15603,0 0.23181,0.043 0.23181,0.2272 -0.005,0.3185 0.47551,0.3185 0.471,0 0,-0.1671 0.0782,-0.2272 0.23274,-0.2272 0.31853,0.01 0.31853,-0.4756 0,-0.471 -0.20999,0 -0.23274,-0.1202 -0.23274,-0.2374 0.002,-0.1329 -0.10622,-0.2412 -0.23917,-0.2391 z" style="color:#000000;font-style:normal;font-variant:normal;font-weight:normal;font-stretch:normal;font-size:medium;line-height:normal;font-family:sans-serif;text-indent:0;text-align:start;text-decoration:none;text-decoration-line:none;letter-spacing:normal;word-spacing:normal;text-transform:none;direction:ltr;block-progression:tb;writing-mode:lr-tb;baseline-shift:baseline;text-anchor:start;display:inline;overflow:visible;visibility:visible;fill:#f05542;fill-opacity:1;fill-rule:evenodd;stroke:none;enable-background:accumulate"/>
      <path sodipodi:nodetypes="cccccccccc" inkscape:connector-curvature="0" id="path8868" d="m 47.38849,1024.3887 c -0.23692,0 -0.42597,0.1988 -0.42227,0.4357 0,0.2974 -0.12709,0.4323 -0.42224,0.4323 -0.58019,-0.01 -0.58019,0.8662 0,0.8579 0.2842,0 0.42224,0.079 0.42224,0.4139 -0.008,0.5801 0.86613,0.5801 0.85792,0 0,-0.3044 0.14243,-0.4139 0.42394,-0.4139 0.58018,0.01 0.58018,-0.8662 0,-0.8579 -0.3825,0 -0.42394,-0.2188 -0.42394,-0.4323 0.003,-0.2422 -0.19349,-0.4395 -0.43565,-0.4357 z" style="color:#000000;font-style:normal;font-variant:normal;font-weight:normal;font-stretch:normal;font-size:medium;line-height:normal;font-family:sans-serif;text-indent:0;text-align:start;text-decoration:none;text-decoration-line:none;letter-spacing:normal;word-spacing:normal;text-transform:none;direction:ltr;block-progression:tb;writing-mode:lr-tb;baseline-shift:baseline;text-anchor:start;display:inline;overflow:visible;visibility:visible;fill:#f05542;fill-opacity:1;fill-rule:evenodd;stroke:none;enable-background:accumulate"/>
      <path sodipodi:nodetypes="cccccccccc" inkscape:connector-curvature="0" id="path8870" d="m 43.06052,1005.0336 c -0.17262,0 -0.31037,0.1448 -0.30767,0.3174 0,0.2167 -0.0926,0.315 -0.30765,0.315 -0.42273,-0.01 -0.42273,0.6311 0,0.6251 0.20707,0 0.30765,0.057 0.30765,0.3016 -0.006,0.4226 0.63107,0.4226 0.62509,0 0,-0.2218 0.10377,-0.3016 0.30888,-0.3016 0.42273,0.01 0.42273,-0.6311 0,-0.6251 -0.27869,0 -0.30888,-0.1594 -0.30888,-0.315 0.002,-0.1764 -0.14098,-0.3202 -0.31742,-0.3174 z" style="color:#000000;font-style:normal;font-variant:normal;font-weight:normal;font-stretch:normal;font-size:medium;line-height:normal;font-family:sans-serif;text-indent:0;text-align:start;text-decoration:none;text-decoration-line:none;letter-spacing:normal;word-spacing:normal;text-transform:none;direction:ltr;block-progression:tb;writing-mode:lr-tb;baseline-shift:baseline;text-anchor:start;display:inline;overflow:visible;visibility:visible;fill:#2a4255;fill-opacity:0.99215686;fill-rule:evenodd;stroke:none;enable-background:accumulate"/>
      <path sodipodi:nodetypes="cccccccccc" inkscape:connector-curvature="0" id="path8872" d="m 27.08296,999.60203 c -0.13341,0.002 -0.23988,0.11192 -0.23779,0.24533 0,0.16744 -0.0716,0.24344 -0.23777,0.24344 -0.32672,-0 -0.32672,0.4878 0,0.4831 0.16003,0 0.23777,0.044 0.23777,0.2331 -0.004,0.3266 0.48774,0.3266 0.48311,0 0,-0.1714 0.0803,-0.2331 0.23872,-0.2331 0.32672,0 0.32672,-0.4878 0,-0.4831 -0.21538,0 -0.23872,-0.12322 -0.23872,-0.24344 0.001,-0.13637 -0.10899,-0.24747 -0.24532,-0.24533 z" style="color:#000000;font-style:normal;font-variant:normal;font-weight:normal;font-stretch:normal;font-size:medium;line-height:normal;font-family:sans-serif;text-indent:0;text-align:start;text-decoration:none;text-decoration-line:none;letter-spacing:normal;word-spacing:normal;text-transform:none;direction:ltr;block-progression:tb;writing-mode:lr-tb;baseline-shift:baseline;text-anchor:start;display:inline;overflow:visible;visibility:visible;fill:#f05542;fill-opacity:1;fill-rule:evenodd;stroke:none;enable-background:accumulate"/>
      <path inkscape:connector-curvature="0" id="path9252" d="m 27.984375,1022.8125 a 0.50005006,0.50005006 0 0 0 -0.488281,0.4004 c -0.195392,0.9001 -1.302531,1.6827 -2.417969,1.6348 -0.317301,-0.014 -0.628804,-0.1241 -0.878906,-0.2676 a 0.50005006,0.50005006 0 1 0 -0.498047,0.8672 c 0.365258,0.2096 0.820681,0.3781 1.333984,0.4004 0.0077,3e-4 0.01375,-0.01 0.02148,-0.01 l 0,0.01 a 0.50005006,0.50005006 0 0 0 0.27539,-0.086 c 1.464462,-0.069 2.839786,-0.95 3.140625,-2.3359 a 0.50005006,0.50005006 0 0 0 -0.488281,-0.6133 z" style="color:#000000;font-style:normal;font-variant:normal;font-weight:normal;font-stretch:normal;font-size:medium;line-height:normal;font-family:sans-serif;text-indent:0;text-align:start;text-decoration:none;text-decoration-line:none;text-decoration-style:solid;text-decoration-color:#000000;letter-spacing:normal;word-spacing:normal;text-transform:none;direction:ltr;block-progression:tb;writing-mode:lr-tb;baseline-shift:baseline;text-anchor:start;white-space:normal;clip-rule:nonzero;display:inline;overflow:visible;visibility:visible;opacity:1;isolation:auto;mix-blend-mode:normal;color-interpolation:sRGB;color-interpolation-filters:linearRGB;solid-color:#000000;solid-opacity:1;fill:#2b4255;fill-opacity:0.98897059;fill-rule:nonzero;stroke:none;stroke-width:1.00000012;stroke-linecap:round;stroke-linejoin:round;stroke-miterlimit:34.17825699;stroke-dasharray:none;stroke-dashoffset:0;stroke-opacity:1;color-rendering:auto;image-rendering:auto;shape-rendering:auto;text-rendering:auto;enable-background:accumulate"/>
      <path inkscape:connector-curvature="0" id="path9258" d="m 24.855469,1012.4492 c -1.174863,-0 -2.367705,0.224 -3.515625,0.709 -1.184225,0.5004 -2.20915,1.2267 -3.041016,2.1074 a 0.56578974,0.56578974 0 0 0 0.822266,0.7774 c 0.727199,-0.7699 1.619863,-1.405 2.658203,-1.8438 4.026276,-1.701 8.669366,0.1936 10.375,4.2305 0.399462,0.9455 0.60009,1.9189 0.623047,2.8808 a 0.5650345,0.5650345 0 1 0 1.128906,-0.025 c -0.02628,-1.1011 -0.255882,-2.2179 -0.710938,-3.295 -1.457365,-3.4493 -4.815256,-5.533 -8.339843,-5.541 z m -7.333985,4.2461 a 0.5650345,0.5650345 0 0 0 -0.498046,0.291 c -0.156575,0.2741 -0.298655,0.5575 -0.425782,0.8457 a 0.5650345,0.5650345 0 1 0 1.033203,0.4551 c 0.111373,-0.2525 0.235926,-0.5002 0.373047,-0.7402 a 0.5650345,0.5650345 0 0 0 -0.482422,-0.8516 z m -1.041015,2.8262 A 0.5650345,0.5650345 0 0 0 15.949219,1020 c -0.275631,1.6419 -0.102887,3.3813 0.591797,5.0254 1.943698,4.6004 7.247338,6.725 11.833984,4.7871 1.784217,-0.7539 3.208057,-2.0134 4.162109,-3.541 0.266538,-0.4265 0.496007,-0.8748 0.6875,-1.3379 0.190659,-0.4614 0.342777,-0.9378 0.455079,-1.4258 a 0.5650345,0.5650345 0 1 0 -1.09961,-0.2539 c -0.09823,0.4268 -0.233466,0.8441 -0.40039,1.2481 -0.167627,0.4053 -0.368467,0.7969 -0.601563,1.1699 -0.834835,1.3367 -2.075265,2.4373 -3.642578,3.0996 -4.02855,1.7021 -8.647258,-0.1472 -10.353516,-4.1856 -0.609745,-1.4431 -0.760886,-2.9607 -0.519531,-4.3984 a 0.5650345,0.5650345 0 0 0 -0.582031,-0.666 z" style="color:#000000;font-style:normal;font-variant:normal;font-weight:normal;font-stretch:normal;font-size:medium;line-height:normal;font-family:sans-serif;text-indent:0;text-align:start;text-decoration:none;text-decoration-line:none;text-decoration-style:solid;text-decoration-color:#000000;letter-spacing:normal;word-spacing:normal;text-transform:none;direction:ltr;block-progression:tb;writing-mode:lr-tb;baseline-shift:baseline;text-anchor:start;white-space:normal;clip-rule:nonzero;display:inline;overflow:visible;visibility:visible;opacity:1;isolation:auto;mix-blend-mode:normal;color-interpolation:sRGB;color-interpolation-filters:linearRGB;solid-color:#000000;solid-opacity:1;fill:#2b4255;fill-opacity:0.98897059;fill-rule:nonzero;stroke:none;stroke-width:1.12995601;stroke-linecap:round;stroke-linejoin:round;stroke-miterlimit:10;stroke-dasharray:none;stroke-dashoffset:0;stroke-opacity:1;color-rendering:auto;image-rendering:auto;shape-rendering:auto;text-rendering:auto;enable-background:accumulate"/>
      <path inkscape:connector-curvature="0" id="circle9260" d="m 20.953096,1018.7081 c -0.757659,0.3201 -1.118056,1.2078 -0.797939,1.9655 0.320114,0.7576 1.207867,1.1181 1.965527,0.7979 0.75765,-0.3201 1.118052,-1.2078 0.797939,-1.9655 -0.320118,-0.7577 -1.207877,-1.118 -1.965527,-0.7979 z m 0.389196,0.9211 c 0.259821,-0.1098 0.545395,0.01 0.655176,0.266 0.109776,0.2598 -0.0062,0.5454 -0.26598,0.6552 -0.25983,0.1098 -0.545399,-0.01 -0.655176,-0.266 -0.10978,-0.2598 0.0061,-0.5454 0.26598,-0.6552 z" style="color:#000000;font-style:normal;font-variant:normal;font-weight:normal;font-stretch:normal;font-size:medium;line-height:normal;font-family:sans-serif;text-indent:0;text-align:start;text-decoration:none;text-decoration-line:none;text-decoration-style:solid;text-decoration-color:#000000;letter-spacing:normal;word-spacing:normal;text-transform:none;direction:ltr;block-progression:tb;writing-mode:lr-tb;baseline-shift:baseline;text-anchor:start;white-space:normal;clip-rule:nonzero;display:inline;overflow:visible;visibility:visible;opacity:1;isolation:auto;mix-blend-mode:normal;color-interpolation:sRGB;color-interpolation-filters:linearRGB;solid-color:#000000;solid-opacity:1;fill:#2b4255;fill-opacity:0.98897059;fill-rule:nonzero;stroke:none;stroke-width:1;stroke-linecap:butt;stroke-linejoin:miter;stroke-miterlimit:4;stroke-dasharray:none;stroke-dashoffset:0;stroke-opacity:1;color-rendering:auto;image-rendering:auto;shape-rendering:auto;text-rendering:auto;enable-background:accumulate"/>
      <path inkscape:connector-curvature="0" id="circle9262" d="m 25.725343,1017.0056 c -0.75765,0.3201 -1.118052,1.2078 -0.797939,1.9655 0.320118,0.7576 1.207876,1.118 1.965526,0.7979 0.75766,-0.3201 1.118057,-1.2078 0.797939,-1.9655 -0.320113,-0.7577 -1.207867,-1.1181 -1.965526,-0.7979 z m 0.389196,0.9211 c 0.25983,-0.1098 0.545399,0.01 0.655175,0.266 0.109781,0.2598 -0.0061,0.5454 -0.265979,0.6552 -0.259821,0.1097 -0.545395,-0.01 -0.655176,-0.266 -0.109776,-0.2598 0.0062,-0.5454 0.26598,-0.6552 z" style="color:#000000;font-style:normal;font-variant:normal;font-weight:normal;font-stretch:normal;font-size:medium;line-height:normal;font-family:sans-serif;text-indent:0;text-align:start;text-decoration:none;text-decoration-line:none;text-decoration-style:solid;text-decoration-color:#000000;letter-spacing:normal;word-spacing:normal;text-transform:none;direction:ltr;block-progression:tb;writing-mode:lr-tb;baseline-shift:baseline;text-anchor:start;white-space:normal;clip-rule:nonzero;display:inline;overflow:visible;visibility:visible;opacity:1;isolation:auto;mix-blend-mode:normal;color-interpolation:sRGB;color-interpolation-filters:linearRGB;solid-color:#000000;solid-opacity:1;fill:#2b4255;fill-opacity:0.98897059;fill-rule:nonzero;stroke:none;stroke-width:1;stroke-linecap:butt;stroke-linejoin:miter;stroke-miterlimit:4;stroke-dasharray:none;stroke-dashoffset:0;stroke-opacity:1;color-rendering:auto;image-rendering:auto;shape-rendering:auto;text-rendering:auto;enable-background:accumulate"/>
      <path inkscape:connector-curvature="0" id="path9091-8-5" d="m 37,1023.4941 a 0.50005006,0.50005006 0 0 0 -0.433594,0.7422 c 0.198767,0.3713 0.49606,0.7543 0.919922,1.0449 0.08505,0.058 0.196031,0.032 0.285156,0.082 l -0.002,0.01 a 0.50005006,0.50005006 0 0 0 0.01953,0 c 1.278215,0.7133 2.908741,0.6945 3.896485,-0.3203 a 0.5006692,0.5006692 0 1 0 -0.716797,-0.6992 c -0.642465,0.6601 -1.995249,0.7388 -2.916016,0.1074 -0.261754,-0.1795 -0.469289,-0.439 -0.605468,-0.6933 A 0.50005006,0.50005006 0 0 0 37,1023.4941 Z m 0.769531,1.875 -0.283203,-0.088 a 0.50005006,0.50005006 0 0 0 0.283203,0.088 z" style="color:#000000;font-style:normal;font-variant:normal;font-weight:normal;font-stretch:normal;font-size:medium;line-height:normal;font-family:sans-serif;text-indent:0;text-align:start;text-decoration:none;text-decoration-line:none;text-decoration-style:solid;text-decoration-color:#000000;letter-spacing:normal;word-spacing:normal;text-transform:none;direction:ltr;block-progression:tb;writing-mode:lr-tb;baseline-shift:baseline;text-anchor:start;white-space:normal;clip-rule:nonzero;display:inline;overflow:visible;visibility:visible;opacity:1;isolation:auto;mix-blend-mode:normal;color-interpolation:sRGB;color-interpolation-filters:linearRGB;solid-color:#000000;solid-opacity:1;fill:#2b4255;fill-opacity:1;fill-rule:nonzero;stroke:none;stroke-width:1.00000012;stroke-linecap:round;stroke-linejoin:round;stroke-miterlimit:34.17825699;stroke-dasharray:none;stroke-dashoffset:0;stroke-opacity:1;color-rendering:auto;image-rendering:auto;shape-rendering:auto;text-rendering:auto;enable-background:accumulate"/>
      <path inkscape:connector-curvature="0" id="path7837-5-3" d="m 41.070312,1012.5625 c -1.269535,-0.2028 -2.52324,-0.1287 -3.695312,0.1777 a 0.5650345,0.5650345 0 1 0 0.287109,1.0918 c 1.024638,-0.2679 2.117405,-0.3321 3.230469,-0.1543 4.316192,0.6894 7.251751,4.7545 6.560547,9.0821 -0.161879,1.0135 -0.508059,1.9473 -0.998047,2.7754 a 0.5650345,0.5650345 0 1 0 0.972656,0.5742 c 0.56089,-0.9479 0.956215,-2.0173 1.140625,-3.1719 0.787459,-4.9302 -2.575735,-9.5888 -7.498047,-10.375 z m -5.433593,0.8906 a 0.5650345,0.5650345 0 0 0 -0.253907,0.07 c -0.277973,0.1495 -0.548089,0.3131 -0.808593,0.4903 a 0.56581166,0.56581166 0 1 0 0.636719,0.9355 c 0.22825,-0.1552 0.46364,-0.2988 0.707031,-0.4297 a 0.5650345,0.5650345 0 0 0 -0.28125,-1.0664 z m -2.328125,1.8594 a 0.5650345,0.5650345 0 0 0 -0.433594,0.1973 c -0.386598,0.4367 -0.732366,0.9117 -1.03125,1.4218 a 0.5651084,0.5651084 0 1 0 0.974609,0.5723 c 0.261435,-0.4462 0.565807,-0.8637 0.904297,-1.2461 a 0.5650345,0.5650345 0 0 0 -0.414062,-0.9453 z m -1.003906,9.9141 a 0.5650345,0.5650345 0 0 0 -0.455079,0.8593 c 1.322316,2.2373 3.605581,3.8865 6.371094,4.3282 1.912721,0.3054 3.786013,-0.01 5.404297,-0.7989 0.451908,-0.2206 0.883323,-0.4781 1.291016,-0.7695 a 0.5650345,0.5650345 0 0 0 0,-0 c 0.406057,-0.2905 0.788885,-0.6144 1.142578,-0.9688 a 0.5650345,0.5650345 0 1 0 -0.798828,-0.7969 c -0.309418,0.31 -0.644416,0.5933 -1,0.8477 -0.356866,0.255 -0.735537,0.4808 -1.13086,0.6738 -1.416064,0.6917 -3.0503,0.9676 -4.730468,0.6992 -2.429001,-0.3879 -4.417333,-1.8297 -5.574219,-3.7871 a 0.5650345,0.5650345 0 0 0 -0.519531,-0.2851 z" style="color:#000000;font-style:normal;font-variant:normal;font-weight:normal;font-stretch:normal;font-size:medium;line-height:normal;font-family:sans-serif;text-indent:0;text-align:start;text-decoration:none;text-decoration-line:none;text-decoration-style:solid;text-decoration-color:#000000;letter-spacing:normal;word-spacing:normal;text-transform:none;direction:ltr;block-progression:tb;writing-mode:lr-tb;baseline-shift:baseline;text-anchor:start;white-space:normal;clip-rule:nonzero;display:inline;overflow:visible;visibility:visible;opacity:1;isolation:auto;mix-blend-mode:normal;color-interpolation:sRGB;color-interpolation-filters:linearRGB;solid-color:#000000;solid-opacity:1;fill:#2b4255;fill-opacity:1;fill-rule:nonzero;stroke:none;stroke-width:1.12995601;stroke-linecap:round;stroke-linejoin:round;stroke-miterlimit:10;stroke-dasharray:none;stroke-dashoffset:0;stroke-opacity:1;color-rendering:auto;image-rendering:auto;shape-rendering:auto;text-rendering:auto;enable-background:accumulate"/>
      <path inkscape:connector-curvature="0" id="path7839-2-8" d="m 37.805144,1017.0655 c -0.812205,-0.1297 -1.588079,0.4324 -1.717806,1.2447 -0.129753,0.8122 0.432427,1.588 1.244652,1.7177 0.812226,0.1297 1.588086,-0.4323 1.717799,-1.2446 0.129727,-0.8122 -0.432429,-1.5881 -1.244645,-1.7178 z m -0.15772,0.9875 c 0.278539,0.044 0.45937,0.2941 0.414881,0.5726 -0.04448,0.2785 -0.294054,0.4593 -0.572594,0.4148 -0.278539,-0.044 -0.459384,-0.294 -0.414889,-0.5725 0.04449,-0.2786 0.294072,-0.4594 0.572602,-0.4149 z" style="color:#000000;font-style:normal;font-variant:normal;font-weight:normal;font-stretch:normal;font-size:medium;line-height:normal;font-family:sans-serif;text-indent:0;text-align:start;text-decoration:none;text-decoration-line:none;text-decoration-style:solid;text-decoration-color:#000000;letter-spacing:normal;word-spacing:normal;text-transform:none;direction:ltr;block-progression:tb;writing-mode:lr-tb;baseline-shift:baseline;text-anchor:start;white-space:normal;clip-rule:nonzero;display:inline;overflow:visible;visibility:visible;opacity:1;isolation:auto;mix-blend-mode:normal;color-interpolation:sRGB;color-interpolation-filters:linearRGB;solid-color:#000000;solid-opacity:1;fill:#2b4255;fill-opacity:1;fill-rule:nonzero;stroke:none;stroke-width:1;stroke-linecap:butt;stroke-linejoin:miter;stroke-miterlimit:4;stroke-dasharray:none;stroke-dashoffset:0;stroke-opacity:1;color-rendering:auto;image-rendering:auto;shape-rendering:auto;text-rendering:auto;enable-background:accumulate"/>
      <path inkscape:connector-curvature="0" id="circle9244" d="m 42.754829,1018.1488 c -0.812195,-0.1297 -1.588063,0.4325 -1.717805,1.2446 -0.129725,0.8122 0.43244,1.5881 1.244645,1.7178 0.812215,0.1298 1.588081,-0.4324 1.717807,-1.2446 0.129712,-0.8122 -0.432441,-1.5881 -1.244647,-1.7178 z m -0.15772,0.9875 c 0.278529,0.044 0.459368,0.2941 0.414883,0.5726 -0.04449,0.2785 -0.294063,0.4593 -0.572602,0.4149 -0.27853,-0.044 -0.459375,-0.2941 -0.414882,-0.5726 0.0445,-0.2786 0.294071,-0.4594 0.572601,-0.4149 z" style="color:#000000;font-style:normal;font-variant:normal;font-weight:normal;font-stretch:normal;font-size:medium;line-height:normal;font-family:sans-serif;text-indent:0;text-align:start;text-decoration:none;text-decoration-line:none;text-decoration-style:solid;text-decoration-color:#000000;letter-spacing:normal;word-spacing:normal;text-transform:none;direction:ltr;block-progression:tb;writing-mode:lr-tb;baseline-shift:baseline;text-anchor:start;white-space:normal;clip-rule:nonzero;display:inline;overflow:visible;visibility:visible;opacity:1;isolation:auto;mix-blend-mode:normal;color-interpolation:sRGB;color-interpolation-filters:linearRGB;solid-color:#000000;solid-opacity:1;fill:#2b4255;fill-opacity:1;fill-rule:nonzero;stroke:none;stroke-width:1;stroke-linecap:butt;stroke-linejoin:miter;stroke-miterlimit:4;stroke-dasharray:none;stroke-dashoffset:0;stroke-opacity:1;color-rendering:auto;image-rendering:auto;shape-rendering:auto;text-rendering:auto;enable-background:accumulate"/>
    </g>
  </g>



	<metadata>
		<rdf:RDF xmlns:rdf="http://www.w3.org/1999/02/22-rdf-syntax-ns#" xmlns:rdfs="http://www.w3.org/2000/01/rdf-schema#" xmlns:dc="http://purl.org/dc/elements/1.1/">
			<rdf:Description about="https://iconscout.com/legal#licenses" dc:title="Face, Happy, Healthy, Lucky, Smile, Emot, Cheerful" dc:description="Face, Happy, Healthy, Lucky, Smile, Emot, Cheerful" dc:publisher="Iconscout" dc:date="2016-12-14" dc:format="image/svg+xml" dc:language="en">
				<dc:creator>
					<rdf:Bag>
						<rdf:li>Dalpat Prajapati</rdf:li>
					</rdf:Bag>
				</dc:creator>
			</rdf:Description>
		</rdf:RDF>
    </metadata></svg>
 -->





<svg width="250" height="250" viewBox="0 0 357 357" fill="none" xmlns="http://www.w3.org/2000/svg">
<path d="M69.4325 251.011C69.0629 251.006 68.696 251.074 68.353 251.212C68.0101 251.35 67.6979 251.554 67.4347 251.814C67.1715 252.073 66.9625 252.383 66.8198 252.724C66.6772 253.065 66.6037 253.43 66.6037 253.8C66.6037 254.17 66.6772 254.536 66.8198 254.877C66.9625 255.218 67.1715 255.527 67.4347 255.786C67.6979 256.046 68.0101 256.25 68.353 256.388C68.696 256.526 69.0629 256.594 69.4325 256.589H291.533C291.903 256.594 292.27 256.526 292.613 256.388C292.956 256.25 293.268 256.046 293.531 255.786C293.794 255.527 294.003 255.218 294.146 254.877C294.289 254.536 294.362 254.17 294.362 253.8C294.362 253.43 294.289 253.065 294.146 252.724C294.003 252.383 293.794 252.073 293.531 251.814C293.268 251.554 292.956 251.35 292.613 251.212C292.27 251.074 291.903 251.006 291.533 251.011H69.4325Z" fill="#4C475A"/>
<path d="M306.644 251.011C306.275 251.006 305.908 251.074 305.565 251.212C305.222 251.35 304.91 251.554 304.647 251.814C304.383 252.073 304.174 252.383 304.032 252.724C303.889 253.065 303.816 253.43 303.816 253.8C303.816 254.17 303.889 254.536 304.032 254.877C304.174 255.218 304.383 255.527 304.647 255.786C304.91 256.046 305.222 256.25 305.565 256.388C305.908 256.526 306.275 256.594 306.644 256.589H318.16C318.53 256.594 318.897 256.526 319.24 256.388C319.583 256.25 319.895 256.046 320.158 255.786C320.421 255.527 320.63 255.218 320.773 254.877C320.916 254.536 320.989 254.17 320.989 253.8C320.989 253.43 320.916 253.065 320.773 252.724C320.63 252.383 320.421 252.073 320.158 251.814C319.895 251.554 319.583 251.35 319.24 251.212C318.897 251.074 318.53 251.006 318.16 251.011H306.644Z" fill="#4C475A"/>
<path d="M25.1453 251.011C24.7757 251.006 24.4088 251.074 24.0658 251.212C23.7228 251.35 23.4107 251.554 23.1475 251.814C22.8843 252.073 22.6753 252.383 22.5326 252.724C22.39 253.065 22.3165 253.43 22.3165 253.8C22.3165 254.17 22.39 254.536 22.5326 254.877C22.6753 255.218 22.8843 255.527 23.1475 255.786C23.4107 256.046 23.7228 256.25 24.0658 256.388C24.4088 256.526 24.7757 256.594 25.1453 256.589H56.958C57.3276 256.594 57.6945 256.526 58.0375 256.388C58.3805 256.25 58.6926 256.046 58.9558 255.786C59.219 255.527 59.428 255.218 59.5707 254.877C59.7133 254.536 59.7868 254.17 59.7868 253.8C59.7868 253.43 59.7133 253.065 59.5707 252.724C59.428 252.383 59.219 252.073 58.9558 251.814C58.6926 251.554 58.3805 251.35 58.0375 251.212C57.6945 251.074 57.3276 251.006 56.958 251.011H25.1453Z" fill="#4C475A"/>
<path fill-rule="evenodd" clip-rule="evenodd" d="M119.973 262.167C119.604 262.162 119.237 262.23 118.894 262.368C118.551 262.506 118.239 262.711 117.976 262.97C117.712 263.23 117.503 263.539 117.361 263.88C117.218 264.221 117.145 264.587 117.145 264.956C117.145 265.326 117.218 265.692 117.361 266.033C117.503 266.374 117.712 266.683 117.976 266.943C118.239 267.202 118.551 267.407 118.894 267.545C119.237 267.682 119.604 267.751 119.973 267.745H230.054C230.424 267.751 230.791 267.682 231.134 267.545C231.477 267.407 231.789 267.202 232.052 266.943C232.315 266.683 232.524 266.374 232.667 266.033C232.81 265.692 232.883 265.326 232.883 264.956C232.883 264.587 232.81 264.221 232.667 263.88C232.524 263.539 232.315 263.23 232.052 262.97C231.789 262.711 231.477 262.506 231.134 262.368C230.791 262.23 230.424 262.162 230.054 262.167H119.973Z" fill="#EC8600"/>
<path fill-rule="evenodd" clip-rule="evenodd" d="M136.708 273.324C136.338 273.318 135.971 273.387 135.628 273.524C135.285 273.662 134.973 273.867 134.71 274.126C134.447 274.386 134.238 274.695 134.095 275.036C133.953 275.377 133.879 275.743 133.879 276.113C133.879 276.482 133.953 276.848 134.095 277.189C134.238 277.53 134.447 277.839 134.71 278.099C134.973 278.358 135.285 278.563 135.628 278.701C135.971 278.839 136.338 278.907 136.708 278.902H166.058C166.428 278.907 166.795 278.839 167.138 278.701C167.481 278.563 167.793 278.358 168.056 278.099C168.319 277.839 168.528 277.53 168.671 277.189C168.814 276.848 168.887 276.482 168.887 276.113C168.887 275.743 168.814 275.377 168.671 275.036C168.528 274.695 168.319 274.386 168.056 274.126C167.793 273.867 167.481 273.662 167.138 273.524C166.795 273.387 166.428 273.318 166.058 273.324H136.708Z" fill="#EC8600"/>
<path fill-rule="evenodd" clip-rule="evenodd" d="M181.333 273.324C180.963 273.318 180.596 273.387 180.253 273.524C179.91 273.662 179.598 273.867 179.335 274.126C179.072 274.386 178.863 274.695 178.72 275.036C178.578 275.377 178.504 275.743 178.504 276.113C178.504 276.482 178.578 276.848 178.72 277.189C178.863 277.53 179.072 277.839 179.335 278.099C179.598 278.358 179.91 278.563 180.253 278.701C180.596 278.839 180.963 278.907 181.333 278.902H220.717C221.087 278.907 221.454 278.839 221.797 278.701C222.14 278.563 222.452 278.358 222.715 278.099C222.978 277.839 223.187 277.53 223.33 277.189C223.473 276.848 223.546 276.482 223.546 276.113C223.546 275.743 223.473 275.377 223.33 275.036C223.187 274.695 222.978 274.386 222.715 274.126C222.452 273.867 222.14 273.662 221.797 273.524C221.454 273.387 221.087 273.318 220.717 273.324H181.333Z" fill="#EC8600"/>
<path fill-rule="evenodd" clip-rule="evenodd" d="M153.442 284.48C153.073 284.475 152.706 284.543 152.363 284.681C152.02 284.818 151.708 285.023 151.444 285.283C151.181 285.542 150.972 285.851 150.83 286.192C150.687 286.533 150.613 286.899 150.613 287.269C150.613 287.638 150.687 288.004 150.83 288.345C150.972 288.686 151.181 288.996 151.444 289.255C151.708 289.515 152.02 289.719 152.363 289.857C152.706 289.995 153.073 290.063 153.442 290.058H181.976C182.345 290.063 182.712 289.995 183.055 289.857C183.398 289.719 183.71 289.515 183.973 289.255C184.237 288.996 184.446 288.686 184.588 288.345C184.731 288.004 184.804 287.638 184.804 287.269C184.804 286.899 184.731 286.533 184.588 286.192C184.446 285.851 184.237 285.542 183.973 285.283C183.71 285.023 183.398 284.818 183.055 284.681C182.712 284.543 182.345 284.475 181.976 284.48H153.442Z" fill="#EC8600"/>
<path fill-rule="evenodd" clip-rule="evenodd" d="M174.653 99.5822C173.69 99.5822 172.921 100.39 172.936 101.353C172.936 102.562 172.42 103.11 171.22 103.11C168.862 103.054 168.862 106.631 171.22 106.597C172.375 106.597 172.936 106.915 172.936 108.279C172.903 110.637 176.457 110.637 176.423 108.279C176.423 107.042 177.002 106.597 178.146 106.597C180.504 106.653 180.504 103.077 178.146 103.11C176.592 103.11 176.423 102.221 176.423 101.353C176.434 100.369 175.637 99.5672 174.653 99.5822Z" fill="#4C475A"/>
<path fill-rule="evenodd" clip-rule="evenodd" d="M84.0048 121.2C82.6832 121.2 81.6286 122.308 81.6493 123.63C81.6493 125.289 80.9404 126.042 79.2939 126.042C76.0576 125.986 76.0576 130.874 79.2939 130.827C80.8792 130.827 81.6493 131.268 81.6493 133.136C81.6047 136.372 86.4807 136.372 86.4349 133.136C86.4349 131.438 87.2293 130.827 88.7996 130.827C92.036 130.883 92.036 125.995 88.7996 126.042C86.666 126.042 86.4349 124.821 86.4349 123.63C86.4516 122.279 85.3556 121.179 84.0048 121.2Z" fill="#4C475A"/>
<path fill-rule="evenodd" clip-rule="evenodd" d="M83.5444 183.235C82.8189 183.235 82.2399 183.844 82.2513 184.569C82.2513 185.48 81.8619 185.893 80.9582 185.893C79.1814 185.893 79.1814 188.545 80.9582 188.52C81.8285 188.52 82.2513 188.76 82.2513 189.788C82.2234 191.564 84.9037 191.564 84.8786 189.788C84.8786 188.855 85.3148 188.52 86.1768 188.52C87.9536 188.52 87.9536 185.867 86.1768 185.893C85.0055 185.893 84.8786 185.223 84.8786 184.569C84.8897 183.827 84.286 183.223 83.5444 183.235Z" fill="#EC8600"/>
<path fill-rule="evenodd" clip-rule="evenodd" d="M122.558 77.2263C121.595 77.2263 120.826 78.0339 120.842 78.9967C120.842 80.2055 120.325 80.7538 119.125 80.7538C116.767 80.698 116.767 84.274 119.125 84.2405C120.281 84.2405 120.842 84.5586 120.842 85.9231C120.808 88.2804 124.362 88.2804 124.328 85.9231C124.328 84.6858 124.907 84.2405 126.051 84.2405C128.409 84.2963 128.409 80.7204 126.051 80.7538C124.497 80.7538 124.328 79.8647 124.328 78.9967C124.34 78.0127 123.542 77.2107 122.558 77.2263Z" fill="#4C475A"/>
<path fill-rule="evenodd" clip-rule="evenodd" d="M206.325 61.6618C205.599 61.6729 205.02 62.2706 205.031 62.9961C205.031 63.9069 204.642 64.3201 203.738 64.3201C201.962 64.2922 201.962 66.9728 203.738 66.9471C204.609 66.9471 205.031 67.1872 205.031 68.2147C205.003 69.9913 207.684 69.9913 207.659 68.2147C207.659 67.2825 208.095 66.9471 208.957 66.9471C210.734 67.0029 210.734 64.2947 208.957 64.3201C207.786 64.3201 207.659 63.6498 207.659 62.9961C207.67 62.2545 207.066 61.6502 206.325 61.6618Z" fill="#4C475A"/>
<path fill-rule="evenodd" clip-rule="evenodd" d="M276.844 119.662C275.882 119.662 275.113 120.47 275.128 121.433C275.128 122.642 274.612 123.19 273.412 123.19C271.054 123.134 271.054 126.71 273.412 126.677C274.567 126.677 275.128 126.995 275.128 128.359C275.095 130.717 278.648 130.717 278.615 128.359C278.615 127.122 279.194 126.677 280.338 126.677C282.696 126.733 282.696 123.156 280.338 123.19C278.784 123.19 278.615 122.3 278.615 121.433C278.626 120.449 277.829 119.647 276.844 119.662Z" fill="#EC8600"/>
<path fill-rule="evenodd" clip-rule="evenodd" d="M267.679 130.128C266.953 130.128 266.374 130.737 266.385 131.462C266.385 132.373 265.996 132.786 265.092 132.786C263.316 132.73 263.316 135.438 265.092 135.413C265.963 135.413 266.385 135.653 266.385 136.681C266.357 138.457 269.038 138.457 269.013 136.681C269.013 135.749 269.449 135.413 270.311 135.413C272.088 135.469 272.088 132.76 270.311 132.786C269.14 132.786 269.013 132.115 269.013 131.462C269.024 130.72 268.42 130.116 267.679 130.128Z" fill="#EC8600"/>
<path fill-rule="evenodd" clip-rule="evenodd" d="M264.339 200.96C263.018 200.96 261.963 202.069 261.984 203.39C261.984 205.049 261.275 205.802 259.628 205.802C256.392 205.747 256.392 210.634 259.628 210.588C261.214 210.588 261.984 211.028 261.984 212.896C261.939 216.132 266.815 216.132 266.769 212.896C266.769 211.198 267.564 210.588 269.134 210.588C272.37 210.644 272.37 205.756 269.134 205.802C267 205.802 266.769 204.581 266.769 203.39C266.786 202.039 265.69 200.939 264.339 200.96Z" fill="#EC8600"/>
<path fill-rule="evenodd" clip-rule="evenodd" d="M240.197 92.9953C239.234 92.9953 238.466 93.803 238.481 94.7657C238.481 95.9745 237.964 96.5229 236.765 96.5229C234.407 96.4671 234.407 100.043 236.765 100.01C237.92 100.01 238.481 100.328 238.481 101.692C238.447 104.049 242.001 104.049 241.968 101.692C241.968 100.455 242.546 100.01 243.691 100.01C246.049 100.065 246.049 96.4894 243.691 96.5229C242.136 96.5229 241.968 95.6337 241.968 94.7657C241.979 93.7818 241.181 92.9797 240.197 92.9953Z" fill="#4C475A"/>
<path fill-rule="evenodd" clip-rule="evenodd" d="M151.072 62.6974C150.328 62.7086 149.734 63.3216 149.745 64.0658C149.745 64.9998 149.346 65.4239 148.419 65.4239C146.597 65.4239 146.597 68.1448 148.419 68.1186C149.312 68.1186 149.745 68.364 149.745 69.4188C149.723 71.2407 152.466 71.2407 152.44 69.4188C152.44 68.4627 152.888 68.1186 153.772 68.1186C155.594 68.1186 155.594 65.3976 153.772 65.4239C152.571 65.4239 152.44 64.7364 152.44 64.0658C152.446 63.3051 151.832 62.6855 151.072 62.6974Z" fill="#EC8600"/>
<path d="M156.1 192.168C155.459 192.17 154.838 192.394 154.341 192.801C153.845 193.207 153.505 193.773 153.377 194.401C152.287 199.422 146.111 203.788 139.889 203.52C138.119 203.442 136.382 202.828 134.986 202.028C134.669 201.841 134.317 201.718 133.951 201.668C133.586 201.618 133.214 201.641 132.858 201.735C132.501 201.829 132.167 201.994 131.874 202.218C131.582 202.443 131.336 202.723 131.153 203.042C130.969 203.362 130.851 203.716 130.804 204.081C130.758 204.447 130.785 204.819 130.883 205.174C130.981 205.53 131.149 205.862 131.376 206.152C131.604 206.442 131.886 206.685 132.208 206.865C134.246 208.034 136.786 208.974 139.649 209.098C139.692 209.1 139.726 209.043 139.769 209.043V209.098C140.317 209.093 140.852 208.926 141.305 208.619C149.474 208.234 157.146 203.32 158.824 195.589C158.919 195.179 158.921 194.753 158.828 194.343C158.736 193.933 158.551 193.549 158.289 193.22C158.028 192.891 157.695 192.625 157.315 192.443C156.936 192.261 156.521 192.167 156.1 192.168H156.1Z" fill="#4C475A"/>
<path d="M138.647 134.36C132.093 134.36 125.44 135.61 119.036 138.315C112.431 141.106 106.713 145.158 102.073 150.071C101.498 150.679 101.188 151.49 101.212 152.327C101.235 153.164 101.59 153.957 102.198 154.532C102.807 155.107 103.618 155.417 104.455 155.393C105.292 155.37 106.085 155.015 106.66 154.407C110.716 150.112 115.696 146.57 121.488 144.122C143.947 134.634 169.846 145.202 179.361 167.72C181.589 172.994 182.708 178.424 182.836 183.79C182.829 184.214 182.907 184.636 183.067 185.029C183.226 185.422 183.463 185.779 183.764 186.079C184.065 186.378 184.423 186.613 184.817 186.771C185.211 186.929 185.633 187.005 186.057 186.996C186.482 186.986 186.9 186.891 187.286 186.717C187.673 186.542 188.02 186.291 188.308 185.978C188.595 185.666 188.816 185.298 188.958 184.898C189.1 184.498 189.16 184.074 189.133 183.65C188.987 177.508 187.706 171.278 185.168 165.27C177.038 146.03 158.308 134.407 138.647 134.362V134.36ZM97.7371 158.046C97.1709 158.042 96.6141 158.19 96.1253 158.476C95.6364 158.762 95.2335 159.174 94.9589 159.669C94.0855 161.198 93.293 162.778 92.5838 164.386C92.3955 164.768 92.2864 165.183 92.263 165.608C92.2396 166.033 92.3025 166.458 92.4479 166.858C92.5933 167.258 92.8181 167.624 93.1088 167.935C93.3996 168.246 93.7502 168.494 94.1396 168.666C94.5289 168.837 94.949 168.928 95.3745 168.933C95.7999 168.938 96.222 168.857 96.6151 168.694C97.0083 168.531 97.3644 168.29 97.6621 167.986C97.9598 167.682 98.1928 167.321 98.3472 166.925C98.9684 165.516 99.6632 164.134 100.428 162.796C100.709 162.319 100.859 161.776 100.863 161.223C100.868 160.67 100.727 160.125 100.454 159.644C100.181 159.162 99.7867 158.761 99.3097 158.481C98.8328 158.2 98.2904 158.05 97.7371 158.046ZM91.9302 173.81C91.2042 173.845 90.5127 174.13 89.9726 174.617C89.4326 175.103 89.0772 175.761 88.9668 176.48C87.4293 185.638 88.3929 195.341 92.2679 204.512C103.11 230.173 132.694 242.025 158.279 231.215C168.232 227.01 176.174 219.984 181.496 211.463C182.983 209.084 184.263 206.583 185.331 204C186.395 201.426 187.243 198.769 187.87 196.047C187.987 195.635 188.02 195.205 187.966 194.78C187.912 194.356 187.772 193.947 187.555 193.579C187.338 193.21 187.048 192.89 186.703 192.637C186.358 192.384 185.965 192.204 185.549 192.108C185.132 192.012 184.7 192.001 184.279 192.077C183.858 192.153 183.457 192.314 183.1 192.55C182.744 192.786 182.439 193.092 182.204 193.45C181.97 193.807 181.81 194.209 181.736 194.63C181.188 197.011 180.433 199.338 179.502 201.592C178.567 203.853 177.447 206.037 176.147 208.118C171.49 215.574 164.571 221.714 155.828 225.408C133.356 234.903 107.593 224.587 98.0748 202.06C94.6736 194.011 93.8305 185.545 95.1768 177.525C95.2621 177.059 95.2409 176.579 95.115 176.122C94.9891 175.665 94.7616 175.242 94.4496 174.885C94.1375 174.528 93.7489 174.246 93.3127 174.06C92.8765 173.874 92.4039 173.788 91.9302 173.81Z" fill="#4C475A"/>
<path d="M116.879 169.273C112.653 171.059 110.643 176.01 112.428 180.237C114.214 184.463 119.166 186.474 123.392 184.688C127.619 182.902 129.629 177.95 127.843 173.724C126.058 169.497 121.106 167.488 116.879 169.273ZM119.05 174.411C120.5 173.799 122.093 174.467 122.705 175.895C123.317 177.344 122.67 178.937 121.221 179.55C119.772 180.162 118.179 179.494 117.567 178.066C116.954 176.617 117.601 175.024 119.05 174.411Z" fill="#4C475A"/>
<path d="M143.499 159.776C139.273 161.562 137.263 166.514 139.048 170.74C140.834 174.966 145.786 176.976 150.012 175.191C154.239 173.405 156.249 168.454 154.463 164.227C152.678 160.001 147.726 157.99 143.499 159.776ZM145.67 164.914C147.12 164.302 148.713 164.97 149.325 166.398C149.937 167.847 149.291 169.441 147.841 170.053C146.392 170.665 144.799 169.997 144.187 168.569C143.574 167.12 144.221 165.527 145.67 164.914Z" fill="#4C475A"/>
<path d="M206.391 195.97C205.907 195.974 205.433 196.103 205.015 196.346C204.596 196.588 204.248 196.935 204.004 197.352C203.76 197.77 203.629 198.244 203.623 198.727C203.618 199.211 203.738 199.688 203.972 200.111C205.081 202.182 206.739 204.318 209.104 205.939C209.578 206.263 210.197 206.117 210.694 206.396L210.683 206.452C210.719 206.453 210.756 206.453 210.792 206.452C217.922 210.431 227.017 210.326 232.527 204.665C232.783 204.403 232.985 204.093 233.121 203.752C233.257 203.412 233.325 203.047 233.321 202.68C233.316 202.314 233.239 201.952 233.095 201.615C232.95 201.278 232.741 200.972 232.478 200.716C232.216 200.46 231.905 200.258 231.565 200.122C231.224 199.986 230.86 199.918 230.493 199.923C230.127 199.927 229.764 200.004 229.427 200.149C229.09 200.293 228.785 200.503 228.529 200.766C224.945 204.448 217.399 204.886 212.263 201.364C210.803 200.363 209.645 198.916 208.885 197.497C208.652 197.037 208.295 196.65 207.854 196.38C207.414 196.111 206.907 195.969 206.391 195.97ZM210.683 206.43L209.104 205.939C209.568 206.258 210.119 206.429 210.683 206.43Z" fill="#4C475A"/>
<path d="M229.095 134.992C222.014 133.861 215.02 134.274 208.482 135.983C208.066 136.073 207.672 136.246 207.324 136.492C206.977 136.738 206.683 137.052 206.46 137.415C206.237 137.778 206.09 138.182 206.028 138.603C205.965 139.025 205.989 139.454 206.097 139.866C206.206 140.278 206.396 140.664 206.658 141C206.919 141.336 207.246 141.615 207.619 141.822C207.991 142.028 208.402 142.157 208.825 142.2C209.249 142.243 209.677 142.2 210.084 142.073C215.799 140.579 221.895 140.221 228.104 141.213C252.18 145.058 268.555 167.734 264.699 191.874C263.796 197.528 261.865 202.736 259.132 207.355C258.906 207.712 258.754 208.11 258.685 208.527C258.615 208.944 258.631 209.37 258.73 209.781C258.828 210.191 259.009 210.578 259.26 210.918C259.511 211.257 259.828 211.543 260.192 211.757C260.555 211.972 260.958 212.111 261.377 212.167C261.796 212.223 262.221 212.195 262.629 212.083C263.036 211.971 263.416 211.778 263.748 211.516C264.079 211.255 264.355 210.929 264.558 210.558C267.686 205.271 269.892 199.306 270.92 192.865C275.313 165.364 256.552 139.378 229.095 134.992ZM198.786 139.96C198.29 139.977 197.804 140.11 197.37 140.35C195.819 141.184 194.312 142.097 192.859 143.086C192.516 143.319 192.223 143.617 191.996 143.964C191.768 144.31 191.612 144.698 191.534 145.105C191.457 145.512 191.46 145.931 191.545 146.337C191.629 146.743 191.792 147.128 192.026 147.47C192.259 147.813 192.557 148.106 192.904 148.334C193.251 148.561 193.638 148.718 194.046 148.795C194.453 148.873 194.871 148.869 195.277 148.785C195.683 148.701 196.068 148.537 196.411 148.304C197.684 147.438 198.997 146.637 200.355 145.907C200.991 145.578 201.496 145.041 201.787 144.386C202.077 143.731 202.136 142.997 201.953 142.304C201.771 141.611 201.357 141.001 200.781 140.575C200.206 140.149 199.502 139.931 198.786 139.958V139.96ZM185.799 150.332C185.34 150.328 184.886 150.425 184.468 150.615C184.051 150.805 183.679 151.084 183.381 151.433C181.224 153.869 179.295 156.518 177.628 159.363C177.419 159.72 177.281 160.115 177.224 160.525C177.167 160.935 177.191 161.352 177.295 161.753C177.4 162.154 177.582 162.53 177.831 162.861C178.081 163.191 178.393 163.469 178.75 163.678C179.107 163.888 179.502 164.025 179.912 164.082C180.322 164.139 180.739 164.115 181.14 164.011C181.541 163.906 181.917 163.724 182.247 163.475C182.577 163.225 182.855 162.913 183.065 162.556C184.523 160.067 186.221 157.738 188.109 155.605C188.519 155.155 188.789 154.595 188.888 153.994C188.987 153.393 188.909 152.777 188.665 152.219C188.421 151.661 188.02 151.186 187.511 150.852C187.003 150.517 186.408 150.336 185.799 150.332ZM180.199 205.634C179.653 205.66 179.122 205.828 178.66 206.121C178.198 206.415 177.82 206.824 177.564 207.308C177.308 207.791 177.182 208.333 177.199 208.88C177.216 209.427 177.375 209.961 177.661 210.428C185.037 222.907 197.773 232.106 213.2 234.57C223.869 236.274 234.319 234.515 243.346 230.114C245.866 228.884 248.273 227.447 250.547 225.822C252.812 224.201 254.947 222.395 256.92 220.418C257.239 220.132 257.497 219.783 257.676 219.394C257.856 219.005 257.955 218.584 257.966 218.155C257.977 217.727 257.901 217.3 257.742 216.902C257.583 216.504 257.345 216.144 257.041 215.841C256.738 215.538 256.376 215.3 255.977 215.142C255.579 214.984 255.153 214.909 254.724 214.922C254.296 214.934 253.875 215.034 253.486 215.214C253.098 215.395 252.75 215.653 252.464 215.972C250.738 217.702 248.87 219.282 246.886 220.701C244.896 222.124 242.783 223.383 240.578 224.459C232.679 228.318 223.563 229.857 214.191 228.36C200.642 226.196 189.551 218.153 183.097 207.235C182.809 206.727 182.385 206.31 181.874 206.029C181.362 205.749 180.782 205.615 180.199 205.645V205.634Z" fill="#4C475A"/>
<path d="M210.882 160.111C206.352 159.387 202.024 162.523 201.3 167.054C200.576 171.584 203.712 175.912 208.243 176.635C212.774 177.359 217.102 174.224 217.825 169.693C218.549 165.162 215.413 160.834 210.882 160.111ZM210.003 165.619C211.556 165.864 212.565 167.26 212.317 168.813C212.069 170.367 210.677 171.375 209.123 171.127C207.569 170.882 206.56 169.487 206.809 167.933C207.057 166.379 208.449 165.371 210.003 165.619Z" fill="#4C475A"/>
<path d="M238.492 166.154C233.962 165.43 229.634 168.566 228.91 173.096C228.187 177.627 231.322 181.955 235.853 182.678C240.384 183.402 244.712 180.266 245.435 175.736C246.159 171.205 243.023 166.877 238.492 166.154ZM237.613 171.662C239.166 171.907 240.175 173.303 239.927 174.856C239.679 176.41 238.287 177.418 236.733 177.17C235.179 176.925 234.17 175.53 234.419 173.976C234.667 172.422 236.059 171.414 237.613 171.662Z" fill="#4C475A"/>
</svg>




