<svg width="239" height="239" viewBox="0 0 239 239" fill="none" xmlns="http://www.w3.org/2000/svg">
<path d="M37.993 171.778C37.7456 171.775 37.4999 171.82 37.2703 171.912C37.0407 172.005 36.8317 172.142 36.6555 172.315C36.4793 172.489 36.3394 172.696 36.2439 172.924C36.1484 173.153 36.0992 173.398 36.0992 173.645C36.0992 173.893 36.1484 174.138 36.2439 174.366C36.3394 174.594 36.4793 174.801 36.6555 174.975C36.8317 175.149 37.0407 175.286 37.2703 175.378C37.4999 175.47 37.7456 175.516 37.993 175.512H200.453C200.7 175.516 200.946 175.47 201.176 175.378C201.405 175.286 201.614 175.149 201.79 174.975C201.967 174.801 202.106 174.594 202.202 174.366C202.297 174.138 202.347 173.893 202.347 173.645C202.347 173.398 202.297 173.153 202.202 172.924C202.106 172.696 201.967 172.489 201.79 172.315C201.614 172.142 201.405 172.005 201.176 171.912C200.946 171.82 200.7 171.775 200.453 171.778H37.993ZM210.577 171.778C210.329 171.775 210.083 171.82 209.854 171.912C209.624 172.005 209.415 172.142 209.239 172.315C209.063 172.489 208.923 172.696 208.827 172.924C208.732 173.153 208.683 173.398 208.683 173.645C208.683 173.893 208.732 174.138 208.827 174.366C208.923 174.594 209.063 174.801 209.239 174.975C209.415 175.149 209.624 175.286 209.854 175.378C210.083 175.47 210.329 175.516 210.577 175.512H218.286C218.533 175.516 218.779 175.47 219.009 175.378C219.238 175.286 219.447 175.149 219.623 174.975C219.8 174.801 219.94 174.594 220.035 174.366C220.131 174.138 220.18 173.893 220.18 173.645C220.18 173.398 220.131 173.153 220.035 172.924C219.94 172.696 219.8 172.489 219.623 172.315C219.447 172.142 219.238 172.005 219.009 171.912C218.779 171.82 218.533 171.775 218.286 171.778H210.577ZM9.36522 171.778C9.11779 171.775 8.87214 171.82 8.64253 171.912C8.41293 172.005 8.20395 172.142 8.02775 172.315C7.85154 172.489 7.71162 172.696 7.61612 172.924C7.52062 173.153 7.47144 173.398 7.47144 173.645C7.47144 173.893 7.52062 174.138 7.61612 174.366C7.71162 174.594 7.85154 174.801 8.02775 174.975C8.20395 175.149 8.41293 175.286 8.64253 175.378C8.87214 175.47 9.11779 175.516 9.36522 175.512H30.6628C30.9102 175.516 31.1559 175.47 31.3855 175.378C31.6151 175.286 31.8241 175.149 32.0003 174.975C32.1765 174.801 32.3164 174.594 32.4119 174.366C32.5074 174.138 32.5566 173.893 32.5566 173.645C32.5566 173.398 32.5074 173.153 32.4119 172.924C32.3164 172.696 32.1765 172.489 32.0003 172.315C31.8241 172.142 31.6151 172.005 31.3855 171.912C31.1559 171.82 30.9102 171.775 30.6628 171.778H9.36522Z" fill="#E5E5E5"/>
<path fill-rule="evenodd" clip-rule="evenodd" d="M87.7871 179.247C87.5397 179.243 87.294 179.289 87.0644 179.381C86.8348 179.474 86.6258 179.61 86.4496 179.784C86.2734 179.958 86.1335 180.165 86.038 180.393C85.9425 180.622 85.8933 180.867 85.8933 181.114C85.8933 181.361 85.9425 181.606 86.038 181.835C86.1335 182.063 86.2734 182.27 86.4496 182.444C86.6258 182.617 86.8348 182.754 87.0644 182.847C87.294 182.939 87.5397 182.985 87.7871 182.981H161.483C161.73 182.985 161.976 182.939 162.205 182.847C162.435 182.754 162.644 182.617 162.82 182.444C162.996 182.27 163.136 182.063 163.232 181.835C163.327 181.606 163.376 181.361 163.376 181.114C163.376 180.867 163.327 180.622 163.232 180.393C163.136 180.165 162.996 179.958 162.82 179.784C162.644 179.61 162.435 179.474 162.205 179.381C161.976 179.289 161.73 179.243 161.483 179.247H87.7871V179.247ZM95.2558 186.716C95.0084 186.712 94.7628 186.758 94.5332 186.85C94.3036 186.942 94.0946 187.079 93.9184 187.253C93.7422 187.427 93.6022 187.634 93.5067 187.862C93.4112 188.09 93.3621 188.335 93.3621 188.583C93.3621 188.83 93.4112 189.075 93.5067 189.303C93.6022 189.532 93.7422 189.739 93.9184 189.912C94.0946 190.086 94.3036 190.223 94.5332 190.315C94.7628 190.408 95.0084 190.453 95.2558 190.45H114.905C115.152 190.453 115.398 190.408 115.628 190.315C115.857 190.223 116.066 190.086 116.243 189.912C116.419 189.739 116.559 189.532 116.654 189.303C116.75 189.075 116.799 188.83 116.799 188.583C116.799 188.335 116.75 188.09 116.654 187.862C116.559 187.634 116.419 187.427 116.243 187.253C116.066 187.079 115.857 186.942 115.628 186.85C115.398 186.758 115.152 186.712 114.905 186.716H95.2558ZM125.094 186.716C124.847 186.712 124.601 186.758 124.372 186.85C124.142 186.942 123.933 187.079 123.757 187.253C123.581 187.427 123.441 187.634 123.345 187.862C123.25 188.09 123.201 188.335 123.201 188.583C123.201 188.83 123.25 189.075 123.345 189.303C123.441 189.532 123.581 189.739 123.757 189.912C123.933 190.086 124.142 190.223 124.372 190.315C124.601 190.408 124.847 190.453 125.094 190.45H151.461C151.709 190.453 151.954 190.408 152.184 190.315C152.413 190.223 152.622 190.086 152.799 189.912C152.975 189.739 153.115 189.532 153.21 189.303C153.306 189.075 153.355 188.83 153.355 188.583C153.355 188.335 153.306 188.09 153.21 187.862C153.115 187.634 152.975 187.427 152.799 187.253C152.622 187.079 152.413 186.942 152.184 186.85C151.954 186.758 151.709 186.712 151.461 186.716H125.094ZM106.459 194.184C106.212 194.181 105.966 194.226 105.736 194.319C105.507 194.411 105.298 194.548 105.121 194.722C104.945 194.895 104.805 195.102 104.71 195.331C104.614 195.559 104.565 195.804 104.565 196.051C104.565 196.299 104.614 196.544 104.71 196.772C104.805 197 104.945 197.207 105.121 197.381C105.298 197.555 105.507 197.692 105.736 197.784C105.966 197.876 106.212 197.922 106.459 197.919H125.561C125.809 197.922 126.054 197.876 126.284 197.784C126.513 197.692 126.722 197.555 126.899 197.381C127.075 197.207 127.215 197 127.31 196.772C127.406 196.544 127.455 196.299 127.455 196.051C127.455 195.804 127.406 195.559 127.31 195.331C127.215 195.102 127.075 194.895 126.899 194.722C126.722 194.548 126.513 194.411 126.284 194.319C126.054 194.226 125.809 194.181 125.561 194.184H106.459Z" fill="#E5E5E5" fill-opacity="0.5"/>
<path fill-rule="evenodd" clip-rule="evenodd" d="M172.665 51.3278C172.02 51.3278 171.506 51.8684 171.516 52.5126C171.516 53.3218 171.168 53.6894 170.367 53.6894C168.788 53.652 168.788 56.0461 170.367 56.0233C171.14 56.0233 171.516 56.2361 171.516 57.1495C171.478 58.7281 173.872 58.7281 173.85 57.1495C173.85 56.3213 174.238 56.0233 175.004 56.0233C176.582 56.0607 176.582 53.6662 175.004 53.6894C173.963 53.6894 173.85 53.0936 173.85 52.5126C173.85 51.8538 173.323 51.317 172.665 51.3278V51.3278Z" fill="#E5E5E5"/>
<path fill-rule="evenodd" clip-rule="evenodd" d="M46.7073 132.649C45.8222 132.649 45.1164 133.391 45.1303 134.276C45.1303 135.387 44.6556 135.89 43.5536 135.89C41.3869 135.853 41.3869 139.126 43.5536 139.095C44.6149 139.095 45.1303 139.389 45.1303 140.639C45.0929 142.806 48.3646 142.806 48.334 140.639C48.334 139.503 48.8658 139.095 49.9174 139.095C52.0837 139.132 52.0837 135.86 49.9174 135.89C48.489 135.89 48.334 135.073 48.334 134.276C48.334 133.372 47.6114 132.635 46.7073 132.649ZM62.7095 93.2486C62.2236 93.2486 61.836 93.6557 61.8438 94.1419C61.8438 94.7517 61.5824 95.0281 60.9778 95.0281C59.7884 94.9907 59.7884 96.8042 60.9778 96.787C61.5608 96.787 61.8438 96.9476 61.8438 97.6358C61.8065 98.8248 63.6195 98.8248 63.6027 97.6358C63.6027 97.0118 63.894 96.787 64.4717 96.787C65.6611 96.787 65.6611 95.0113 64.4717 95.0281C63.6875 95.0281 63.6027 94.5792 63.6027 94.1419C63.6027 93.6452 63.2058 93.2408 62.7095 93.2486Z" fill="#E5E5E5" fill-opacity="0.5"/>
<path fill-rule="evenodd" clip-rule="evenodd" d="M69.5054 39.3937C68.8604 39.3937 68.3462 39.9346 68.3563 40.5791C68.3563 41.3884 68.009 41.7555 67.2076 41.7555C65.6287 41.7181 65.6287 44.1127 67.2076 44.0899C67.9806 44.0899 68.3563 44.3027 68.3563 45.2161C68.319 46.7943 70.7131 46.7943 70.6907 45.2161C70.6907 44.3878 71.0783 44.0899 71.8442 44.0899C73.4227 44.1273 73.4227 41.7331 71.8442 41.7555C70.8034 41.7555 70.6907 41.1602 70.6907 40.5791C70.6907 39.9204 70.1641 39.3836 69.5054 39.3937ZM138.916 43.0595C138.43 43.0595 138.043 43.4666 138.05 43.952C138.05 44.5619 137.789 44.8387 137.185 44.8387C135.995 44.8387 135.995 46.6144 137.185 46.5976C137.767 46.5976 138.05 46.7581 138.05 47.4459C138.013 48.6357 139.826 48.6357 139.809 47.4459C139.809 46.8223 140.1 46.5976 140.678 46.5976C141.868 46.6349 141.868 44.8215 140.678 44.8387C139.894 44.8387 139.809 44.3897 139.809 43.952C139.809 43.4559 139.412 43.0516 138.916 43.0595V43.0595Z" fill="#E5E5E5"/>
<path fill-rule="evenodd" clip-rule="evenodd" d="M179.067 73.7453C178.423 73.7453 177.908 74.2861 177.918 74.9303C177.918 75.7395 177.571 76.1068 176.77 76.1068C175.191 76.0695 175.191 78.4637 176.77 78.4413C177.543 78.4413 177.918 78.6542 177.918 79.5672C177.881 81.1458 180.275 81.1458 180.253 79.5672C180.253 78.739 180.64 78.4413 181.406 78.4413C182.985 78.4786 182.985 76.0837 181.406 76.1068C180.366 76.1068 180.253 75.5113 180.253 74.9303C180.253 74.2715 179.727 73.7344 179.067 73.7453V73.7453ZM184.425 112.722C183.94 112.722 183.552 113.13 183.56 113.615C183.56 114.225 183.298 114.502 182.694 114.502C181.504 114.464 181.504 116.278 182.694 116.261C183.276 116.261 183.56 116.421 183.56 117.109C183.522 118.299 185.335 118.299 185.318 117.109C185.318 116.485 185.61 116.261 186.187 116.261C187.377 116.261 187.377 114.485 186.187 114.502C185.404 114.502 185.318 114.053 185.318 113.615C185.318 113.119 184.922 112.715 184.425 112.722ZM181.774 136.423C180.889 136.423 180.183 137.166 180.197 138.05C180.197 139.161 179.722 139.665 178.62 139.665C176.453 139.627 176.453 142.899 178.62 142.868C179.681 142.868 180.197 143.164 180.197 144.414C180.159 146.58 183.431 146.58 183.4 144.414C183.4 143.277 183.932 142.868 184.983 142.868C187.15 142.906 187.15 139.634 184.983 139.665C183.555 139.665 183.4 138.848 183.4 138.05C183.4 137.146 182.678 136.409 181.774 136.423Z" fill="#E5E5E5" fill-opacity="0.5"/>
<path fill-rule="evenodd" clip-rule="evenodd" d="M59.8014 64.1432C59.1564 64.1432 58.6422 64.6839 58.6523 65.3284C58.6523 66.1377 58.305 66.5048 57.5032 66.5048C55.9247 66.4674 55.9247 68.8616 57.5032 68.8392C58.2766 68.8392 58.6523 69.052 58.6523 69.9654C58.615 71.5436 61.0091 71.5436 60.9867 69.9654C60.9867 69.1371 61.3743 68.8392 62.1402 68.8392C63.7187 68.8766 63.7187 66.4824 62.1402 66.5048C61.0994 66.5048 60.9867 65.9095 60.9867 65.3284C60.9867 64.6697 60.4601 64.1328 59.8014 64.1432Z" fill="#E5E5E5"/>
<path fill-rule="evenodd" clip-rule="evenodd" d="M94.0683 46.1202C93.5701 46.1202 93.1724 46.5381 93.1802 47.0363C93.1802 47.6618 92.9114 47.9453 92.2922 47.9453C91.0722 47.9453 91.0722 49.7669 92.2922 49.7493C92.8897 49.7493 93.1802 49.9136 93.1802 50.6198C93.1802 51.8398 95.0015 51.8398 94.9843 50.6198C94.9843 49.9797 95.2831 49.7493 95.8757 49.7493C97.0957 49.7493 97.0957 47.9281 95.8757 47.9453C95.0713 47.9453 94.9843 47.4852 94.9843 47.0363C94.9881 46.5269 94.5773 46.112 94.0683 46.1202Z" fill="#E5E5E5" fill-opacity="0.5"/>
<path d="M68.7725 109.395C68.6001 109.393 68.4282 109.416 68.262 109.462L60.1441 111.636C59.9052 111.7 59.6814 111.811 59.4857 111.962C59.29 112.113 59.1264 112.302 59.0042 112.517C58.8821 112.732 58.8039 112.969 58.7742 113.215C58.7445 113.461 58.7639 113.71 58.8312 113.948L58.7802 113.787L59.0355 117.631C58.1247 118.212 57.2561 118.861 56.4316 119.578L52.6316 118.265C52.397 118.17 52.1455 118.124 51.8924 118.129C51.6393 118.134 51.3899 118.191 51.1594 118.295C50.9288 118.4 50.7219 118.55 50.5512 118.737C50.3805 118.924 50.2496 119.143 50.1665 119.383C50.0833 119.622 50.0496 119.875 50.0675 120.128C50.0853 120.38 50.1543 120.627 50.2703 120.852C50.3862 121.077 50.5467 121.276 50.742 121.437C50.9373 121.598 51.1633 121.717 51.4062 121.788L56.1253 123.43C56.4567 123.544 56.8138 123.564 57.1557 123.485C57.4975 123.406 57.8103 123.233 58.0581 122.984C59.1401 121.9 60.4645 120.947 61.9019 120.118C62.2037 119.943 62.4505 119.687 62.6142 119.379C62.7779 119.071 62.852 118.723 62.8282 118.375L62.5948 114.845L67.7441 113.466L69.305 116.639C69.4591 116.953 69.698 117.216 69.9946 117.4C70.2911 117.585 70.6334 117.683 70.9825 117.682C72.6405 117.68 74.2589 117.846 75.738 118.244C76.077 118.335 76.4347 118.328 76.7701 118.225C77.1055 118.121 77.4051 117.926 77.6344 117.66L79.8881 115.056L84.5269 117.77L83.3891 120.964C83.2698 121.299 83.2483 121.66 83.3271 122.006C83.4059 122.352 83.5817 122.669 83.834 122.919C84.9558 124.029 85.9474 125.353 86.7807 126.799C86.9564 127.106 87.2155 127.356 87.528 127.522C87.8404 127.687 88.1934 127.76 88.5458 127.733L92.0322 127.449L92.6157 129.601C92.668 129.849 92.7704 130.084 92.9165 130.291C93.0625 130.498 93.2493 130.674 93.4654 130.806C93.6814 130.939 93.9223 131.026 94.1732 131.063C94.4241 131.1 94.6798 131.085 94.9248 131.019C95.1698 130.954 95.3989 130.839 95.5981 130.682C95.7973 130.525 95.9625 130.33 96.0835 130.107C96.2046 129.884 96.279 129.639 96.3023 129.386C96.3255 129.134 96.2971 128.879 96.2187 128.638L95.2414 124.976C95.1284 124.554 94.8708 124.185 94.5137 123.933C94.1565 123.682 93.7223 123.563 93.2867 123.598L89.2387 123.927C88.6366 122.997 87.9687 122.116 87.2329 121.286L88.5604 117.567C88.7046 117.158 88.7019 116.711 88.5529 116.304C88.4038 115.897 88.1176 115.554 87.7435 115.335L80.4352 111.053C80.0583 110.833 79.6164 110.752 79.186 110.824C78.7557 110.896 78.3641 111.117 78.0793 111.447L75.4463 114.488C74.3729 114.279 73.2954 114.149 72.2152 114.102L70.4209 110.44C70.269 110.132 70.0346 109.871 69.7437 109.686C69.4529 109.502 69.1167 109.403 68.7725 109.397L68.7725 109.395ZM50.0569 121.641C49.7217 121.638 49.3917 121.725 49.1017 121.893C48.8116 122.061 48.5722 122.304 48.4085 122.597L47.9417 123.399C47.7471 123.725 47.6567 124.104 47.6828 124.483C47.7089 124.862 47.8501 125.224 48.0876 125.521C47.6831 125.46 47.2696 125.533 46.9106 125.729C46.5516 125.925 46.267 126.234 46.1005 126.607C45.9339 126.981 45.8947 127.399 45.9889 127.797C46.083 128.195 46.3053 128.552 46.6216 128.811L49.6266 131.364C49.4037 132.454 49.2594 133.55 49.2035 134.66L45.5421 136.396C45.149 136.584 44.8339 136.903 44.6514 137.299C44.469 137.694 44.4305 138.142 44.5428 138.562L46.7383 146.753C46.8513 147.175 47.1088 147.545 47.466 147.797C47.8231 148.049 48.2573 148.167 48.693 148.132L52.7337 147.803C53.3372 148.736 54.0089 149.619 54.7467 150.451L53.4266 154.243C53.2836 154.654 53.2885 155.102 53.4403 155.509C53.592 155.917 53.8813 156.258 54.2581 156.475L61.5518 160.684C61.9333 160.904 62.3805 160.983 62.8143 160.905C63.2481 160.828 63.6405 160.6 63.9222 160.261L66.4458 157.219C67.5303 157.455 68.6387 157.601 69.7718 157.672L71.5587 161.289C71.7479 161.674 72.0635 161.981 72.4526 162.16C72.8417 162.34 73.2807 162.38 73.6958 162.274L81.8355 160.166C82.2565 160.057 82.6261 159.804 82.8804 159.451C83.1348 159.098 83.2579 158.667 83.2286 158.233L82.9588 154.134C83.8996 153.51 84.7753 152.826 85.5918 152.085L89.3116 153.456C89.7243 153.608 90.1774 153.609 90.5911 153.46C91.0047 153.31 91.3523 153.02 91.5726 152.639L95.7811 145.345C95.9991 144.969 96.079 144.529 96.0071 144.1C95.9352 143.671 95.716 143.281 95.3872 142.997L92.3603 140.378C92.5858 139.307 92.7303 138.221 92.7907 137.118L94.0889 136.484L95.2705 135.9L96.4521 135.324C96.841 135.134 97.1518 134.814 97.3314 134.421C97.511 134.027 97.5482 133.583 97.4368 133.165L97.2836 132.603C97.1582 132.137 96.8575 131.738 96.4446 131.489C96.0316 131.24 95.5383 131.161 95.068 131.267C94.5977 131.374 94.1868 131.658 93.9214 132.061C93.656 132.463 93.5566 132.953 93.644 133.427L93.4325 132.647L92.4406 133.136L90.2597 134.208C89.9465 134.362 89.6827 134.601 89.4983 134.897C89.3139 135.194 89.2164 135.536 89.2167 135.885C89.2187 137.541 89.0125 139.102 88.5895 140.648C88.4964 140.987 88.5011 141.346 88.603 141.683C88.705 142.02 88.9 142.321 89.1657 142.552L91.7768 144.813L89.1219 149.408L85.9346 148.226C85.5979 148.101 85.2324 148.077 84.8818 148.154C84.5313 148.232 84.2105 148.409 83.958 148.664C82.8177 149.817 81.5032 150.869 80.0996 151.676C79.7964 151.85 79.5482 152.106 79.3831 152.414C79.2181 152.722 79.1429 153.07 79.166 153.419L79.3994 156.935L74.2282 158.277L72.6892 155.156C72.5351 154.842 72.2962 154.578 71.9996 154.394C71.7031 154.21 71.3608 154.112 71.0117 154.113C69.3896 154.114 67.7245 153.869 66.1614 153.441C65.8151 153.345 65.4486 153.352 65.1057 153.459C64.7629 153.567 64.4583 153.77 64.2285 154.047L62.055 156.665L57.46 154.01L58.5905 150.75C58.7069 150.417 58.7269 150.059 58.6482 149.715C58.5694 149.372 58.3952 149.058 58.1456 148.81C57.0236 147.7 56.0311 146.374 55.1989 144.929C55.0217 144.623 54.761 144.373 54.4472 144.209C54.1334 144.045 53.7794 143.974 53.4266 144.003L49.9402 144.279L48.5544 139.101L51.7125 137.599C52.0311 137.447 52.3001 137.208 52.4886 136.91C52.677 136.612 52.7772 136.266 52.7774 135.913C52.7756 134.245 52.9737 132.6 53.3901 131.078C53.4845 130.735 53.479 130.373 53.3744 130.033C53.2697 129.693 53.0702 129.39 52.7993 129.16L49.3421 126.213C49.7059 126.253 50.0733 126.185 50.3988 126.018C50.7243 125.85 50.9934 125.591 51.1728 125.272L51.6396 124.47C51.8094 124.188 51.9016 123.866 51.9068 123.537C51.9121 123.208 51.8302 122.883 51.6695 122.596C51.5088 122.308 51.275 122.069 50.9918 121.901C50.7086 121.733 50.3861 121.643 50.0569 121.64L50.0569 121.641ZM68.5902 126.922C68.3531 126.985 68.1309 127.095 67.9362 127.245C67.7416 127.394 67.5783 127.581 67.4556 127.793C67.333 128.006 67.2535 128.241 67.2216 128.484C67.1898 128.728 67.2061 128.975 67.2698 129.212C67.3335 129.449 67.4433 129.671 67.5929 129.866C67.7425 130.061 67.9289 130.224 68.1416 130.346C68.3543 130.469 68.5891 130.549 68.8325 130.58C69.0759 130.612 69.3232 130.596 69.5603 130.532C72.5363 129.734 75.5676 131.48 76.3653 134.456C77.163 137.432 75.4099 140.471 72.434 141.268C69.4579 142.066 66.4266 140.313 65.629 137.337C65.5653 137.1 65.4556 136.878 65.306 136.683C65.1565 136.489 64.97 136.325 64.7574 136.203C64.5447 136.08 64.31 136.001 64.0666 135.969C63.8232 135.937 63.5759 135.953 63.3388 136.017C63.1017 136.08 62.8795 136.19 62.6848 136.34C62.4902 136.489 62.3269 136.676 62.2043 136.889C62.0817 137.101 62.0022 137.336 61.9703 137.579C61.9385 137.823 61.9549 138.07 62.0186 138.307C63.3407 143.24 68.4715 146.194 73.404 144.872C78.3368 143.55 81.2978 138.426 79.9757 133.493C78.6535 128.561 73.5228 125.6 68.5902 126.922V126.922ZM64.7975 129.876C64.4943 129.884 64.1977 129.966 63.9334 130.115C63.6691 130.263 63.445 130.474 63.2804 130.729C62.9038 131.292 62.5865 131.892 62.3395 132.523C62.2499 132.752 62.2062 132.995 62.2109 133.241C62.2156 133.486 62.2685 133.728 62.3667 133.953C62.4649 134.178 62.6065 134.381 62.7833 134.551C62.9601 134.722 63.1686 134.855 63.3971 134.945C63.6255 135.034 63.8694 135.078 64.1147 135.073C64.3601 135.069 64.6021 135.016 64.8269 134.917C65.0518 134.819 65.2551 134.678 65.4252 134.501C65.5954 134.324 65.7291 134.116 65.8186 133.887C65.9668 133.509 66.1611 133.146 66.3875 132.808C66.5849 132.524 66.6995 132.191 66.7186 131.845C66.7377 131.5 66.6605 131.156 66.4956 130.852C66.3308 130.548 66.0847 130.296 65.7849 130.123C65.485 129.951 65.1432 129.865 64.7975 129.876V129.876ZM139.142 78.0396C138.711 78.0478 138.296 78.2047 137.968 78.4838C137.64 78.7629 137.418 79.1471 137.341 79.571L137.37 79.388L134.693 86.142C132.446 86.381 130.223 86.8182 128.056 87.484L122.826 82.3198C122.652 82.1427 122.445 82.0019 122.217 81.9057C121.988 81.8095 121.742 81.76 121.494 81.7598C121.246 81.7596 121 81.8088 120.772 81.9046C120.543 82.0004 120.335 82.1407 120.161 82.3176C119.987 82.4944 119.85 82.7044 119.758 82.9348C119.666 83.1652 119.621 83.4116 119.626 83.6596C119.63 83.9077 119.684 84.1523 119.784 84.3794C119.883 84.6065 120.028 84.8113 120.208 84.982L126.13 90.817C126.38 91.0641 126.695 91.2357 127.038 91.3118C127.381 91.388 127.739 91.3657 128.07 91.2476C130.605 90.3438 133.379 89.8464 136.217 89.6208C136.564 89.5922 136.897 89.467 137.176 89.2596C137.456 89.0521 137.672 88.7706 137.8 88.4468L140.353 82.0135L151.097 83.9976L151.184 90.9048C151.189 91.2545 151.292 91.5959 151.482 91.8899C151.671 92.1839 151.94 92.4188 152.256 92.5677C154.826 93.7859 157.233 95.2475 159.28 96.9948C159.547 97.2241 159.874 97.3731 160.223 97.4246C160.571 97.4762 160.927 97.4282 161.249 97.2861L167.442 94.5653L173.634 103.668L168.915 108.387C168.664 108.637 168.489 108.954 168.412 109.301C168.334 109.647 168.357 110.008 168.477 110.342C169.415 112.935 169.972 115.753 170.199 118.62C170.227 118.972 170.354 119.309 170.566 119.592C170.777 119.875 171.065 120.092 171.395 120.217L177.813 122.653L176.953 127.329C176.908 127.57 176.912 127.818 176.963 128.058C177.014 128.298 177.112 128.526 177.251 128.728C177.39 128.93 177.568 129.103 177.774 129.236C177.98 129.37 178.21 129.461 178.452 129.506C178.939 129.596 179.442 129.488 179.851 129.207C180.053 129.068 180.226 128.89 180.359 128.685C180.493 128.479 180.584 128.248 180.629 128.007L181.774 121.8C181.852 121.371 181.777 120.928 181.562 120.549C181.348 120.169 181.007 119.876 180.6 119.721L173.671 117.081C173.416 114.782 172.948 112.521 172.256 110.327L177.368 105.222C177.676 104.915 177.867 104.51 177.908 104.077C177.95 103.644 177.839 103.211 177.595 102.851L169.659 91.181C169.413 90.8203 169.049 90.5572 168.629 90.4373C168.209 90.3173 167.761 90.3482 167.361 90.5246L160.629 93.4785C158.842 92.0856 156.919 90.885 154.904 89.8611L154.816 82.414C154.81 81.9818 154.653 81.5654 154.374 81.2356C154.095 80.9058 153.71 80.683 153.285 80.6054L139.514 78.0672C139.392 78.0423 139.267 78.0298 139.142 78.0298L139.142 78.0396ZM115.941 85.6177C115.582 85.6337 115.235 85.7529 114.942 85.9612L113.665 86.8362C113.463 86.9751 113.29 87.1523 113.157 87.358C113.023 87.5636 112.931 87.7938 112.887 88.0349C112.842 88.2761 112.845 88.5235 112.896 88.7634C112.947 89.0033 113.045 89.2309 113.184 89.433C113.322 89.6352 113.5 89.8079 113.705 89.9415C113.911 90.0751 114.141 90.1669 114.382 90.2116C114.623 90.2563 114.871 90.253 115.111 90.2021C115.351 90.1511 115.578 90.0533 115.78 89.9144L117.057 89.0392C117.397 88.8133 117.653 88.4823 117.787 88.0969C117.921 87.7115 117.925 87.2928 117.798 86.9048C117.672 86.5169 117.422 86.1812 117.086 85.9489C116.751 85.7166 116.349 85.6005 115.941 85.6184V85.6177ZM109.865 89.8479C109.557 89.8588 109.256 89.9459 108.99 90.1013C108.724 90.2567 108.5 90.4757 108.339 90.7386C108.178 91.0015 108.085 91.3001 108.067 91.6079C108.05 91.9157 108.109 92.2233 108.239 92.5028L111.2 99.1106C109.774 100.912 108.536 102.854 107.48 104.909H100.055C99.618 104.909 99.1946 105.062 98.8588 105.342C98.5229 105.622 98.2959 106.011 98.2172 106.441L95.6644 120.328C95.5862 120.756 95.66 121.198 95.8731 121.578C96.0862 121.957 96.4251 122.251 96.8314 122.407L103.775 125.047C104.03 127.344 104.491 129.61 105.183 131.801L100.033 137.031C99.7279 137.34 99.5396 137.745 99.501 138.178C99.4624 138.61 99.5758 139.043 99.8218 139.401L107.787 150.954C108.036 151.316 108.406 151.579 108.831 151.695C109.255 151.811 109.707 151.773 110.106 151.589L116.699 148.54C118.484 149.978 120.425 151.265 122.505 152.355L122.622 159.721C122.629 160.149 122.783 160.561 123.058 160.889C123.333 161.217 123.712 161.441 124.132 161.523L137.88 164.171C138.308 164.254 138.751 164.185 139.134 163.976C139.516 163.767 139.813 163.431 139.974 163.026L142.723 156.082C145.055 155.806 147.328 155.287 149.507 154.579L154.583 159.78C154.891 160.094 155.299 160.289 155.737 160.331C156.175 160.374 156.613 160.261 156.975 160.011L168.529 152.054C168.886 151.807 169.147 151.444 169.265 151.026C169.384 150.608 169.353 150.161 169.178 149.764L166.231 143.046C167.646 141.274 168.88 139.37 169.936 137.328L173.007 137.291C173.009 137.291 173.012 137.291 173.014 137.291L175.217 137.253L177.412 137.216C177.843 137.208 178.258 137.051 178.586 136.771C178.915 136.492 179.137 136.108 179.214 135.684L179.389 134.736C179.433 134.495 179.429 134.247 179.377 134.007C179.326 133.767 179.227 133.54 179.088 133.338C178.948 133.137 178.77 132.964 178.564 132.831C178.358 132.698 178.128 132.607 177.887 132.563C177.645 132.519 177.397 132.522 177.158 132.574C176.918 132.626 176.69 132.724 176.489 132.864C176.287 133.003 176.114 133.181 175.981 133.387C175.848 133.593 175.757 133.824 175.713 134.065L175.815 133.511H175.151L172.956 133.548L168.908 133.6C168.558 133.605 168.217 133.709 167.923 133.898C167.629 134.088 167.394 134.356 167.245 134.672C166.018 137.259 164.524 139.566 162.708 141.674C162.479 141.941 162.33 142.268 162.278 142.617C162.226 142.965 162.274 143.322 162.417 143.644L165.137 149.843L156.151 156.035L151.461 151.229C151.211 150.973 150.892 150.794 150.543 150.714C150.194 150.634 149.829 150.655 149.492 150.777C146.858 151.729 144.018 152.395 141.199 152.615C140.851 152.643 140.517 152.767 140.236 152.974C139.955 153.182 139.738 153.465 139.609 153.789L137.071 160.207L126.327 158.136L126.225 151.324C126.221 150.975 126.119 150.634 125.931 150.34C125.742 150.046 125.475 149.811 125.16 149.661C122.604 148.449 120.185 146.82 118.064 144.993C117.792 144.758 117.458 144.606 117.102 144.556C116.747 144.505 116.384 144.559 116.058 144.709L109.968 147.532L103.775 138.546L108.531 133.718C108.777 133.467 108.947 133.152 109.022 132.809C109.096 132.465 109.073 132.108 108.954 131.778C108.016 129.184 107.458 126.365 107.232 123.499C107.204 123.147 107.077 122.81 106.866 122.527C106.654 122.245 106.366 122.028 106.036 121.902L99.6178 119.466L101.609 108.635H108.48C108.831 108.635 109.176 108.537 109.474 108.35C109.772 108.163 110.011 107.896 110.164 107.579C111.397 104.98 112.923 102.55 114.723 100.46C114.955 100.191 115.106 99.8621 115.158 99.5106C115.209 99.1592 115.16 98.8005 115.015 98.4763L111.645 90.9784C111.497 90.6326 111.247 90.3397 110.93 90.138C110.612 89.9363 110.241 89.8351 109.865 89.8479H109.865ZM140.915 107.076C140.45 107.082 140.005 107.261 139.666 107.578C139.326 107.895 139.117 108.326 139.079 108.789C139.041 109.252 139.176 109.712 139.459 110.08C139.742 110.449 140.151 110.698 140.608 110.781C146.32 111.833 150.084 117.301 149.032 123.012C147.981 128.724 142.512 132.496 136.801 131.444C131.089 130.392 127.325 124.924 128.377 119.213C128.421 118.971 128.418 118.723 128.367 118.483C128.316 118.243 128.218 118.015 128.078 117.813C127.939 117.611 127.762 117.438 127.556 117.305C127.35 117.171 127.119 117.079 126.878 117.035C126.637 116.99 126.389 116.994 126.149 117.045C125.909 117.096 125.681 117.194 125.479 117.333C125.277 117.473 125.104 117.65 124.97 117.856C124.837 118.062 124.745 118.293 124.701 118.534C123.282 126.238 128.426 133.694 136.13 135.113C143.834 136.531 151.29 131.394 152.708 123.691C154.127 115.987 148.99 108.531 141.287 107.112C141.164 107.087 141.039 107.075 140.915 107.075V107.076ZM132.447 108.6C132.089 108.593 131.737 108.689 131.433 108.876C130.54 109.407 129.711 110.032 128.953 110.744C128.591 111.082 128.379 111.55 128.362 112.046C128.346 112.541 128.527 113.022 128.865 113.384C129.204 113.746 129.672 113.958 130.167 113.974C130.663 113.991 131.144 113.81 131.506 113.471C132.066 112.945 132.685 112.477 133.344 112.086C133.698 111.882 133.976 111.568 134.135 111.191C134.293 110.815 134.324 110.397 134.222 110.001C134.12 109.605 133.892 109.254 133.571 109.001C133.25 108.747 132.855 108.606 132.447 108.599V108.6Z" fill="#E5E5E5"/>
</svg>
