<?xml version="1.0" encoding="UTF-8" standalone="no"?>
<svg xmlns:dc="http://purl.org/dc/elements/1.1/" xmlns:cc="http://creativecommons.org/ns#" xmlns:rdf="http://www.w3.org/1999/02/22-rdf-syntax-ns#" xmlns:svg="http://www.w3.org/2000/svg" xmlns="http://www.w3.org/2000/svg" xmlns:sodipodi="http://sodipodi.sourceforge.net/DTD/sodipodi-0.dtd" xmlns:inkscape="http://www.inkscape.org/namespaces/inkscape" width="64px" height="64px" viewBox="0 0 64.000001 64.000001" id="svg2" version="1.1" inkscape:version="0.91 r13725" sodipodi:docname="mobile happy face emoticon cheerful cell phone.svg">
  <defs id="defs4">
    <pattern y="0" x="0" height="6" width="6" patternUnits="userSpaceOnUse" id="EMFhbasepattern"/>
  </defs>
  <sodipodi:namedview id="base" pagecolor="#ffffff" bordercolor="#666666" borderopacity="1.0" inkscape:pageopacity="0.0" inkscape:pageshadow="2" inkscape:zoom="7.9195959" inkscape:cx="20.75842" inkscape:cy="16.507644" inkscape:document-units="px" inkscape:current-layer="layer1" showgrid="true" units="px" inkscape:window-width="1366" inkscape:window-height="705" inkscape:window-x="-8" inkscape:window-y="-8" inkscape:window-maximized="1" inkscape:snap-bbox="true" inkscape:bbox-paths="true" inkscape:bbox-nodes="true" inkscape:snap-bbox-midpoints="true" inkscape:snap-bbox-edge-midpoints="true">
    <inkscape:grid type="xygrid" id="grid3363"/>
  </sodipodi:namedview>
  
  <g inkscape:label="Layer 1" inkscape:groupmode="layer" id="layer1" transform="translate(0,-988.36216)">
    <g id="g3425">
      <path inkscape:connector-curvature="0" id="path7643" d="m 12.447266,1035.3613 a 0.50005,0.50005 0 1 0 0,1 l 39.816406,0 a 0.50005,0.50005 0 1 0 0,-1 l -39.816406,0 z" style="color:#000000;font-style:normal;font-variant:normal;font-weight:normal;font-stretch:normal;font-size:medium;line-height:normal;font-family:sans-serif;text-indent:0;text-align:start;text-decoration:none;text-decoration-line:none;text-decoration-style:solid;text-decoration-color:#000000;letter-spacing:normal;word-spacing:normal;text-transform:none;direction:ltr;block-progression:tb;writing-mode:lr-tb;baseline-shift:baseline;text-anchor:start;white-space:normal;clip-rule:nonzero;display:inline;overflow:visible;visibility:visible;opacity:1;isolation:auto;mix-blend-mode:normal;color-interpolation:sRGB;color-interpolation-filters:linearRGB;solid-color:#000000;solid-opacity:1;fill:#2b4255;fill-opacity:1;fill-rule:nonzero;stroke:none;stroke-width:1;stroke-linecap:round;stroke-linejoin:round;stroke-miterlimit:4;stroke-dasharray:none;stroke-dashoffset:0;stroke-opacity:1;color-rendering:auto;image-rendering:auto;shape-rendering:auto;text-rendering:auto;enable-background:accumulate"/>
      <path inkscape:connector-curvature="0" id="path7645" d="m 54.972656,1035.3613 a 0.50005,0.50005 0 1 0 0,1 l 2.064453,0 a 0.50005,0.50005 0 1 0 0,-1 l -2.064453,0 z" style="color:#000000;font-style:normal;font-variant:normal;font-weight:normal;font-stretch:normal;font-size:medium;line-height:normal;font-family:sans-serif;text-indent:0;text-align:start;text-decoration:none;text-decoration-line:none;text-decoration-style:solid;text-decoration-color:#000000;letter-spacing:normal;word-spacing:normal;text-transform:none;direction:ltr;block-progression:tb;writing-mode:lr-tb;baseline-shift:baseline;text-anchor:start;white-space:normal;clip-rule:nonzero;display:inline;overflow:visible;visibility:visible;opacity:1;isolation:auto;mix-blend-mode:normal;color-interpolation:sRGB;color-interpolation-filters:linearRGB;solid-color:#000000;solid-opacity:1;fill:#2b4255;fill-opacity:1;fill-rule:nonzero;stroke:none;stroke-width:1;stroke-linecap:round;stroke-linejoin:round;stroke-miterlimit:4;stroke-dasharray:none;stroke-dashoffset:0;stroke-opacity:1;color-rendering:auto;image-rendering:auto;shape-rendering:auto;text-rendering:auto;enable-background:accumulate"/>
      <path inkscape:connector-curvature="0" id="path7647" d="m 4.5078125,1035.3613 a 0.50005,0.50005 0 1 0 0,1 l 5.7031255,0 a 0.50005,0.50005 0 1 0 0,-1 l -5.7031255,0 z" style="color:#000000;font-style:normal;font-variant:normal;font-weight:normal;font-stretch:normal;font-size:medium;line-height:normal;font-family:sans-serif;text-indent:0;text-align:start;text-decoration:none;text-decoration-line:none;text-decoration-style:solid;text-decoration-color:#000000;letter-spacing:normal;word-spacing:normal;text-transform:none;direction:ltr;block-progression:tb;writing-mode:lr-tb;baseline-shift:baseline;text-anchor:start;white-space:normal;clip-rule:nonzero;display:inline;overflow:visible;visibility:visible;opacity:1;isolation:auto;mix-blend-mode:normal;color-interpolation:sRGB;color-interpolation-filters:linearRGB;solid-color:#000000;solid-opacity:1;fill:#2b4255;fill-opacity:1;fill-rule:nonzero;stroke:none;stroke-width:1;stroke-linecap:round;stroke-linejoin:round;stroke-miterlimit:4;stroke-dasharray:none;stroke-dashoffset:0;stroke-opacity:1;color-rendering:auto;image-rendering:auto;shape-rendering:auto;text-rendering:auto;enable-background:accumulate"/>
      <path inkscape:connector-curvature="0" id="path7649" d="m 21.507812,1037.3613 a 0.50005,0.50005 0 1 0 0,1 l 19.734376,0 a 0.50005,0.50005 0 1 0 0,-1 l -19.734376,0 z" style="color:#000000;font-style:normal;font-variant:normal;font-weight:normal;font-stretch:normal;font-size:medium;line-height:normal;font-family:sans-serif;text-indent:0;text-align:start;text-decoration:none;text-decoration-line:none;text-decoration-style:solid;text-decoration-color:#000000;letter-spacing:normal;word-spacing:normal;text-transform:none;direction:ltr;block-progression:tb;writing-mode:lr-tb;baseline-shift:baseline;text-anchor:start;white-space:normal;clip-rule:nonzero;display:inline;overflow:visible;visibility:visible;opacity:1;isolation:auto;mix-blend-mode:normal;color-interpolation:sRGB;color-interpolation-filters:linearRGB;solid-color:#000000;solid-opacity:1;fill:#f05542;fill-opacity:1;fill-rule:evenodd;stroke:none;stroke-width:1;stroke-linecap:round;stroke-linejoin:round;stroke-miterlimit:4;stroke-dasharray:none;stroke-dashoffset:0;stroke-opacity:1;color-rendering:auto;image-rendering:auto;shape-rendering:auto;text-rendering:auto;enable-background:accumulate"/>
      <path inkscape:connector-curvature="0" id="path7651" d="m 24.507812,1039.3613 a 0.50005,0.50005 0 1 0 0,1 l 5.261719,0 a 0.50005,0.50005 0 1 0 0,-1 l -5.261719,0 z" style="color:#000000;font-style:normal;font-variant:normal;font-weight:normal;font-stretch:normal;font-size:medium;line-height:normal;font-family:sans-serif;text-indent:0;text-align:start;text-decoration:none;text-decoration-line:none;text-decoration-style:solid;text-decoration-color:#000000;letter-spacing:normal;word-spacing:normal;text-transform:none;direction:ltr;block-progression:tb;writing-mode:lr-tb;baseline-shift:baseline;text-anchor:start;white-space:normal;clip-rule:nonzero;display:inline;overflow:visible;visibility:visible;opacity:1;isolation:auto;mix-blend-mode:normal;color-interpolation:sRGB;color-interpolation-filters:linearRGB;solid-color:#000000;solid-opacity:1;fill:#f05542;fill-opacity:1;fill-rule:evenodd;stroke:none;stroke-width:1;stroke-linecap:round;stroke-linejoin:round;stroke-miterlimit:4;stroke-dasharray:none;stroke-dashoffset:0;stroke-opacity:1;color-rendering:auto;image-rendering:auto;shape-rendering:auto;text-rendering:auto;enable-background:accumulate"/>
      <path inkscape:connector-curvature="0" id="path7653" d="m 32.238281,1039.3613 a 0.50005,0.50005 0 1 0 0,1 l 7.060547,0 a 0.50005,0.50005 0 1 0 0,-1 l -7.060547,0 z" style="color:#000000;font-style:normal;font-variant:normal;font-weight:normal;font-stretch:normal;font-size:medium;line-height:normal;font-family:sans-serif;text-indent:0;text-align:start;text-decoration:none;text-decoration-line:none;text-decoration-style:solid;text-decoration-color:#000000;letter-spacing:normal;word-spacing:normal;text-transform:none;direction:ltr;block-progression:tb;writing-mode:lr-tb;baseline-shift:baseline;text-anchor:start;white-space:normal;clip-rule:nonzero;display:inline;overflow:visible;visibility:visible;opacity:1;isolation:auto;mix-blend-mode:normal;color-interpolation:sRGB;color-interpolation-filters:linearRGB;solid-color:#000000;solid-opacity:1;fill:#f05542;fill-opacity:1;fill-rule:evenodd;stroke:none;stroke-width:1;stroke-linecap:round;stroke-linejoin:round;stroke-miterlimit:4;stroke-dasharray:none;stroke-dashoffset:0;stroke-opacity:1;color-rendering:auto;image-rendering:auto;shape-rendering:auto;text-rendering:auto;enable-background:accumulate"/>
      <path inkscape:connector-curvature="0" id="path7655" d="m 27.507812,1041.3613 a 0.50005,0.50005 0 1 0 0,1 l 5.115235,0 a 0.50005,0.50005 0 1 0 0,-1 l -5.115235,0 z" style="color:#000000;font-style:normal;font-variant:normal;font-weight:normal;font-stretch:normal;font-size:medium;line-height:normal;font-family:sans-serif;text-indent:0;text-align:start;text-decoration:none;text-decoration-line:none;text-decoration-style:solid;text-decoration-color:#000000;letter-spacing:normal;word-spacing:normal;text-transform:none;direction:ltr;block-progression:tb;writing-mode:lr-tb;baseline-shift:baseline;text-anchor:start;white-space:normal;clip-rule:nonzero;display:inline;overflow:visible;visibility:visible;opacity:1;isolation:auto;mix-blend-mode:normal;color-interpolation:sRGB;color-interpolation-filters:linearRGB;solid-color:#000000;solid-opacity:1;fill:#f05542;fill-opacity:1;fill-rule:evenodd;stroke:none;stroke-width:1;stroke-linecap:round;stroke-linejoin:round;stroke-miterlimit:4;stroke-dasharray:none;stroke-dashoffset:0;stroke-opacity:1;color-rendering:auto;image-rendering:auto;shape-rendering:auto;text-rendering:auto;enable-background:accumulate"/>
      <path style="color:#000000;font-style:normal;font-variant:normal;font-weight:normal;font-stretch:normal;font-size:medium;line-height:normal;font-family:sans-serif;text-indent:0;text-align:start;text-decoration:none;text-decoration-line:none;letter-spacing:normal;word-spacing:normal;text-transform:none;direction:ltr;block-progression:tb;writing-mode:lr-tb;baseline-shift:baseline;text-anchor:start;display:inline;overflow:visible;visibility:visible;fill:#2b4255;fill-opacity:1;fill-rule:evenodd;stroke:none;enable-background:accumulate" d="m 21.17681,1003.3378 c -0.17262,0 -0.31037,0.1448 -0.30767,0.3174 0,0.2167 -0.0926,0.315 -0.30765,0.315 -0.42273,-0.01 -0.42273,0.6311 0,0.6251 0.20707,0 0.30765,0.057 0.30765,0.3015 -0.006,0.4227 0.63107,0.4227 0.62509,0 0,-0.2217 0.10377,-0.3015 0.30888,-0.3015 0.42273,0.01 0.42273,-0.6311 0,-0.6251 -0.27869,0 -0.30888,-0.1594 -0.30888,-0.315 0.002,-0.1764 -0.14098,-0.3202 -0.31742,-0.3174 z" id="path7657" inkscape:connector-curvature="0" sodipodi:nodetypes="cccccccccc"/>
      <path style="color:#000000;font-style:normal;font-variant:normal;font-weight:normal;font-stretch:normal;font-size:medium;line-height:normal;font-family:sans-serif;text-indent:0;text-align:start;text-decoration:none;text-decoration-line:none;letter-spacing:normal;word-spacing:normal;text-transform:none;direction:ltr;block-progression:tb;writing-mode:lr-tb;baseline-shift:baseline;text-anchor:start;display:inline;overflow:visible;visibility:visible;fill:#f05542;fill-opacity:1;fill-rule:evenodd;stroke:none;enable-background:accumulate" d="m 12.68473,1015.4446 c -0.23692,0 -0.42598,0.1987 -0.42227,0.4356 0,0.2975 -0.12709,0.4324 -0.42225,0.4324 -0.58018,-0.01 -0.58018,0.8662 0,0.8579 0.2842,0 0.42225,0.079 0.42225,0.4139 -0.008,0.58 0.86613,0.58 0.85792,0 0,-0.3044 0.14242,-0.4139 0.42393,-0.4139 0.58019,0.01 0.58019,-0.8662 0,-0.8579 -0.38249,0 -0.42393,-0.2189 -0.42393,-0.4324 0.003,-0.2421 -0.19349,-0.4394 -0.43565,-0.4356 z" id="path7659" inkscape:connector-curvature="0" sodipodi:nodetypes="cccccccccc"/>
      <path style="color:#000000;font-style:normal;font-variant:normal;font-weight:normal;font-stretch:normal;font-size:medium;line-height:normal;font-family:sans-serif;text-indent:0;text-align:start;text-decoration:none;text-decoration-line:none;letter-spacing:normal;word-spacing:normal;text-transform:none;direction:ltr;block-progression:tb;writing-mode:lr-tb;baseline-shift:baseline;text-anchor:start;display:inline;overflow:visible;visibility:visible;fill:#f05542;fill-opacity:1;fill-rule:evenodd;stroke:none;enable-background:accumulate" d="m 14.97711,1022.4214 c -0.13007,0 -0.23387,0.1091 -0.23183,0.2392 0,0.1632 -0.0698,0.2373 -0.23181,0.2373 -0.31853,0 -0.31853,0.4755 0,0.471 0.15602,0 0.23181,0.043 0.23181,0.2272 -0.005,0.3185 0.47551,0.3185 0.471,0 0,-0.1671 0.0782,-0.2272 0.23274,-0.2272 0.31853,0 0.31853,-0.4756 0,-0.471 -0.20999,0 -0.23274,-0.1201 -0.23274,-0.2373 0.002,-0.133 -0.10623,-0.2413 -0.23917,-0.2392 z" id="path7661" inkscape:connector-curvature="0" sodipodi:nodetypes="cccccccccc"/>
      <path style="color:#000000;font-style:normal;font-variant:normal;font-weight:normal;font-stretch:normal;font-size:medium;line-height:normal;font-family:sans-serif;text-indent:0;text-align:start;text-decoration:none;text-decoration-line:none;letter-spacing:normal;word-spacing:normal;text-transform:none;direction:ltr;block-progression:tb;writing-mode:lr-tb;baseline-shift:baseline;text-anchor:start;display:inline;overflow:visible;visibility:visible;fill:#2b4255;fill-opacity:1;fill-rule:evenodd;stroke:none;enable-background:accumulate" d="m 12.43557,1004.1383 c -0.17262,0 -0.31037,0.1448 -0.30767,0.3174 0,0.2167 -0.0926,0.315 -0.30765,0.315 -0.42273,-0.01 -0.42273,0.6311 0,0.6251 0.20707,0 0.30765,0.057 0.30765,0.3016 -0.006,0.4226 0.63107,0.4226 0.62509,0 0,-0.2218 0.10377,-0.3016 0.30888,-0.3016 0.42273,0.01 0.42273,-0.6311 0,-0.6251 -0.27869,0 -0.30888,-0.1594 -0.30888,-0.315 0.002,-0.1764 -0.14098,-0.3202 -0.31742,-0.3174 z" id="path7663" inkscape:connector-curvature="0" sodipodi:nodetypes="cccccccccc"/>
      <path style="color:#000000;font-style:normal;font-variant:normal;font-weight:normal;font-stretch:normal;font-size:medium;line-height:normal;font-family:sans-serif;text-indent:0;text-align:start;text-decoration:none;text-decoration-line:none;letter-spacing:normal;word-spacing:normal;text-transform:none;direction:ltr;block-progression:tb;writing-mode:lr-tb;baseline-shift:baseline;text-anchor:start;display:inline;overflow:visible;visibility:visible;fill:#f05542;fill-opacity:1;fill-rule:evenodd;stroke:none;enable-background:accumulate" d="m 40.88714,999.14727 c -0.13007,0.002 -0.23387,0.10912 -0.23183,0.23918 0,0.16329 -0.0698,0.23734 -0.23182,0.23734 -0.31852,-0.005 -0.31852,0.47551 0,0.47101 0.15603,0 0.23182,0.043 0.23182,0.2272 -0.005,0.3185 0.47551,0.3185 0.471,0 0,-0.1671 0.0782,-0.2272 0.23274,-0.2272 0.31853,0 0.31853,-0.47556 0,-0.47101 -0.20999,0 -0.23274,-0.12014 -0.23274,-0.23734 0.002,-0.13294 -0.10623,-0.24126 -0.23917,-0.23918 z" id="path7665" inkscape:connector-curvature="0" sodipodi:nodetypes="cccccccccc"/>
      <path style="color:#000000;font-style:normal;font-variant:normal;font-weight:normal;font-stretch:normal;font-size:medium;line-height:normal;font-family:sans-serif;text-indent:0;text-align:start;text-decoration:none;text-decoration-line:none;letter-spacing:normal;word-spacing:normal;text-transform:none;direction:ltr;block-progression:tb;writing-mode:lr-tb;baseline-shift:baseline;text-anchor:start;display:inline;overflow:visible;visibility:visible;fill:#2b4255;fill-opacity:1;fill-rule:evenodd;stroke:none;enable-background:accumulate" d="m 34.49807,1002.5133 c -0.17262,0 -0.31037,0.1448 -0.30767,0.3174 0,0.2167 -0.0926,0.315 -0.30765,0.315 -0.42273,-0.01 -0.42273,0.6311 0,0.6251 0.20707,0 0.30765,0.057 0.30765,0.3016 -0.006,0.4226 0.63107,0.4226 0.62509,0 0,-0.2218 0.10377,-0.3016 0.30888,-0.3016 0.42273,0.01 0.42273,-0.6311 0,-0.6251 -0.27869,0 -0.30888,-0.1594 -0.30888,-0.315 0.002,-0.1764 -0.14098,-0.3202 -0.31742,-0.3174 z" id="path7667" inkscape:connector-curvature="0" sodipodi:nodetypes="cccccccccc"/>
      <path style="color:#000000;font-style:normal;font-variant:normal;font-weight:normal;font-stretch:normal;font-size:medium;line-height:normal;font-family:sans-serif;text-indent:0;text-align:start;text-decoration:none;text-decoration-line:none;letter-spacing:normal;word-spacing:normal;text-transform:none;direction:ltr;block-progression:tb;writing-mode:lr-tb;baseline-shift:baseline;text-anchor:start;display:inline;overflow:visible;visibility:visible;fill:#f05542;fill-opacity:1;fill-rule:evenodd;stroke:none;enable-background:accumulate" d="m 45.23729,1014.795 c -0.13007,0 -0.23386,0.1092 -0.23183,0.2392 0,0.1633 -0.0698,0.2374 -0.23181,0.2374 -0.31853,0 -0.31853,0.4755 0,0.471 0.15603,0 0.23181,0.043 0.23181,0.2272 -0.005,0.3185 0.47551,0.3185 0.471,0 0,-0.1671 0.0782,-0.2272 0.23274,-0.2272 0.31853,0 0.31853,-0.4756 0,-0.471 -0.20999,0 -0.23274,-0.1202 -0.23274,-0.2374 0.002,-0.1329 -0.10622,-0.2412 -0.23917,-0.2392 z" id="path7669" inkscape:connector-curvature="0" sodipodi:nodetypes="cccccccccc"/>
      <path style="color:#000000;font-style:normal;font-variant:normal;font-weight:normal;font-stretch:normal;font-size:medium;line-height:normal;font-family:sans-serif;text-indent:0;text-align:start;text-decoration:none;text-decoration-line:none;letter-spacing:normal;word-spacing:normal;text-transform:none;direction:ltr;block-progression:tb;writing-mode:lr-tb;baseline-shift:baseline;text-anchor:start;display:inline;overflow:visible;visibility:visible;fill:#f05542;fill-opacity:1;fill-rule:evenodd;stroke:none;enable-background:accumulate" d="m 51.63315,1022.5823 c -0.23692,0 -0.42597,0.1987 -0.42227,0.4356 0,0.2975 -0.12709,0.4323 -0.42224,0.4323 -0.58019,-0.01 -0.58019,0.8663 0,0.858 0.2842,0 0.42224,0.079 0.42224,0.4138 -0.008,0.5801 0.86613,0.5801 0.85792,0 0,-0.3043 0.14243,-0.4138 0.42394,-0.4138 0.58018,0.01 0.58018,-0.8662 0,-0.858 -0.3825,0 -0.42394,-0.2188 -0.42394,-0.4323 0.003,-0.2421 -0.19349,-0.4394 -0.43565,-0.4356 z" id="path7671" inkscape:connector-curvature="0" sodipodi:nodetypes="cccccccccc"/>
      <path style="color:#000000;font-style:normal;font-variant:normal;font-weight:normal;font-stretch:normal;font-size:medium;line-height:normal;font-family:sans-serif;text-indent:0;text-align:start;text-decoration:none;text-decoration-line:none;letter-spacing:normal;word-spacing:normal;text-transform:none;direction:ltr;block-progression:tb;writing-mode:lr-tb;baseline-shift:baseline;text-anchor:start;display:inline;overflow:visible;visibility:visible;fill:#2b4255;fill-opacity:1;fill-rule:evenodd;stroke:none;enable-background:accumulate" d="m 47.56057,1004.7633 c -0.17262,0 -0.31037,0.1448 -0.30767,0.3174 0,0.2167 -0.0926,0.315 -0.30765,0.315 -0.42273,-0.01 -0.42273,0.6311 0,0.6251 0.20707,0 0.30765,0.057 0.30765,0.3016 -0.006,0.4226 0.63107,0.4226 0.62509,0 0,-0.2218 0.10377,-0.3016 0.30888,-0.3016 0.42273,0.01 0.42273,-0.6311 0,-0.6251 -0.27869,0 -0.30888,-0.1594 -0.30888,-0.315 0.002,-0.1764 -0.14098,-0.3202 -0.31742,-0.3174 z" id="path7673" inkscape:connector-curvature="0" sodipodi:nodetypes="cccccccccc"/>
      <path style="color:#000000;font-style:normal;font-variant:normal;font-weight:normal;font-stretch:normal;font-size:medium;line-height:normal;font-family:sans-serif;text-indent:0;text-align:start;text-decoration:none;text-decoration-line:none;letter-spacing:normal;word-spacing:normal;text-transform:none;direction:ltr;block-progression:tb;writing-mode:lr-tb;baseline-shift:baseline;text-anchor:start;display:inline;overflow:visible;visibility:visible;fill:#f05542;fill-opacity:1;fill-rule:evenodd;stroke:none;enable-background:accumulate" d="m 26.74983,997.59546 c -0.13341,0.002 -0.23988,0.11192 -0.23779,0.24533 0,0.16748 -0.0716,0.24344 -0.23777,0.24344 -0.32672,-0.005 -0.32672,0.48778 0,0.48311 0.16003,0 0.23777,0.0443 0.23777,0.23306 -0.004,0.32666 0.48774,0.32666 0.48311,0 0,-0.17139 0.0803,-0.23306 0.23872,-0.23306 0.32672,0.005 0.32672,-0.48778 0,-0.48311 -0.21538,0 -0.23872,-0.12322 -0.23872,-0.24344 0.001,-0.13637 -0.10899,-0.24747 -0.24532,-0.24533 z" id="path7675" inkscape:connector-curvature="0" sodipodi:nodetypes="cccccccccc"/>
      <path inkscape:connector-curvature="0" id="path7892" d="m 38.763672,1026.8828 a 0.50005,0.50005 0 0 0 -0.22461,0.9336 l 2.107422,1.25 c -0.233388,0.053 -0.451338,0.1846 -0.68164,0.1816 -0.0012,0 -0.0027,10e-5 -0.0039,0 a 0.50005,0.50005 0 0 0 -0.002,0 c -0.321155,-0 -0.632786,-0.049 -0.929687,-0.1289 a 0.50005,0.50005 0 1 0 -0.259766,0.9649 c 0.376167,0.1017 0.770356,0.1595 1.177735,0.164 0.0022,10e-5 0.0037,-0 0.0059,-0 l 0,0 a 0.50005,0.50005 0 0 0 0.244141,-0.064 c 0.703556,-0.041 1.385297,-0.2152 1.943359,-0.5059 a 0.50005,0.50005 0 0 0 0.02539,-0.873 l -3.117188,-1.8477 a 0.50005,0.50005 0 0 0 -0.285156,-0.074 z" style="color:#000000;font-style:normal;font-variant:normal;font-weight:normal;font-stretch:normal;font-size:medium;line-height:normal;font-family:sans-serif;text-indent:0;text-align:start;text-decoration:none;text-decoration-line:none;text-decoration-style:solid;text-decoration-color:#000000;letter-spacing:normal;word-spacing:normal;text-transform:none;direction:ltr;block-progression:tb;writing-mode:lr-tb;baseline-shift:baseline;text-anchor:start;white-space:normal;clip-rule:nonzero;display:inline;overflow:visible;visibility:visible;opacity:1;isolation:auto;mix-blend-mode:normal;color-interpolation:sRGB;color-interpolation-filters:linearRGB;solid-color:#000000;solid-opacity:1;fill:#2b4255;fill-opacity:1;fill-rule:nonzero;stroke:none;stroke-width:1;stroke-linecap:round;stroke-linejoin:round;stroke-miterlimit:34.17825699;stroke-dasharray:none;stroke-dashoffset:0;stroke-opacity:1;color-rendering:auto;image-rendering:auto;shape-rendering:auto;text-rendering:auto;enable-background:accumulate"/>
      <path inkscape:connector-curvature="0" id="path7898" d="m 38.691406,1016.5039 a 0.50005,0.50005 0 1 0 0.160156,0.9863 c 1.781652,-0.2908 3.666415,0.017 5.337891,1.0078 0.977431,0.5796 1.782606,1.335 2.404297,2.2032 a 0.50005,0.50005 0 1 0 0.8125,-0.5821 c -0.700237,-0.9778 -1.609028,-1.8313 -2.707031,-2.4824 -1.877528,-1.1132 -4.00451,-1.4598 -6.007813,-1.1328 z m 9.273438,5.1582 a 0.50005,0.50005 0 0 0 -0.460938,0.6934 c 0.10433,0.2584 0.194621,0.5235 0.271485,0.791 a 0.50008766,0.50008766 0 1 0 0.960937,-0.2774 c -0.08644,-0.3007 -0.187409,-0.5961 -0.304687,-0.8867 a 0.50005,0.50005 0 0 0 -0.466797,-0.3203 z m 0.597656,2.9356 a 0.50005,0.50005 0 0 0 -0.476562,0.5234 c 0.04541,1.469 -0.311753,2.9658 -1.117188,4.3242 -1.717345,2.8965 -4.954806,4.2882 -8.074219,3.7969 a 0.50028766,0.50028766 0 1 0 -0.15625,0.9883 c 3.512426,0.5532 7.162679,-1.0251 9.089844,-4.2754 0.903925,-1.5246 1.306927,-3.2131 1.255859,-4.8653 a 0.50005,0.50005 0 0 0 -0.521484,-0.4921 z" style="color:#000000;font-style:normal;font-variant:normal;font-weight:normal;font-stretch:normal;font-size:medium;line-height:normal;font-family:sans-serif;text-indent:0;text-align:start;text-decoration:none;text-decoration-line:none;text-decoration-style:solid;text-decoration-color:#000000;letter-spacing:normal;word-spacing:normal;text-transform:none;direction:ltr;block-progression:tb;writing-mode:lr-tb;baseline-shift:baseline;text-anchor:start;white-space:normal;clip-rule:nonzero;display:inline;overflow:visible;visibility:visible;opacity:1;isolation:auto;mix-blend-mode:normal;color-interpolation:sRGB;color-interpolation-filters:linearRGB;solid-color:#000000;solid-opacity:1;fill:#2b4255;fill-opacity:1;fill-rule:nonzero;stroke:none;stroke-width:1;stroke-linecap:round;stroke-linejoin:round;stroke-miterlimit:10;stroke-dasharray:none;stroke-dashoffset:0;stroke-opacity:1;color-rendering:auto;image-rendering:auto;shape-rendering:auto;text-rendering:auto;enable-background:accumulate"/>
      <path inkscape:connector-curvature="0" id="circle7900" d="m 44.36412,1023.1328 c 0.707495,0.4194 0.944747,1.3477 0.52527,2.0552 -0.419472,0.7075 -1.347764,0.9448 -2.05526,0.5253 -0.707503,-0.4195 -0.944742,-1.3478 -0.52527,-2.0553 0.419478,-0.7075 1.347756,-0.9447 2.05526,-0.5252 z m -0.509997,0.8602 c -0.24263,-0.1439 -0.541231,-0.068 -0.685086,0.175 -0.14385,0.2427 -0.06754,0.5413 0.17509,0.6851 0.242621,0.1439 0.541237,0.068 0.685086,-0.1751 0.143855,-0.2426 0.06753,-0.5412 -0.17509,-0.685 z" style="color:#000000;font-style:normal;font-variant:normal;font-weight:normal;font-stretch:normal;font-size:medium;line-height:normal;font-family:sans-serif;text-indent:0;text-align:start;text-decoration:none;text-decoration-line:none;text-decoration-style:solid;text-decoration-color:#000000;letter-spacing:normal;word-spacing:normal;text-transform:none;direction:ltr;block-progression:tb;writing-mode:lr-tb;baseline-shift:baseline;text-anchor:start;white-space:normal;clip-rule:nonzero;display:inline;overflow:visible;visibility:visible;opacity:1;isolation:auto;mix-blend-mode:normal;color-interpolation:sRGB;color-interpolation-filters:linearRGB;solid-color:#000000;solid-opacity:1;fill:#2b4255;fill-opacity:1;fill-rule:nonzero;stroke:none;stroke-width:1;stroke-linecap:round;stroke-linejoin:round;stroke-miterlimit:4;stroke-dasharray:none;stroke-dashoffset:0;stroke-opacity:1;color-rendering:auto;image-rendering:auto;shape-rendering:auto;text-rendering:auto;enable-background:accumulate"/>
      <path inkscape:connector-curvature="0" id="circle7902" d="m 38.796875,1020.459 a 0.5006667,0.5006667 0 1 0 0.335937,0.9433 c 0.13537,-0.048 0.28614,-0.039 0.421876,0.041 0.242548,0.1437 0.317635,0.443 0.173828,0.6855 -0.143862,0.2427 -0.440981,0.3177 -0.683594,0.1738 a 0.50096564,0.50096564 0 1 0 -0.511719,0.8614 c 0.707505,0.4195 1.637182,0.1821 2.056641,-0.5254 0.419514,-0.7075 0.182178,-1.6372 -0.525391,-2.0567 -0.395542,-0.2345 -0.862988,-0.2669 -1.267578,-0.123 z" style="color:#000000;font-style:normal;font-variant:normal;font-weight:normal;font-stretch:normal;font-size:medium;line-height:normal;font-family:sans-serif;text-indent:0;text-align:start;text-decoration:none;text-decoration-line:none;text-decoration-style:solid;text-decoration-color:#000000;letter-spacing:normal;word-spacing:normal;text-transform:none;direction:ltr;block-progression:tb;writing-mode:lr-tb;baseline-shift:baseline;text-anchor:start;white-space:normal;clip-rule:nonzero;display:inline;overflow:visible;visibility:visible;opacity:1;isolation:auto;mix-blend-mode:normal;color-interpolation:sRGB;color-interpolation-filters:linearRGB;solid-color:#000000;solid-opacity:1;fill:#2b4255;fill-opacity:1;fill-rule:nonzero;stroke:none;stroke-width:1;stroke-linecap:round;stroke-linejoin:round;stroke-miterlimit:4;stroke-dasharray:none;stroke-dashoffset:0;stroke-opacity:1;color-rendering:auto;image-rendering:auto;shape-rendering:auto;text-rendering:auto;enable-background:accumulate"/>
      <path inkscape:connector-curvature="0" id="rect11367" d="m 26.603516,1013.3613 a 0.50005,0.50005 0 0 0 -0.5,0.5 l 0,16 a 0.50005,0.50005 0 0 0 0.5,0.5 l 10,0 a 0.50005,0.50005 0 0 0 0.5,-0.5 l 0,-16 a 0.50005,0.50005 0 0 0 -0.5,-0.5 l -10,0 z m 0.5,1 9,0 0,15 -9,0 0,-15 z" style="color:#000000;font-style:normal;font-variant:normal;font-weight:normal;font-stretch:normal;font-size:medium;line-height:normal;font-family:sans-serif;text-indent:0;text-align:start;text-decoration:none;text-decoration-line:none;text-decoration-style:solid;text-decoration-color:#000000;letter-spacing:normal;word-spacing:normal;text-transform:none;direction:ltr;block-progression:tb;writing-mode:lr-tb;baseline-shift:baseline;text-anchor:start;white-space:normal;clip-rule:nonzero;display:inline;overflow:visible;visibility:visible;opacity:1;isolation:auto;mix-blend-mode:normal;color-interpolation:sRGB;color-interpolation-filters:linearRGB;solid-color:#000000;solid-opacity:1;fill:#2b4255;fill-opacity:1;fill-rule:nonzero;stroke:none;stroke-width:1;stroke-linecap:round;stroke-linejoin:round;stroke-miterlimit:4;stroke-dasharray:none;stroke-dashoffset:0;stroke-opacity:1;color-rendering:auto;image-rendering:auto;shape-rendering:auto;text-rendering:auto;enable-background:accumulate"/>
      <path inkscape:connector-curvature="0" id="path11379" d="m 33.074219,1011.3516 -2.94336,0.01 a 0.50004997,0.50004997 0 1 0 0.002,1 l 2.94336,-0.01 a 0.50004997,0.50004997 0 1 0 -0.002,-1 z" style="color:#000000;font-style:normal;font-variant:normal;font-weight:normal;font-stretch:normal;font-size:medium;line-height:normal;font-family:sans-serif;text-indent:0;text-align:start;text-decoration:none;text-decoration-line:none;text-decoration-style:solid;text-decoration-color:#000000;letter-spacing:normal;word-spacing:normal;text-transform:none;direction:ltr;block-progression:tb;writing-mode:lr-tb;baseline-shift:baseline;text-anchor:start;white-space:normal;clip-rule:nonzero;display:inline;overflow:visible;visibility:visible;opacity:1;isolation:auto;mix-blend-mode:normal;color-interpolation:sRGB;color-interpolation-filters:linearRGB;solid-color:#000000;solid-opacity:1;fill:#2b4255;fill-opacity:1;fill-rule:nonzero;stroke:none;stroke-width:0.99999994;stroke-linecap:round;stroke-linejoin:round;stroke-miterlimit:4;stroke-dasharray:none;stroke-dashoffset:0;stroke-opacity:1;color-rendering:auto;image-rendering:auto;shape-rendering:auto;text-rendering:auto;enable-background:accumulate"/>
      <path id="path11381" d="m 27.103485,1011.8622 a 0.49998504,0.5 0 0 1 -0.499985,0.5 0.49998504,0.5 0 0 1 -0.499985,-0.5 0.49998504,0.5 0 0 1 0.499985,-0.5 0.49998504,0.5 0 0 1 0.499985,0.5 z" style="fill:#2b4255;fill-opacity:1;stroke:none;stroke-opacity:1"/>
      <path inkscape:connector-curvature="0" id="path11383" d="m 31.603516,1031.1348 c -0.882344,0 -1.603526,0.7303 -1.603516,1.6132 -10e-6,0.883 0.721172,1.6133 1.603516,1.6133 0.882344,0 1.603525,-0.7303 1.603515,-1.6133 10e-6,-0.8829 -0.721171,-1.6132 -1.603515,-1.6132 z m 0,1 c 0.337017,0 0.603519,0.2659 0.603515,0.6132 4e-6,0.3474 -0.266498,0.6133 -0.603515,0.6133 -0.337018,0 -0.60352,-0.2659 -0.603516,-0.6133 -4e-6,-0.3473 0.266498,-0.6132 0.603516,-0.6132 z" style="color:#000000;font-style:normal;font-variant:normal;font-weight:normal;font-stretch:normal;font-size:medium;line-height:normal;font-family:sans-serif;text-indent:0;text-align:start;text-decoration:none;text-decoration-line:none;text-decoration-style:solid;text-decoration-color:#000000;letter-spacing:normal;word-spacing:normal;text-transform:none;direction:ltr;block-progression:tb;writing-mode:lr-tb;baseline-shift:baseline;text-anchor:start;white-space:normal;clip-rule:nonzero;display:inline;overflow:visible;visibility:visible;opacity:1;isolation:auto;mix-blend-mode:normal;color-interpolation:sRGB;color-interpolation-filters:linearRGB;solid-color:#000000;solid-opacity:1;fill:#2b4255;fill-opacity:1;fill-rule:nonzero;stroke:none;stroke-width:1;stroke-linecap:round;stroke-linejoin:round;stroke-miterlimit:4;stroke-dasharray:none;stroke-dashoffset:0;stroke-opacity:1;color-rendering:auto;image-rendering:auto;shape-rendering:auto;text-rendering:auto;enable-background:accumulate"/>
      <path inkscape:connector-curvature="0" id="rect7703" d="m 25.716797,1009.3633 c -0.886946,0 -1.613281,0.7333 -1.613281,1.6211 l 0,9.3535 a 0.50005,0.50005 0 1 0 1,0 l 0,-9.3535 c 0,-0.3557 0.267826,-0.6211 0.613281,-0.6211 l 5.386719,0 a 0.50005,0.50005 0 1 0 0,-1 l -5.386719,0 z m 7.679687,0 a 0.50064429,0.50064429 0 1 0 0.05078,1 l 0.59375,0 a 0.50005,0.50005 0 1 0 0,-1 l -0.59375,0 a 0.50005,0.50005 0 0 0 -0.05078,0 z m 2.5,0 a 0.50064429,0.50064429 0 1 0 0.05078,1 l 1.542968,0 c 0.345599,0 0.613282,0.2654 0.613282,0.6211 l 0,23.7558 c 0,0.3557 -0.267683,0.6211 -0.613282,0.6211 l -11.773437,0 c -0.345455,0 -0.613281,-0.2654 -0.613281,-0.6211 l 0,-8.1523 a 0.50005,0.50005 0 1 0 -1,0 l 0,8.1523 c 0,0.8878 0.726335,1.6211 1.613281,1.6211 l 11.773437,0 c 0.887002,0 1.613282,-0.7334 1.613282,-1.6211 l 0,-23.7558 c 0,-0.8877 -0.72628,-1.6211 -1.613282,-1.6211 l -1.542968,0 a 0.50005,0.50005 0 0 0 -0.05078,0 z m -11.300781,12.5215 a 0.50005,0.50005 0 0 0 -0.492187,0.5078 l 0,1.0156 a 0.50005,0.50005 0 1 0 1,0 l 0,-1.0156 a 0.50005,0.50005 0 0 0 -0.507813,-0.5078 z" style="color:#000000;font-style:normal;font-variant:normal;font-weight:normal;font-stretch:normal;font-size:medium;line-height:normal;font-family:sans-serif;text-indent:0;text-align:start;text-decoration:none;text-decoration-line:none;text-decoration-style:solid;text-decoration-color:#000000;letter-spacing:normal;word-spacing:normal;text-transform:none;direction:ltr;block-progression:tb;writing-mode:lr-tb;baseline-shift:baseline;text-anchor:start;white-space:normal;clip-rule:nonzero;display:inline;overflow:visible;visibility:visible;opacity:1;isolation:auto;mix-blend-mode:normal;color-interpolation:sRGB;color-interpolation-filters:linearRGB;solid-color:#000000;solid-opacity:1;fill:#2b4255;fill-opacity:1;fill-rule:nonzero;stroke:none;stroke-width:1;stroke-linecap:round;stroke-linejoin:round;stroke-miterlimit:4;stroke-dasharray:none;stroke-dashoffset:0;stroke-opacity:1;color-rendering:auto;image-rendering:auto;shape-rendering:auto;text-rendering:auto;enable-background:accumulate"/>
      <path inkscape:connector-curvature="0" id="path9091-8" d="m 24.535156,1027.2031 a 0.50005,0.50005 0 0 0 -0.271484,0.074 l -4.197266,2.4883 a 0.50005,0.50005 0 0 0 0.02344,0.8731 c 0.55966,0.2915 1.245266,0.4657 1.951172,0.5058 a 0.50005,0.50005 0 0 0 0.238281,0.064 l 0,-0 c 0.0015,0 0.0024,0 0.0039,0 6.72e-4,0 0.0013,0 0.002,0 0.854603,-0.01 1.660767,-0.2486 2.347656,-0.6602 a 0.50056328,0.50056328 0 1 0 -0.513671,-0.8593 c -0.539047,0.3229 -1.169536,0.5118 -1.845703,0.5195 a 0.50005,0.50005 0 0 0 -0.002,0 c -0.231454,0 -0.450912,-0.1285 -0.685546,-0.1817 l 3.1875,-1.8906 a 0.50005,0.50005 0 0 0 -0.238282,-0.9336 z" style="color:#000000;font-style:normal;font-variant:normal;font-weight:normal;font-stretch:normal;font-size:medium;line-height:normal;font-family:sans-serif;text-indent:0;text-align:start;text-decoration:none;text-decoration-line:none;text-decoration-style:solid;text-decoration-color:#000000;letter-spacing:normal;word-spacing:normal;text-transform:none;direction:ltr;block-progression:tb;writing-mode:lr-tb;baseline-shift:baseline;text-anchor:start;white-space:normal;clip-rule:nonzero;display:inline;overflow:visible;visibility:visible;opacity:1;isolation:auto;mix-blend-mode:normal;color-interpolation:sRGB;color-interpolation-filters:linearRGB;solid-color:#000000;solid-opacity:1;fill:#2b4255;fill-opacity:1;fill-rule:nonzero;stroke:none;stroke-width:1;stroke-linecap:round;stroke-linejoin:round;stroke-miterlimit:34.17825699;stroke-dasharray:none;stroke-dashoffset:0;stroke-opacity:1;color-rendering:auto;image-rendering:auto;shape-rendering:auto;text-rendering:auto;enable-background:accumulate"/>
      <path inkscape:connector-curvature="0" id="path7837-5" d="m 21.078125,1017.4043 c -1.217689,0.1386 -2.425365,0.5296 -3.544922,1.1934 -1.098003,0.651 -2.008747,1.5045 -2.708984,2.4824 a 0.50051416,0.50051416 0 1 0 0.814453,0.582 c 0.621691,-0.8681 1.426866,-1.6236 2.404297,-2.2031 1.993357,-1.1819 4.289622,-1.3917 6.351562,-0.7735 a 0.50005,0.50005 0 1 0 0.28711,-0.957 c -1.158931,-0.3475 -2.385827,-0.4628 -3.603516,-0.3242 z m -6.826172,5.2187 a 0.50005,0.50005 0 0 0 -0.451172,0.3204 c -0.117294,0.2905 -0.218265,0.5861 -0.304687,0.8867 a 0.5000738,0.5000738 0 0 0 0.960937,0.2773 c 0.07688,-0.2674 0.167171,-0.5326 0.271485,-0.791 a 0.50005,0.50005 0 0 0 -0.476563,-0.6934 z m -0.595703,2.9356 a 0.50005,0.50005 0 0 0 -0.507812,0.4922 c -0.05107,1.6521 0.351967,3.3407 1.255859,4.8652 2.115386,3.5679 6.306605,5.1205 10.113281,4.0528 a 0.50005,0.50005 0 1 0 -0.269531,-0.9629 c -3.381246,0.9484 -7.099299,-0.4202 -8.984375,-3.5997 -0.805412,-1.3584 -1.162595,-2.8551 -1.117188,-4.3242 a 0.50005,0.50005 0 0 0 -0.490234,-0.5234 z" style="color:#000000;font-style:normal;font-variant:normal;font-weight:normal;font-stretch:normal;font-size:medium;line-height:normal;font-family:sans-serif;text-indent:0;text-align:start;text-decoration:none;text-decoration-line:none;text-decoration-style:solid;text-decoration-color:#000000;letter-spacing:normal;word-spacing:normal;text-transform:none;direction:ltr;block-progression:tb;writing-mode:lr-tb;baseline-shift:baseline;text-anchor:start;white-space:normal;clip-rule:nonzero;display:inline;overflow:visible;visibility:visible;opacity:1;isolation:auto;mix-blend-mode:normal;color-interpolation:sRGB;color-interpolation-filters:linearRGB;solid-color:#000000;solid-opacity:1;fill:#2b4255;fill-opacity:1;fill-rule:nonzero;stroke:none;stroke-width:1;stroke-linecap:round;stroke-linejoin:round;stroke-miterlimit:10;stroke-dasharray:none;stroke-dashoffset:0;stroke-opacity:1;color-rendering:auto;image-rendering:auto;shape-rendering:auto;text-rendering:auto;enable-background:accumulate"/>
      <path inkscape:connector-curvature="0" id="path7839-2" d="m 17.866587,1024.0942 c -0.707495,0.4195 -0.944742,1.3478 -0.52527,2.0553 0.419477,0.7075 1.347764,0.9447 2.05526,0.5252 0.707503,-0.4194 0.944747,-1.3477 0.52527,-2.0552 -0.419473,-0.7075 -1.347756,-0.9448 -2.05526,-0.5253 z m 0.509997,0.8602 c 0.24263,-0.1439 0.541236,-0.068 0.685086,0.1751 0.143855,0.2426 0.06754,0.5412 -0.17509,0.6851 -0.242621,0.1438 -0.541232,0.068 -0.685086,-0.1751 -0.14385,-0.2426 -0.06753,-0.5413 0.17509,-0.6851 z" style="color:#000000;font-style:normal;font-variant:normal;font-weight:normal;font-stretch:normal;font-size:medium;line-height:normal;font-family:sans-serif;text-indent:0;text-align:start;text-decoration:none;text-decoration-line:none;text-decoration-style:solid;text-decoration-color:#000000;letter-spacing:normal;word-spacing:normal;text-transform:none;direction:ltr;block-progression:tb;writing-mode:lr-tb;baseline-shift:baseline;text-anchor:start;white-space:normal;clip-rule:nonzero;display:inline;overflow:visible;visibility:visible;opacity:1;isolation:auto;mix-blend-mode:normal;color-interpolation:sRGB;color-interpolation-filters:linearRGB;solid-color:#000000;solid-opacity:1;fill:#2b4255;fill-opacity:1;fill-rule:nonzero;stroke:none;stroke-width:1;stroke-linecap:round;stroke-linejoin:round;stroke-miterlimit:4;stroke-dasharray:none;stroke-dashoffset:0;stroke-opacity:1;color-rendering:auto;image-rendering:auto;shape-rendering:auto;text-rendering:auto;enable-background:accumulate"/>
      <path inkscape:connector-curvature="0" id="circle7841-9" d="m 22.16747,1021.5442 c -0.707496,0.4195 -0.944743,1.3478 -0.52527,2.0553 0.419477,0.7075 1.347764,0.9447 2.055259,0.5253 0.707504,-0.4195 0.944747,-1.3478 0.52527,-2.0553 -0.419472,-0.7075 -1.347756,-0.9447 -2.055259,-0.5253 z m 0.509996,0.8602 c 0.24263,-0.1438 0.541237,-0.067 0.685087,0.1751 0.143854,0.2426 0.06754,0.5412 -0.17509,0.6851 -0.242622,0.1438 -0.541232,0.067 -0.685087,-0.1751 -0.14385,-0.2426 -0.06753,-0.5412 0.17509,-0.6851 z" style="color:#000000;font-style:normal;font-variant:normal;font-weight:normal;font-stretch:normal;font-size:medium;line-height:normal;font-family:sans-serif;text-indent:0;text-align:start;text-decoration:none;text-decoration-line:none;text-decoration-style:solid;text-decoration-color:#000000;letter-spacing:normal;word-spacing:normal;text-transform:none;direction:ltr;block-progression:tb;writing-mode:lr-tb;baseline-shift:baseline;text-anchor:start;white-space:normal;clip-rule:nonzero;display:inline;overflow:visible;visibility:visible;opacity:1;isolation:auto;mix-blend-mode:normal;color-interpolation:sRGB;color-interpolation-filters:linearRGB;solid-color:#000000;solid-opacity:1;fill:#2b4255;fill-opacity:1;fill-rule:nonzero;stroke:none;stroke-width:1;stroke-linecap:round;stroke-linejoin:round;stroke-miterlimit:4;stroke-dasharray:none;stroke-dashoffset:0;stroke-opacity:1;color-rendering:auto;image-rendering:auto;shape-rendering:auto;text-rendering:auto;enable-background:accumulate"/>
    </g>
  </g>

	
	
	<metadata>
		<rdf:RDF xmlns:rdf="http://www.w3.org/1999/02/22-rdf-syntax-ns#" xmlns:rdfs="http://www.w3.org/2000/01/rdf-schema#" xmlns:dc="http://purl.org/dc/elements/1.1/">
			<rdf:Description about="https://iconscout.com/legal#licenses" dc:title="Mobile, Happy, Face, Emot, Cheerful, Cell, Phone" dc:description="Mobile, Happy, Face, Emot, Cheerful, Cell, Phone" dc:publisher="Iconscout" dc:date="2016-12-14" dc:format="image/svg+xml" dc:language="en">
				<dc:creator>
					<rdf:Bag>
						<rdf:li>Dalpat Prajapati</rdf:li>
					</rdf:Bag>
				</dc:creator>
			</rdf:Description>
		</rdf:RDF>
    </metadata></svg>
