<!-- <?xml version="1.0" encoding="UTF-8" standalone="no"?>
<svg xmlns:dc="http://purl.org/dc/elements/1.1/" xmlns:cc="http://creativecommons.org/ns#" xmlns:rdf="http://www.w3.org/1999/02/22-rdf-syntax-ns#" xmlns:svg="http://www.w3.org/2000/svg" xmlns="http://www.w3.org/2000/svg" xmlns:sodipodi="http://sodipodi.sourceforge.net/DTD/sodipodi-0.dtd" xmlns:inkscape="http://www.inkscape.org/namespaces/inkscape" width="64px" height="64px" viewBox="0 0 64.000001 64.000001" id="svg2" version="1.1" inkscape:version="0.91 r13725" sodipodi:docname="winner trophy cup prize award best first achievement.svg">
  <defs id="defs4">
    <pattern y="0" x="0" height="6" width="6" patternUnits="userSpaceOnUse" id="EMFhbasepattern"/>
  </defs>
  <sodipodi:namedview id="base" pagecolor="#ffffff" bordercolor="#666666" borderopacity="1.0" inkscape:pageopacity="0.0" inkscape:pageshadow="2" inkscape:zoom="2.8" inkscape:cx="-62.745734" inkscape:cy="18.359542" inkscape:document-units="px" inkscape:current-layer="layer1" showgrid="true" units="px" inkscape:window-width="1366" inkscape:window-height="705" inkscape:window-x="-8" inkscape:window-y="-8" inkscape:window-maximized="1" inkscape:snap-bbox="true" inkscape:bbox-paths="true" inkscape:bbox-nodes="true" inkscape:snap-bbox-midpoints="true" inkscape:snap-bbox-edge-midpoints="true">
    <inkscape:grid type="xygrid" id="grid3373"/>
  </sodipodi:namedview>

  <g inkscape:label="Layer 1" inkscape:groupmode="layer" id="layer1" transform="translate(0,-988.36216)">
    <g id="g3384">
      <path inkscape:connector-curvature="0" id="path7471" d="m 12.509766,1036.3613 a 0.50004997,0.50004997 0 1 0 0,1 l 39.980468,0 a 0.50004997,0.50004997 0 1 0 0,-1 l -39.980468,0 z" style="color:#000000;font-style:normal;font-variant:normal;font-weight:normal;font-stretch:normal;font-size:medium;line-height:normal;font-family:sans-serif;text-indent:0;text-align:start;text-decoration:none;text-decoration-line:none;text-decoration-style:solid;text-decoration-color:#000000;letter-spacing:normal;word-spacing:normal;text-transform:none;direction:ltr;block-progression:tb;writing-mode:lr-tb;baseline-shift:baseline;text-anchor:start;white-space:normal;clip-rule:nonzero;display:inline;overflow:visible;visibility:visible;opacity:1;isolation:auto;mix-blend-mode:normal;color-interpolation:sRGB;color-interpolation-filters:linearRGB;solid-color:#000000;solid-opacity:1;fill:#2b4255;fill-opacity:1;fill-rule:nonzero;stroke:none;stroke-width:0.99999994px;stroke-linecap:round;stroke-linejoin:round;stroke-miterlimit:4;stroke-dasharray:none;stroke-dashoffset:0;stroke-opacity:1;color-rendering:auto;image-rendering:auto;shape-rendering:auto;text-rendering:auto;enable-background:accumulate"/>
      <path inkscape:connector-curvature="0" id="path7473" d="m 55.494141,1036.3613 a 0.50005,0.50005 0 1 0 0,1 l 2.011718,0 a 0.50005,0.50005 0 1 0 0,-1 l -2.011718,0 z" style="color:#000000;font-style:normal;font-variant:normal;font-weight:normal;font-stretch:normal;font-size:medium;line-height:normal;font-family:sans-serif;text-indent:0;text-align:start;text-decoration:none;text-decoration-line:none;text-decoration-style:solid;text-decoration-color:#000000;letter-spacing:normal;word-spacing:normal;text-transform:none;direction:ltr;block-progression:tb;writing-mode:lr-tb;baseline-shift:baseline;text-anchor:start;white-space:normal;clip-rule:nonzero;display:inline;overflow:visible;visibility:visible;opacity:1;isolation:auto;mix-blend-mode:normal;color-interpolation:sRGB;color-interpolation-filters:linearRGB;solid-color:#000000;solid-opacity:1;fill:#2b4255;fill-opacity:1;fill-rule:nonzero;stroke:none;stroke-width:1px;stroke-linecap:round;stroke-linejoin:round;stroke-miterlimit:4;stroke-dasharray:none;stroke-dashoffset:0;stroke-opacity:1;color-rendering:auto;image-rendering:auto;shape-rendering:auto;text-rendering:auto;enable-background:accumulate"/>
      <path inkscape:connector-curvature="0" id="path7475" d="m 3.8066406,1036.3613 a 0.50005,0.50005 0 1 0 0,1 l 5.7050782,0 a 0.50005,0.50005 0 1 0 0,-1 l -5.7050782,0 z" style="color:#000000;font-style:normal;font-variant:normal;font-weight:normal;font-stretch:normal;font-size:medium;line-height:normal;font-family:sans-serif;text-indent:0;text-align:start;text-decoration:none;text-decoration-line:none;text-decoration-style:solid;text-decoration-color:#000000;letter-spacing:normal;word-spacing:normal;text-transform:none;direction:ltr;block-progression:tb;writing-mode:lr-tb;baseline-shift:baseline;text-anchor:start;white-space:normal;clip-rule:nonzero;display:inline;overflow:visible;visibility:visible;opacity:1;isolation:auto;mix-blend-mode:normal;color-interpolation:sRGB;color-interpolation-filters:linearRGB;solid-color:#000000;solid-opacity:1;fill:#2b4255;fill-opacity:1;fill-rule:nonzero;stroke:none;stroke-width:1px;stroke-linecap:round;stroke-linejoin:round;stroke-miterlimit:4;stroke-dasharray:none;stroke-dashoffset:0;stroke-opacity:1;color-rendering:auto;image-rendering:auto;shape-rendering:auto;text-rendering:auto;enable-background:accumulate"/>
      <path inkscape:connector-curvature="0" id="path7477" d="m 21.513672,1038.3613 a 0.50004997,0.50004997 0 1 0 0,1 l 19.972656,0 a 0.50004997,0.50004997 0 1 0 0,-1 l -19.972656,0 z" style="color:#000000;font-style:normal;font-variant:normal;font-weight:normal;font-stretch:normal;font-size:medium;line-height:normal;font-family:sans-serif;text-indent:0;text-align:start;text-decoration:none;text-decoration-line:none;text-decoration-style:solid;text-decoration-color:#000000;letter-spacing:normal;word-spacing:normal;text-transform:none;direction:ltr;block-progression:tb;writing-mode:lr-tb;baseline-shift:baseline;text-anchor:start;white-space:normal;clip-rule:nonzero;display:inline;overflow:visible;visibility:visible;opacity:1;isolation:auto;mix-blend-mode:normal;color-interpolation:sRGB;color-interpolation-filters:linearRGB;solid-color:#000000;solid-opacity:1;fill:#f05542;fill-opacity:1;fill-rule:evenodd;stroke:none;stroke-width:0.99999994px;stroke-linecap:round;stroke-linejoin:round;stroke-miterlimit:4;stroke-dasharray:none;stroke-dashoffset:0;stroke-opacity:1;color-rendering:auto;image-rendering:auto;shape-rendering:auto;text-rendering:auto;enable-background:accumulate"/>
      <path inkscape:connector-curvature="0" id="path7479" d="m 24.496094,1040.3613 a 0.50005,0.50005 0 1 0 0,1 l 5.019531,0 a 0.50005,0.50005 0 1 0 0,-1 l -5.019531,0 z" style="color:#000000;font-style:normal;font-variant:normal;font-weight:normal;font-stretch:normal;font-size:medium;line-height:normal;font-family:sans-serif;text-indent:0;text-align:start;text-decoration:none;text-decoration-line:none;text-decoration-style:solid;text-decoration-color:#000000;letter-spacing:normal;word-spacing:normal;text-transform:none;direction:ltr;block-progression:tb;writing-mode:lr-tb;baseline-shift:baseline;text-anchor:start;white-space:normal;clip-rule:nonzero;display:inline;overflow:visible;visibility:visible;opacity:1;isolation:auto;mix-blend-mode:normal;color-interpolation:sRGB;color-interpolation-filters:linearRGB;solid-color:#000000;solid-opacity:1;fill:#f05542;fill-opacity:1;fill-rule:evenodd;stroke:none;stroke-width:1px;stroke-linecap:round;stroke-linejoin:round;stroke-miterlimit:4;stroke-dasharray:none;stroke-dashoffset:0;stroke-opacity:1;color-rendering:auto;image-rendering:auto;shape-rendering:auto;text-rendering:auto;enable-background:accumulate"/>
      <path inkscape:connector-curvature="0" id="path7481" d="m 32.501953,1040.3613 a 0.50005,0.50005 0 1 0 0,1 l 6.996094,0 a 0.50005,0.50005 0 1 0 0,-1 l -6.996094,0 z" style="color:#000000;font-style:normal;font-variant:normal;font-weight:normal;font-stretch:normal;font-size:medium;line-height:normal;font-family:sans-serif;text-indent:0;text-align:start;text-decoration:none;text-decoration-line:none;text-decoration-style:solid;text-decoration-color:#000000;letter-spacing:normal;word-spacing:normal;text-transform:none;direction:ltr;block-progression:tb;writing-mode:lr-tb;baseline-shift:baseline;text-anchor:start;white-space:normal;clip-rule:nonzero;display:inline;overflow:visible;visibility:visible;opacity:1;isolation:auto;mix-blend-mode:normal;color-interpolation:sRGB;color-interpolation-filters:linearRGB;solid-color:#000000;solid-opacity:1;fill:#f05542;fill-opacity:1;fill-rule:evenodd;stroke:none;stroke-width:1px;stroke-linecap:round;stroke-linejoin:round;stroke-miterlimit:4;stroke-dasharray:none;stroke-dashoffset:0;stroke-opacity:1;color-rendering:auto;image-rendering:auto;shape-rendering:auto;text-rendering:auto;enable-background:accumulate"/>
      <path inkscape:connector-curvature="0" id="path7483" d="m 27.496094,1042.3613 a 0.50005,0.50005 0 1 0 0,1 l 5.007812,0 a 0.50005,0.50005 0 1 0 0,-1 l -5.007812,0 z" style="color:#000000;font-style:normal;font-variant:normal;font-weight:normal;font-stretch:normal;font-size:medium;line-height:normal;font-family:sans-serif;text-indent:0;text-align:start;text-decoration:none;text-decoration-line:none;text-decoration-style:solid;text-decoration-color:#000000;letter-spacing:normal;word-spacing:normal;text-transform:none;direction:ltr;block-progression:tb;writing-mode:lr-tb;baseline-shift:baseline;text-anchor:start;white-space:normal;clip-rule:nonzero;display:inline;overflow:visible;visibility:visible;opacity:1;isolation:auto;mix-blend-mode:normal;color-interpolation:sRGB;color-interpolation-filters:linearRGB;solid-color:#000000;solid-opacity:1;fill:#f05542;fill-opacity:1;fill-rule:evenodd;stroke:none;stroke-width:1px;stroke-linecap:round;stroke-linejoin:round;stroke-miterlimit:4;stroke-dasharray:none;stroke-dashoffset:0;stroke-opacity:1;color-rendering:auto;image-rendering:auto;shape-rendering:auto;text-rendering:auto;enable-background:accumulate"/>
      <path sodipodi:nodetypes="cccccccccc" inkscape:connector-curvature="0" id="path7485" d="m 21.096865,1003.8486 c -0.17262,0 -0.31037,0.1448 -0.30767,0.3174 0,0.2167 -0.0926,0.315 -0.30765,0.315 -0.42273,-0.01 -0.42273,0.6311 0,0.6251 0.20707,0 0.30765,0.057 0.30765,0.3015 -0.006,0.4227 0.63107,0.4227 0.62509,0 0,-0.2217 0.10377,-0.3015 0.30888,-0.3015 0.42273,0.01 0.42273,-0.6311 0,-0.6251 -0.27869,0 -0.30888,-0.1594 -0.30888,-0.315 0.002,-0.1764 -0.14098,-0.3202 -0.31742,-0.3174 z" style="color:#000000;font-style:normal;font-variant:normal;font-weight:normal;font-stretch:normal;font-size:medium;line-height:normal;font-family:sans-serif;text-indent:0;text-align:start;text-decoration:none;text-decoration-line:none;letter-spacing:normal;word-spacing:normal;text-transform:none;direction:ltr;block-progression:tb;writing-mode:lr-tb;baseline-shift:baseline;text-anchor:start;display:inline;overflow:visible;visibility:visible;fill:#f05542;fill-opacity:1;fill-rule:evenodd;stroke:none;enable-background:accumulate"/>
      <path sodipodi:nodetypes="cccccccccc" inkscape:connector-curvature="0" id="path7487" d="m 12.604785,1015.9554 c -0.23692,0 -0.42598,0.1987 -0.42227,0.4356 0,0.2975 -0.12709,0.4324 -0.42225,0.4324 -0.58018,-0.01 -0.58018,0.8662 0,0.8579 0.2842,0 0.42225,0.079 0.42225,0.4139 -0.008,0.58 0.86613,0.58 0.85792,0 0,-0.3044 0.14242,-0.4139 0.42393,-0.4139 0.58019,0.01 0.58019,-0.8662 0,-0.8579 -0.38249,0 -0.42393,-0.2189 -0.42393,-0.4324 0.003,-0.2421 -0.19349,-0.4394 -0.43565,-0.4356 z" style="color:#000000;font-style:normal;font-variant:normal;font-weight:normal;font-stretch:normal;font-size:medium;line-height:normal;font-family:sans-serif;text-indent:0;text-align:start;text-decoration:none;text-decoration-line:none;letter-spacing:normal;word-spacing:normal;text-transform:none;direction:ltr;block-progression:tb;writing-mode:lr-tb;baseline-shift:baseline;text-anchor:start;display:inline;overflow:visible;visibility:visible;fill:#2b4255;fill-opacity:1;fill-rule:evenodd;stroke:none;enable-background:accumulate"/>
      <path sodipodi:nodetypes="cccccccccc" inkscape:connector-curvature="0" id="path7489" d="m 14.897165,1022.9322 c -0.13007,0 -0.23387,0.1091 -0.23183,0.2392 0,0.1632 -0.0698,0.2373 -0.23181,0.2373 -0.31853,0 -0.31853,0.4755 0,0.471 0.15602,0 0.23181,0.043 0.23181,0.2272 -0.005,0.3185 0.47551,0.3185 0.471,0 0,-0.1671 0.0782,-0.2272 0.23274,-0.2272 0.31853,0 0.31853,-0.4756 0,-0.471 -0.20999,0 -0.23274,-0.1201 -0.23274,-0.2373 0.002,-0.133 -0.10623,-0.2413 -0.23917,-0.2392 z" style="color:#000000;font-style:normal;font-variant:normal;font-weight:normal;font-stretch:normal;font-size:medium;line-height:normal;font-family:sans-serif;text-indent:0;text-align:start;text-decoration:none;text-decoration-line:none;letter-spacing:normal;word-spacing:normal;text-transform:none;direction:ltr;block-progression:tb;writing-mode:lr-tb;baseline-shift:baseline;text-anchor:start;display:inline;overflow:visible;visibility:visible;fill:#2b4255;fill-opacity:1;fill-rule:evenodd;stroke:none;enable-background:accumulate"/>
      <path sodipodi:nodetypes="cccccccccc" inkscape:connector-curvature="0" id="path7491" d="m 12.355625,1004.6491 c -0.17262,0 -0.31037,0.1448 -0.30767,0.3174 0,0.2167 -0.0926,0.315 -0.30765,0.315 -0.42273,-0.01 -0.42273,0.6311 0,0.6251 0.20707,0 0.30765,0.057 0.30765,0.3016 -0.006,0.4226 0.63107,0.4226 0.62509,0 0,-0.2218 0.10377,-0.3016 0.30888,-0.3016 0.42273,0.01 0.42273,-0.6311 0,-0.6251 -0.27869,0 -0.30888,-0.1594 -0.30888,-0.315 0.002,-0.1764 -0.14098,-0.3202 -0.31742,-0.3174 z" style="color:#000000;font-style:normal;font-variant:normal;font-weight:normal;font-stretch:normal;font-size:medium;line-height:normal;font-family:sans-serif;text-indent:0;text-align:start;text-decoration:none;text-decoration-line:none;letter-spacing:normal;word-spacing:normal;text-transform:none;direction:ltr;block-progression:tb;writing-mode:lr-tb;baseline-shift:baseline;text-anchor:start;display:inline;overflow:visible;visibility:visible;fill:#f05542;fill-opacity:1;fill-rule:evenodd;stroke:none;enable-background:accumulate"/>
      <path sodipodi:nodetypes="cccccccccc" inkscape:connector-curvature="0" id="path7493" d="m 40.807195,999.65782 c -0.13007,0 -0.23387,0.1091 -0.23183,0.2391 0,0.16348 -0.0698,0.23758 -0.23182,0.23758 -0.31852,0 -0.31852,0.4755 0,0.471 0.15603,0 0.23182,0.043 0.23182,0.2272 -0.005,0.3185 0.47551,0.3185 0.471,0 0,-0.1671 0.0782,-0.2272 0.23274,-0.2272 0.31853,0 0.31853,-0.4756 0,-0.471 -0.20999,0 -0.23274,-0.1202 -0.23274,-0.23758 0.002,-0.1329 -0.10623,-0.2412 -0.23917,-0.2391 z" style="color:#000000;font-style:normal;font-variant:normal;font-weight:normal;font-stretch:normal;font-size:medium;line-height:normal;font-family:sans-serif;text-indent:0;text-align:start;text-decoration:none;text-decoration-line:none;letter-spacing:normal;word-spacing:normal;text-transform:none;direction:ltr;block-progression:tb;writing-mode:lr-tb;baseline-shift:baseline;text-anchor:start;display:inline;overflow:visible;visibility:visible;fill:#2b4255;fill-opacity:1;fill-rule:evenodd;stroke:none;enable-background:accumulate"/>
      <path sodipodi:nodetypes="cccccccccc" inkscape:connector-curvature="0" id="path7495" d="m 34.418125,1003.0241 c -0.17262,0 -0.31037,0.1448 -0.30767,0.3174 0,0.2167 -0.0926,0.315 -0.30765,0.315 -0.42273,-0.01 -0.42273,0.6311 0,0.6251 0.20707,0 0.30765,0.057 0.30765,0.3016 -0.006,0.4226 0.63107,0.4226 0.62509,0 0,-0.2218 0.10377,-0.3016 0.30888,-0.3016 0.42273,0.01 0.42273,-0.6311 0,-0.6251 -0.27869,0 -0.30888,-0.1594 -0.30888,-0.315 0.002,-0.1764 -0.14098,-0.3202 -0.31742,-0.3174 z" style="color:#000000;font-style:normal;font-variant:normal;font-weight:normal;font-stretch:normal;font-size:medium;line-height:normal;font-family:sans-serif;text-indent:0;text-align:start;text-decoration:none;text-decoration-line:none;letter-spacing:normal;word-spacing:normal;text-transform:none;direction:ltr;block-progression:tb;writing-mode:lr-tb;baseline-shift:baseline;text-anchor:start;display:inline;overflow:visible;visibility:visible;fill:#f05542;fill-opacity:1;fill-rule:evenodd;stroke:none;enable-background:accumulate"/>
      <path sodipodi:nodetypes="cccccccccc" inkscape:connector-curvature="0" id="path7497" d="m 45.157345,1015.3058 c -0.13007,0 -0.23386,0.1092 -0.23183,0.2392 0,0.1633 -0.0698,0.2374 -0.23181,0.2374 -0.31853,0 -0.31853,0.4755 0,0.471 0.15603,0 0.23181,0.043 0.23181,0.2272 -0.005,0.3185 0.47551,0.3185 0.471,0 0,-0.1671 0.0782,-0.2272 0.23274,-0.2272 0.31853,0 0.31853,-0.4756 0,-0.471 -0.20999,0 -0.23274,-0.1202 -0.23274,-0.2374 0.002,-0.1329 -0.10622,-0.2412 -0.23917,-0.2392 z" style="color:#000000;font-style:normal;font-variant:normal;font-weight:normal;font-stretch:normal;font-size:medium;line-height:normal;font-family:sans-serif;text-indent:0;text-align:start;text-decoration:none;text-decoration-line:none;letter-spacing:normal;word-spacing:normal;text-transform:none;direction:ltr;block-progression:tb;writing-mode:lr-tb;baseline-shift:baseline;text-anchor:start;display:inline;overflow:visible;visibility:visible;fill:#f05542;fill-opacity:1;fill-rule:evenodd;stroke:none;enable-background:accumulate"/>
      <path sodipodi:nodetypes="cccccccccc" inkscape:connector-curvature="0" id="path7499" d="m 51.553205,1023.0931 c -0.23692,0 -0.42597,0.1987 -0.42227,0.4356 0,0.2975 -0.12709,0.4323 -0.42224,0.4323 -0.58019,-0.01 -0.58019,0.8663 0,0.858 0.2842,0 0.42224,0.079 0.42224,0.4138 -0.008,0.5801 0.86613,0.5801 0.85792,0 0,-0.3043 0.14243,-0.4138 0.42394,-0.4138 0.58018,0.01 0.58018,-0.8662 0,-0.858 -0.3825,0 -0.42394,-0.2188 -0.42394,-0.4323 0.003,-0.2421 -0.19349,-0.4394 -0.43565,-0.4356 z" style="color:#000000;font-style:normal;font-variant:normal;font-weight:normal;font-stretch:normal;font-size:medium;line-height:normal;font-family:sans-serif;text-indent:0;text-align:start;text-decoration:none;text-decoration-line:none;letter-spacing:normal;word-spacing:normal;text-transform:none;direction:ltr;block-progression:tb;writing-mode:lr-tb;baseline-shift:baseline;text-anchor:start;display:inline;overflow:visible;visibility:visible;fill:#2b4255;fill-opacity:1;fill-rule:evenodd;stroke:none;enable-background:accumulate"/>
      <path sodipodi:nodetypes="cccccccccc" inkscape:connector-curvature="0" id="path7501" d="m 47.480625,1005.2741 c -0.17262,0 -0.31037,0.1448 -0.30767,0.3174 0,0.2167 -0.0926,0.315 -0.30765,0.315 -0.42273,-0.01 -0.42273,0.6311 0,0.6251 0.20707,0 0.30765,0.057 0.30765,0.3016 -0.006,0.4226 0.63107,0.4226 0.62509,0 0,-0.2218 0.10377,-0.3016 0.30888,-0.3016 0.42273,0.01 0.42273,-0.6311 0,-0.6251 -0.27869,0 -0.30888,-0.1594 -0.30888,-0.315 0.002,-0.1764 -0.14098,-0.3202 -0.31742,-0.3174 z" style="color:#000000;font-style:normal;font-variant:normal;font-weight:normal;font-stretch:normal;font-size:medium;line-height:normal;font-family:sans-serif;text-indent:0;text-align:start;text-decoration:none;text-decoration-line:none;letter-spacing:normal;word-spacing:normal;text-transform:none;direction:ltr;block-progression:tb;writing-mode:lr-tb;baseline-shift:baseline;text-anchor:start;display:inline;overflow:visible;visibility:visible;fill:#f05542;fill-opacity:1;fill-rule:evenodd;stroke:none;enable-background:accumulate"/>
      <path sodipodi:nodetypes="cccccccccc" inkscape:connector-curvature="0" id="path7503" d="m 26.669885,998.10599 c -0.13341,0.002 -0.23988,0.11192 -0.23779,0.24533 0,0.16748 -0.0716,0.24344 -0.23777,0.24344 -0.32672,-0.005 -0.32672,0.48776 0,0.48306 0.16003,0 0.23777,0.044 0.23777,0.2331 -0.004,0.3267 0.48774,0.3267 0.48311,0 0,-0.1714 0.0803,-0.2331 0.23872,-0.2331 0.32672,0 0.32672,-0.48773 0,-0.48306 -0.21538,0 -0.23872,-0.12322 -0.23872,-0.24344 0.001,-0.13637 -0.10899,-0.24747 -0.24532,-0.24533 z" style="color:#000000;font-style:normal;font-variant:normal;font-weight:normal;font-stretch:normal;font-size:medium;line-height:normal;font-family:sans-serif;text-indent:0;text-align:start;text-decoration:none;text-decoration-line:none;letter-spacing:normal;word-spacing:normal;text-transform:none;direction:ltr;block-progression:tb;writing-mode:lr-tb;baseline-shift:baseline;text-anchor:start;display:inline;overflow:visible;visibility:visible;fill:#2b4255;fill-opacity:1;fill-rule:evenodd;stroke:none;enable-background:accumulate"/>
      <path inkscape:connector-curvature="0" id="path9448" d="m 38.636719,1007.7246 a 0.50005,0.50005 0 1 0 0,1 l 5.382812,0 c -0.01692,0.5727 -0.0368,1.1413 -0.105469,1.6465 a 0.50065159,0.50065159 0 1 0 0.992188,0.1348 c 0.09608,-0.7069 0.146484,-1.4655 0.146484,-2.2813 a 0.50005,0.50005 0 0 0 -0.5,-0.5 l -5.916015,0 z m -0.201172,2.0332 a 0.50005,0.50005 0 1 0 0,1 l 2.996094,0 c -0.181144,1.7006 -0.889369,2.8933 -1.796875,3.6563 -1.009585,0.8488 -2.186256,1.2399 -2.732422,1.3632 a 0.50005,0.50005 0 1 0 0.220703,0.9747 c 0.677716,-0.153 1.974522,-0.5788 3.15625,-1.5723 1.181728,-0.9936 2.225546,-2.5861 2.273437,-4.9121 a 0.50005,0.50005 0 0 0 -0.5,-0.5098 l -3.617187,0 z m 5.628906,1.5117 a 0.50005,0.50005 0 0 0 -0.482422,0.4082 c -0.04679,0.2352 -0.09849,0.4642 -0.15625,0.6836 a 0.50005,0.50005 0 1 0 0.966797,0.2539 c 0.06304,-0.2395 0.119252,-0.4875 0.169922,-0.7422 a 0.50005,0.50005 0 0 0 -0.498047,-0.6035 z m -0.738281,2.209 a 0.50005,0.50005 0 0 0 -0.427734,0.2754 c -1.571117,3.0371 -4.459308,4.0269 -7.019532,4.0918 a 0.50016115,0.50016115 0 1 0 0.02539,1 c 2.806732,-0.071 6.120649,-1.2244 7.882812,-4.6309 a 0.50005,0.50005 0 0 0 -0.460937,-0.7363 z" style="color:#000000;font-style:normal;font-variant:normal;font-weight:normal;font-stretch:normal;font-size:medium;line-height:normal;font-family:sans-serif;text-indent:0;text-align:start;text-decoration:none;text-decoration-line:none;text-decoration-style:solid;text-decoration-color:#000000;letter-spacing:normal;word-spacing:normal;text-transform:none;direction:ltr;block-progression:tb;writing-mode:lr-tb;baseline-shift:baseline;text-anchor:start;white-space:normal;clip-rule:nonzero;display:inline;overflow:visible;visibility:visible;opacity:0.98999999;isolation:auto;mix-blend-mode:normal;color-interpolation:sRGB;color-interpolation-filters:linearRGB;solid-color:#000000;solid-opacity:1;fill:#2b4255;fill-opacity:1;fill-rule:evenodd;stroke:none;stroke-width:1px;stroke-linecap:round;stroke-linejoin:round;stroke-miterlimit:4;stroke-dasharray:none;stroke-dashoffset:0;stroke-opacity:1;color-rendering:auto;image-rendering:auto;shape-rendering:auto;text-rendering:auto;enable-background:accumulate"/>
      <path inkscape:connector-curvature="0" id="path9455" d="m 16.279297,1007.7246 a 0.50005,0.50005 0 0 0 -0.5,0.5 c 0,4.1042 1.30377,6.8042 3.162109,8.4375 1.858339,1.6333 4.216694,2.1875 6.275391,2.1875 a 0.50005,0.50005 0 1 0 0,-1 c -1.878803,0 -3.989199,-0.5083 -5.615235,-1.9375 -1.54077,-1.3542 -2.621401,-3.6468 -2.738281,-7.1875 l 5.580078,0 a 0.50005,0.50005 0 1 0 0,-1 l -6.164062,0 z m 2.5,2.0332 a 0.50005,0.50005 0 0 0 -0.5,0.5098 c 0.05237,2.5438 1.295899,4.2029 2.607422,5.1758 1.311523,0.9729 2.627404,1.3033 3.140625,1.3691 a 0.50014446,0.50014446 0 0 0 0.126953,-0.9922 c -0.254059,-0.033 -1.543568,-0.3427 -2.671875,-1.1797 -1.022266,-0.7583 -1.870224,-2.0097 -2.072266,-3.8828 l 3.009766,0 a 0.50005,0.50005 0 1 0 0,-1 l -3.640625,0 z" style="color:#000000;font-style:normal;font-variant:normal;font-weight:normal;font-stretch:normal;font-size:medium;line-height:normal;font-family:sans-serif;text-indent:0;text-align:start;text-decoration:none;text-decoration-line:none;text-decoration-style:solid;text-decoration-color:#000000;letter-spacing:normal;word-spacing:normal;text-transform:none;direction:ltr;block-progression:tb;writing-mode:lr-tb;baseline-shift:baseline;text-anchor:start;white-space:normal;clip-rule:nonzero;display:inline;overflow:visible;visibility:visible;opacity:0.98999999;isolation:auto;mix-blend-mode:normal;color-interpolation:sRGB;color-interpolation-filters:linearRGB;solid-color:#000000;solid-opacity:1;fill:#2b4255;fill-opacity:1;fill-rule:evenodd;stroke:none;stroke-width:1px;stroke-linecap:round;stroke-linejoin:round;stroke-miterlimit:4;stroke-dasharray:none;stroke-dashoffset:0;stroke-opacity:1;color-rendering:auto;image-rendering:auto;shape-rendering:auto;text-rendering:auto;enable-background:accumulate"/>
      <path inkscape:connector-curvature="0" id="rect9444" d="m 22.552734,1005.7246 a 0.50005,0.50005 0 0 0 -0.492187,0.4121 c 0,0 -0.323905,1.8838 0.263672,5.1602 a 0.50005,0.50005 0 1 0 0.982422,-0.1758 c -0.469948,-2.6205 -0.346101,-3.9357 -0.289063,-4.3965 l 15.029297,0 c 0.01705,0.639 0.06499,3.3154 -0.628906,6.4336 -0.390653,1.7555 -1.016374,3.5285 -1.972657,4.8984 -0.956282,1.37 -2.212146,2.3363 -3.966796,2.5938 a 0.50005,0.50005 0 0 0 -0.425782,0.4941 l 0,4.9942 a 0.50005,0.50005 0 1 0 1,0 l 0,-4.666 c 1.809492,-0.4023 3.228519,-1.4336 4.212891,-2.8438 1.069481,-1.5322 1.718623,-3.419 2.126953,-5.2539 0.81666,-3.6699 0.658203,-7.1719 0.658203,-7.1719 a 0.50005,0.50005 0 0 0 -0.498047,-0.4785 l -16,0 z m 0.5625,6.6973 a 0.50005,0.50005 0 0 0 -0.478515,0.6074 c 0.02262,0.1093 0.04387,0.18 0.05664,0.2187 0.01277,0.039 0.01265,0.036 0.0332,0.1231 a 0.50005,0.50005 0 1 0 0.972657,-0.2285 c -0.02608,-0.111 -0.0478,-0.1802 -0.05664,-0.2071 -0.0088,-0.027 -0.0091,-0.021 -0.02734,-0.1093 a 0.50005,0.50005 0 0 0 -0.5,-0.4043 z m 0.810547,2.7949 a 0.50005,0.50005 0 0 0 -0.480469,0.6816 c 0.977886,2.6288 2.731692,4.9693 5.607422,5.5996 l 0,1.6094 0,0.5938 0,2.2715 a 0.50005,0.50005 0 1 0 1,0 l 0,-2.2715 0,-0.5938 0,-1.9629 A 0.50005,0.50005 0 0 0 29.625,1020.6504 c -2.702704,-0.3966 -4.277719,-2.5089 -5.242188,-5.1016 a 0.50005,0.50005 0 0 0 -0.457031,-0.332 z" style="color:#000000;font-style:normal;font-variant:normal;font-weight:normal;font-stretch:normal;font-size:medium;line-height:normal;font-family:sans-serif;text-indent:0;text-align:start;text-decoration:none;text-decoration-line:none;text-decoration-style:solid;text-decoration-color:#000000;letter-spacing:normal;word-spacing:normal;text-transform:none;direction:ltr;block-progression:tb;writing-mode:lr-tb;baseline-shift:baseline;text-anchor:start;white-space:normal;clip-rule:nonzero;display:inline;overflow:visible;visibility:visible;opacity:1;isolation:auto;mix-blend-mode:normal;color-interpolation:sRGB;color-interpolation-filters:linearRGB;solid-color:#000000;solid-opacity:1;fill:#2b4255;fill-opacity:1;fill-rule:nonzero;stroke:none;stroke-width:1;stroke-linecap:round;stroke-linejoin:round;stroke-miterlimit:4;stroke-dasharray:none;stroke-dashoffset:0;stroke-opacity:1;color-rendering:auto;image-rendering:auto;shape-rendering:auto;text-rendering:auto;enable-background:accumulate"/>
      <path inkscape:connector-curvature="0" id="rect9457" d="m 28.332031,1025.7324 c -1.205092,0 -2.222656,0.9304 -2.222656,2.1094 a 0.50005,0.50005 0 1 0 1,0 c 0,-0.6048 0.519249,-1.1094 1.222656,-1.1094 l 4.498047,0 c 0.703407,0 1.222656,0.5046 1.222656,1.1094 a 0.50005,0.50005 0 1 0 1,0 c 0,-1.179 -1.017563,-2.1094 -2.222656,-2.1094 l -4.498047,0 z" style="color:#000000;font-style:normal;font-variant:normal;font-weight:normal;font-stretch:normal;font-size:medium;line-height:normal;font-family:sans-serif;text-indent:0;text-align:start;text-decoration:none;text-decoration-line:none;text-decoration-style:solid;text-decoration-color:#000000;letter-spacing:normal;word-spacing:normal;text-transform:none;direction:ltr;block-progression:tb;writing-mode:lr-tb;baseline-shift:baseline;text-anchor:start;white-space:normal;clip-rule:nonzero;display:inline;overflow:visible;visibility:visible;opacity:1;isolation:auto;mix-blend-mode:normal;color-interpolation:sRGB;color-interpolation-filters:linearRGB;solid-color:#000000;solid-opacity:1;fill:#2b4255;fill-opacity:1;fill-rule:nonzero;stroke:none;stroke-width:1;stroke-linecap:round;stroke-linejoin:round;stroke-miterlimit:4;stroke-dasharray:none;stroke-dashoffset:0;stroke-opacity:1;color-rendering:auto;image-rendering:auto;shape-rendering:auto;text-rendering:auto;enable-background:accumulate"/>
      <path inkscape:connector-curvature="0" id="rect6141-3" d="m 26.664062,1027.7246 c -1.930146,0 -3.5,1.5699 -3.5,3.5 a 0.50005,0.50005 0 1 0 1,0 c 0,-1.3934 1.106541,-2.5 2.5,-2.5 l 7.833985,0 c 1.39346,0 2.498047,1.1066 2.498047,2.5 a 0.50005,0.50005 0 1 0 1,0 c 0,-1.9301 -1.567901,-3.5 -3.498047,-3.5 l -7.833985,0 z" style="color:#000000;font-style:normal;font-variant:normal;font-weight:normal;font-stretch:normal;font-size:medium;line-height:normal;font-family:sans-serif;text-indent:0;text-align:start;text-decoration:none;text-decoration-line:none;text-decoration-style:solid;text-decoration-color:#000000;letter-spacing:normal;word-spacing:normal;text-transform:none;direction:ltr;block-progression:tb;writing-mode:lr-tb;baseline-shift:baseline;text-anchor:start;white-space:normal;clip-rule:nonzero;display:inline;overflow:visible;visibility:visible;opacity:1;isolation:auto;mix-blend-mode:normal;color-interpolation:sRGB;color-interpolation-filters:linearRGB;solid-color:#000000;solid-opacity:1;fill:#2b4255;fill-opacity:1;fill-rule:nonzero;stroke:none;stroke-width:1;stroke-linecap:round;stroke-linejoin:round;stroke-miterlimit:4;stroke-dasharray:none;stroke-dashoffset:0;stroke-opacity:1;color-rendering:auto;image-rendering:auto;shape-rendering:auto;text-rendering:auto;enable-background:accumulate"/>
      <path inkscape:connector-curvature="0" id="path6127-5" d="m 23.171875,1030.7324 c -1.124654,0 -2.125,0.7818 -2.125,1.8535 l 0,0.2325 c 0,0.029 -3.61e-4,-2e-4 0,0.01 a 0.50005,0.50005 0 0 0 0,0.016 l 0,3.3886 a 0.50005,0.50005 0 0 0 0.5,0.5 l 1.625,0 14.75,0 1.625,0 a 0.50005,0.50005 0 0 0 0.5,-0.5 l 0,-3.3886 a 0.50005,0.50005 0 0 0 0,-0.016 0.50005,0.50005 0 0 0 0,-0.01 l 0,-0.2325 c 0,-1.0717 -1.000346,-1.8535 -2.125,-1.8535 l -14.75,0 z m 0,1 14.75,0 c 0.678366,0 1.125,0.4253 1.125,0.8535 l 0,0.2325 c 0,-0.058 -7.46e-4,-0.052 -0.002,0.016 a 0.50005,0.50005 0 0 0 0.002,0.051 l 0,2.8476 -1.125,0 -14.75,0 -1.125,0 0,-2.8535 a 0.50005,0.50005 0 0 0 0.002,-0.035 c 0,-0.083 -0.002,-0.082 -0.002,-0.025 l 0,-0.2325 c 0,-0.4282 0.446634,-0.8535 1.125,-0.8535 z" style="color:#000000;font-style:normal;font-variant:normal;font-weight:normal;font-stretch:normal;font-size:medium;line-height:normal;font-family:sans-serif;text-indent:0;text-align:start;text-decoration:none;text-decoration-line:none;text-decoration-style:solid;text-decoration-color:#000000;letter-spacing:normal;word-spacing:normal;text-transform:none;direction:ltr;block-progression:tb;writing-mode:lr-tb;baseline-shift:baseline;text-anchor:start;white-space:normal;clip-rule:nonzero;display:inline;overflow:visible;visibility:visible;opacity:1;isolation:auto;mix-blend-mode:normal;color-interpolation:sRGB;color-interpolation-filters:linearRGB;solid-color:#000000;solid-opacity:1;fill:#2b4255;fill-opacity:1;fill-rule:nonzero;stroke:none;stroke-width:1;stroke-linecap:round;stroke-linejoin:round;stroke-miterlimit:4;stroke-dasharray:none;stroke-dashoffset:0;stroke-opacity:1;color-rendering:auto;image-rendering:auto;shape-rendering:auto;text-rendering:auto;enable-background:accumulate"/>
    </g>
  </g>



	<metadata>
		<rdf:RDF xmlns:rdf="http://www.w3.org/1999/02/22-rdf-syntax-ns#" xmlns:rdfs="http://www.w3.org/2000/01/rdf-schema#" xmlns:dc="http://purl.org/dc/elements/1.1/">
			<rdf:Description about="https://iconscout.com/legal#licenses" dc:title="Winner, Trophy, Cup, Prize, Award, Best, First, Achievement" dc:description="Winner, Trophy, Cup, Prize, Award, Best, First, Achievement" dc:publisher="Iconscout" dc:date="2016-12-14" dc:format="image/svg+xml" dc:language="en">
				<dc:creator>
					<rdf:Bag>
						<rdf:li>Dalpat Prajapati</rdf:li>
					</rdf:Bag>
				</dc:creator>
			</rdf:Description>
		</rdf:RDF>
    </metadata></svg>
 -->

<svg width="250" height="250" viewBox="0 0 332 332" fill="none" xmlns="http://www.w3.org/2000/svg">
<path d="M64.8946 248.996C64.5509 248.991 64.2097 249.055 63.8907 249.183C63.5718 249.311 63.2815 249.501 63.0367 249.742C62.7919 249.984 62.5976 250.271 62.4649 250.588C62.3322 250.906 62.2639 251.246 62.2639 251.59C62.2639 251.933 62.3322 252.274 62.4649 252.591C62.5976 252.908 62.7919 253.195 63.0367 253.437C63.2815 253.678 63.5718 253.868 63.8907 253.997C64.2097 254.125 64.5509 254.188 64.8946 254.183H272.293C272.637 254.188 272.978 254.125 273.297 253.997C273.616 253.868 273.906 253.678 274.151 253.437C274.396 253.195 274.59 252.908 274.723 252.591C274.856 252.274 274.924 251.933 274.924 251.59C274.924 251.246 274.856 250.906 274.723 250.588C274.59 250.271 274.396 249.984 274.151 249.742C273.906 249.501 273.616 249.311 273.297 249.183C272.978 249.055 272.637 248.991 272.293 248.996H64.8946Z" fill="#4C475A"/>
<path d="M287.876 248.996C287.532 248.991 287.191 249.055 286.872 249.183C286.553 249.311 286.263 249.501 286.018 249.742C285.773 249.984 285.579 250.271 285.446 250.588C285.314 250.906 285.245 251.246 285.245 251.59C285.245 251.933 285.314 252.274 285.446 252.591C285.579 252.908 285.773 253.195 286.018 253.437C286.263 253.678 286.553 253.868 286.872 253.997C287.191 254.125 287.532 254.188 287.876 254.183H298.312C298.656 254.188 298.997 254.125 299.316 253.997C299.635 253.868 299.925 253.678 300.17 253.437C300.414 253.195 300.609 252.908 300.742 252.591C300.874 252.274 300.943 251.933 300.943 251.59C300.943 251.246 300.874 250.906 300.742 250.588C300.609 250.271 300.414 249.984 300.17 249.742C299.925 249.501 299.635 249.311 299.316 249.183C298.997 249.055 298.656 248.991 298.312 248.996H287.876Z" fill="#4C475A"/>
<path d="M19.7471 248.996C19.4034 248.991 19.0622 249.055 18.7433 249.183C18.4243 249.311 18.134 249.501 17.8892 249.742C17.6445 249.984 17.4501 250.271 17.3174 250.588C17.1848 250.906 17.1165 251.246 17.1165 251.59C17.1165 251.933 17.1848 252.274 17.3174 252.591C17.4501 252.908 17.6445 253.195 17.8892 253.437C18.134 253.678 18.4243 253.868 18.7433 253.997C19.0622 254.125 19.4034 254.188 19.7471 254.183H49.3422C49.6859 254.188 50.0272 254.125 50.3461 253.997C50.6651 253.868 50.9554 253.678 51.2001 253.437C51.4449 253.195 51.6393 252.908 51.7719 252.591C51.9046 252.274 51.9729 251.933 51.9729 251.59C51.9729 251.246 51.9046 250.906 51.7719 250.588C51.6393 250.271 51.4449 249.984 51.2001 249.742C50.9554 249.501 50.6651 249.311 50.3461 249.183C50.0272 249.055 49.6859 248.991 49.3422 248.996H19.7471Z" fill="#4C475A"/>
<path fill-rule="evenodd" clip-rule="evenodd" d="M111.602 259.371C111.259 259.366 110.917 259.429 110.598 259.558C110.28 259.686 109.989 259.876 109.744 260.117C109.5 260.359 109.305 260.646 109.173 260.963C109.04 261.281 108.972 261.621 108.972 261.965C108.972 262.308 109.04 262.649 109.173 262.966C109.305 263.283 109.5 263.57 109.744 263.812C109.989 264.053 110.28 264.243 110.598 264.372C110.917 264.5 111.259 264.563 111.602 264.558H215.211C215.554 264.563 215.895 264.5 216.214 264.372C216.533 264.243 216.824 264.053 217.068 263.812C217.313 263.57 217.508 263.283 217.64 262.966C217.773 262.649 217.841 262.308 217.841 261.965C217.841 261.621 217.773 261.281 217.64 260.963C217.508 260.646 217.313 260.359 217.068 260.117C216.824 259.876 216.533 259.686 216.214 259.558C215.895 259.429 215.554 259.366 215.211 259.371H111.602Z" fill="#EC8600"/>
<path fill-rule="evenodd" clip-rule="evenodd" d="M127.074 269.746C126.73 269.741 126.389 269.804 126.07 269.933C125.751 270.061 125.461 270.251 125.216 270.492C124.971 270.734 124.777 271.021 124.644 271.338C124.511 271.656 124.443 271.996 124.443 272.34C124.443 272.683 124.511 273.024 124.644 273.341C124.777 273.658 124.971 273.945 125.216 274.187C125.461 274.428 125.751 274.618 126.07 274.747C126.389 274.875 126.73 274.938 127.074 274.933H153.112C153.456 274.938 153.797 274.875 154.116 274.747C154.435 274.618 154.726 274.428 154.97 274.187C155.215 273.945 155.41 273.658 155.542 273.341C155.675 273.024 155.743 272.683 155.743 272.34C155.743 271.996 155.675 271.656 155.542 271.338C155.41 271.021 155.215 270.734 154.97 270.492C154.726 270.251 154.435 270.061 154.116 269.933C153.797 269.804 153.456 269.741 153.112 269.746H127.074Z" fill="#EC8600"/>
<path fill-rule="evenodd" clip-rule="evenodd" d="M168.604 269.746C168.26 269.741 167.919 269.804 167.6 269.933C167.281 270.061 166.991 270.251 166.746 270.492C166.501 270.734 166.307 271.021 166.174 271.338C166.042 271.656 165.973 271.996 165.973 272.34C165.973 272.683 166.042 273.024 166.174 273.341C166.307 273.658 166.501 273.945 166.746 274.187C166.991 274.428 167.281 274.618 167.6 274.747C167.919 274.875 168.26 274.938 168.604 274.933H204.896C205.24 274.938 205.581 274.875 205.9 274.747C206.219 274.618 206.509 274.428 206.754 274.187C206.999 273.945 207.193 273.658 207.326 273.341C207.459 273.024 207.527 272.683 207.527 272.34C207.527 271.996 207.459 271.656 207.326 271.338C207.193 271.021 206.999 270.734 206.754 270.492C206.509 270.251 206.219 270.061 205.9 269.933C205.581 269.804 205.24 269.741 204.896 269.746H168.604Z" fill="#EC8600"/>
<path fill-rule="evenodd" clip-rule="evenodd" d="M142.636 280.121C142.292 280.116 141.951 280.179 141.632 280.308C141.313 280.436 141.023 280.626 140.778 280.867C140.534 281.109 140.339 281.396 140.206 281.713C140.074 282.031 140.005 282.371 140.005 282.715C140.005 283.058 140.074 283.399 140.206 283.716C140.339 284.033 140.534 284.32 140.778 284.562C141.023 284.803 141.313 284.993 141.632 285.122C141.951 285.25 142.292 285.313 142.636 285.308H168.614C168.958 285.313 169.299 285.25 169.618 285.122C169.937 284.993 170.227 284.803 170.472 284.562C170.717 284.32 170.911 284.033 171.044 283.716C171.177 283.399 171.245 283.058 171.245 282.715C171.245 282.371 171.177 282.031 171.044 281.713C170.911 281.396 170.717 281.109 170.472 280.867C170.227 280.626 169.937 280.436 169.618 280.308C169.299 280.179 168.958 280.116 168.614 280.121H142.636Z" fill="#EC8600"/>
<path fill-rule="evenodd" clip-rule="evenodd" d="M109.44 80.3355C108.545 80.3355 107.83 81.0869 107.844 81.9823C107.844 83.1064 107.364 83.6164 106.248 83.6164C104.055 83.5645 104.055 86.89 106.248 86.8589C107.322 86.8589 107.844 87.1546 107.844 88.423C107.813 90.6157 111.118 90.6157 111.087 88.423C111.087 87.2729 111.625 86.8589 112.689 86.8589C114.882 86.9107 114.882 83.5852 112.689 83.6164C111.243 83.6164 111.087 82.7895 111.087 81.9823C111.097 81.0672 110.355 80.321 109.44 80.3355Z" fill="#EC8600"/>
<path fill-rule="evenodd" clip-rule="evenodd" d="M65.3876 143.14C64.1586 143.14 63.1778 144.17 63.1971 145.399C63.1971 146.943 62.5378 147.643 61.0067 147.643C57.997 147.591 57.997 152.136 61.0067 152.093C62.4809 152.093 63.1971 152.503 63.1971 154.24C63.1556 157.249 67.6901 157.249 67.6475 154.24C67.6475 152.661 68.3863 152.093 69.8467 152.093C72.8564 152.145 72.8564 147.6 69.8467 147.643C67.8625 147.643 67.6475 146.507 67.6475 145.399C67.6631 144.144 66.6438 143.12 65.3876 143.14Z" fill="#4C475A"/>
<path fill-rule="evenodd" clip-rule="evenodd" d="M77.2794 179.332C76.6047 179.332 76.0662 179.898 76.0768 180.573C76.0768 181.419 75.7147 181.804 74.8743 181.804C73.2219 181.804 73.2219 184.271 74.8743 184.247C75.6836 184.247 76.0768 184.471 76.0768 185.426C76.0509 187.078 78.5435 187.078 78.5201 185.426C78.5201 184.559 78.9258 184.247 79.7274 184.247C81.3798 184.247 81.3798 181.78 79.7274 181.804C78.6381 181.804 78.5201 181.181 78.5201 180.573C78.5305 179.883 77.969 179.321 77.2794 179.332Z" fill="#4C475A"/>
<path fill-rule="evenodd" clip-rule="evenodd" d="M64.0952 84.4883C63.1997 84.4883 62.4852 85.2394 62.4992 86.1347C62.4992 87.2589 62.0188 87.7688 60.9032 87.7688C58.7103 87.7169 58.7103 91.0428 60.9032 91.0116C61.9774 91.0116 62.4992 91.3072 62.4992 92.576C62.468 94.7683 65.7728 94.7683 65.7418 92.576C65.7418 91.4255 66.2801 91.0116 67.3441 91.0116C69.537 91.0635 69.537 87.7377 67.3441 87.7688C65.8984 87.7688 65.7418 86.9419 65.7418 86.1347C65.7522 85.2197 65.0105 84.4738 64.0952 84.4883Z" fill="#EC8600"/>
<path fill-rule="evenodd" clip-rule="evenodd" d="M211.688 58.5963C211.013 58.5963 210.474 59.1622 210.485 59.8365C210.485 60.6846 210.123 61.0691 209.282 61.0691C207.63 61.0691 207.63 63.5358 209.282 63.5125C210.092 63.5125 210.485 63.7354 210.485 64.691C210.459 66.3432 212.952 66.3432 212.928 64.691C212.928 63.8241 213.334 63.5125 214.136 63.5125C215.788 63.5125 215.788 61.0453 214.136 61.0691C213.046 61.0691 212.928 60.4455 212.928 59.8365C212.939 59.1471 212.377 58.5855 211.688 58.5963Z" fill="#4C475A"/>
<path fill-rule="evenodd" clip-rule="evenodd" d="M178.544 76.0586C177.649 76.0586 176.934 76.8097 176.948 77.705C176.948 78.8292 176.468 79.3391 175.352 79.3391C173.16 79.2872 173.16 82.6131 175.352 82.5819C176.427 82.5819 176.948 82.8775 176.948 84.1464C176.917 86.3386 180.222 86.3386 180.191 84.1464C180.191 82.9958 180.729 82.5819 181.793 82.5819C183.986 82.6338 183.986 79.308 181.793 79.3391C180.348 79.3391 180.191 78.5122 180.191 77.705C180.201 76.79 179.46 76.0441 178.544 76.0586Z" fill="#EC8600"/>
<path fill-rule="evenodd" clip-rule="evenodd" d="M234.254 139.77C233.579 139.77 233.041 140.337 233.051 141.011C233.051 141.858 232.689 142.243 231.849 142.243C230.196 142.243 230.196 144.709 231.849 144.686C232.658 144.686 233.051 144.909 233.051 145.864C233.025 147.517 235.518 147.517 235.495 145.864C235.495 144.998 235.9 144.686 236.702 144.686C238.354 144.686 238.354 142.219 236.702 142.243C235.613 142.243 235.495 141.619 235.495 141.011C235.505 140.322 234.944 139.76 234.254 139.77Z" fill="#EC8600"/>
<path fill-rule="evenodd" clip-rule="evenodd" d="M267.432 180.166C266.203 180.166 265.223 181.197 265.242 182.426C265.242 183.969 264.583 184.669 263.051 184.669C260.042 184.617 260.042 189.163 263.051 189.12C264.526 189.12 265.242 189.529 265.242 191.266C265.2 194.275 269.735 194.275 269.692 191.266C269.692 189.688 270.431 189.12 271.891 189.12C274.901 189.171 274.901 184.626 271.891 184.669C269.907 184.669 269.692 183.534 269.692 182.426C269.708 181.17 268.689 180.147 267.432 180.166Z" fill="#4C475A"/>
<path fill-rule="evenodd" clip-rule="evenodd" d="M246.306 87.7305C245.411 87.7305 244.696 88.4816 244.71 89.3769C244.71 90.501 244.23 91.011 243.114 91.011C240.921 90.9591 240.921 94.2849 243.114 94.2538C244.188 94.2538 244.71 94.5494 244.71 95.8182C244.679 98.0105 247.984 98.0105 247.953 95.8182C247.953 94.6676 248.491 94.2538 249.555 94.2538C251.748 94.3057 251.748 90.9799 249.555 91.011C248.109 91.011 247.953 90.1841 247.953 89.3769C247.963 88.4618 247.221 87.716 246.306 87.7305Z" fill="#EC8600"/>
<path fill-rule="evenodd" clip-rule="evenodd" d="M138.35 50.5463C137.658 50.5567 137.106 51.1267 137.117 51.8188C137.117 52.6876 136.745 53.0818 135.883 53.0818C134.188 53.0559 134.188 55.6119 135.883 55.5875C136.713 55.5875 137.117 55.8157 137.117 56.7967C137.096 58.4914 139.647 58.4914 139.623 56.7967C139.623 55.9076 140.039 55.5875 140.861 55.5875C142.556 55.5875 142.556 53.0576 140.861 53.0818C139.744 53.0818 139.623 52.4424 139.623 51.8188C139.628 51.1114 139.058 50.5352 138.35 50.5463Z" fill="#4C475A"/>
<path opacity="0.99" fill-rule="evenodd" clip-rule="evenodd" d="M200.428 100.443C200.084 100.438 199.743 100.501 199.424 100.629C199.105 100.757 198.815 100.948 198.57 101.189C198.325 101.43 198.131 101.718 197.998 102.035C197.866 102.352 197.797 102.693 197.797 103.036C197.797 103.38 197.866 103.72 197.998 104.037C198.131 104.355 198.325 104.642 198.57 104.883C198.815 105.125 199.105 105.315 199.424 105.443C199.743 105.571 200.084 105.635 200.428 105.63H228.351C228.264 108.601 228.161 111.55 227.804 114.171C227.758 114.509 227.78 114.853 227.866 115.183C227.953 115.513 228.104 115.822 228.311 116.093C228.517 116.365 228.775 116.593 229.07 116.765C229.365 116.936 229.69 117.048 230.028 117.094C230.366 117.14 230.71 117.119 231.04 117.032C231.369 116.945 231.679 116.794 231.95 116.588C232.222 116.381 232.45 116.123 232.622 115.829C232.793 115.534 232.905 115.209 232.951 114.871C233.45 111.204 233.711 107.268 233.711 103.036C233.711 102.348 233.438 101.688 232.951 101.202C232.465 100.716 231.805 100.443 231.117 100.443H200.428ZM199.385 110.99C199.041 110.985 198.7 111.048 198.381 111.177C198.062 111.305 197.771 111.495 197.527 111.736C197.282 111.978 197.088 112.265 196.955 112.582C196.822 112.899 196.754 113.24 196.754 113.584C196.754 113.927 196.822 114.268 196.955 114.585C197.088 114.902 197.282 115.189 197.527 115.431C197.771 115.672 198.062 115.862 198.381 115.99C198.7 116.119 199.041 116.182 199.385 116.177H214.927C213.987 124.999 210.313 131.186 205.605 135.144C200.368 139.548 194.264 141.576 191.431 142.216C191.088 142.28 190.761 142.413 190.471 142.606C190.18 142.799 189.932 143.049 189.74 143.34C189.548 143.632 189.417 143.959 189.355 144.303C189.293 144.646 189.3 144.998 189.377 145.339C189.454 145.679 189.599 146 189.803 146.283C190.008 146.566 190.267 146.805 190.565 146.986C190.864 147.166 191.196 147.285 191.541 147.334C191.887 147.383 192.239 147.362 192.576 147.272C196.092 146.478 202.819 144.27 208.949 139.116C215.079 133.961 220.494 125.7 220.742 113.634C220.749 113.289 220.687 112.947 220.56 112.626C220.432 112.305 220.242 112.014 220.001 111.767C219.759 111.521 219.471 111.326 219.153 111.192C218.835 111.059 218.494 110.99 218.149 110.99H199.385ZM228.584 118.831C227.987 118.842 227.412 119.059 226.956 119.445C226.5 119.831 226.192 120.362 226.082 120.949C225.839 122.169 225.571 123.357 225.271 124.495C225.172 124.829 225.141 125.178 225.18 125.524C225.219 125.869 225.327 126.204 225.497 126.507C225.667 126.81 225.897 127.075 226.172 127.288C226.448 127.5 226.763 127.655 227.099 127.744C227.435 127.832 227.786 127.852 228.13 127.802C228.474 127.752 228.804 127.634 229.102 127.453C229.399 127.273 229.657 127.035 229.861 126.753C230.064 126.471 230.209 126.151 230.287 125.812C230.614 124.57 230.905 123.283 231.168 121.962C231.249 121.581 231.243 121.186 231.15 120.807C231.057 120.428 230.879 120.075 230.631 119.774C230.383 119.473 230.07 119.232 229.715 119.069C229.361 118.906 228.975 118.825 228.584 118.831ZM224.755 130.291C224.291 130.309 223.84 130.451 223.45 130.702C223.06 130.953 222.744 131.305 222.536 131.719C214.386 147.474 199.403 152.609 186.122 152.946C185.781 152.954 185.446 153.03 185.134 153.168C184.823 153.307 184.542 153.505 184.307 153.752C184.072 153.999 183.888 154.29 183.766 154.608C183.643 154.926 183.585 155.265 183.593 155.605C183.602 155.946 183.678 156.282 183.816 156.593C183.955 156.905 184.153 157.185 184.4 157.42C184.647 157.655 184.938 157.839 185.256 157.961C185.574 158.084 185.913 158.142 186.254 158.133C200.814 157.765 218.005 151.782 227.146 134.11C227.362 133.707 227.468 133.254 227.453 132.797C227.438 132.339 227.302 131.894 227.059 131.506C226.817 131.118 226.475 130.802 226.071 130.588C225.666 130.375 225.212 130.272 224.755 130.291Z" fill="#4C475A"/>
<path opacity="0.99" fill-rule="evenodd" clip-rule="evenodd" d="M84.4489 100.443C83.761 100.443 83.1013 100.716 82.6149 101.202C82.1285 101.688 81.8552 102.348 81.8551 103.036C81.8551 124.327 88.6184 138.333 98.2586 146.806C107.899 155.279 120.133 158.153 130.812 158.153C131.156 158.158 131.497 158.095 131.816 157.967C132.135 157.838 132.425 157.648 132.67 157.407C132.915 157.166 133.109 156.878 133.242 156.561C133.375 156.244 133.443 155.903 133.443 155.56C133.443 155.216 133.375 154.876 133.242 154.559C133.109 154.241 132.915 153.954 132.67 153.713C132.425 153.471 132.135 153.281 131.816 153.153C131.497 153.025 131.156 152.961 130.812 152.966C121.066 152.966 110.118 150.329 101.683 142.915C93.6904 135.89 88.0846 123.997 87.4783 105.63H116.425C116.769 105.635 117.11 105.571 117.429 105.443C117.748 105.315 118.038 105.125 118.283 104.883C118.528 104.642 118.722 104.355 118.855 104.037C118.987 103.72 119.056 103.38 119.056 103.036C119.056 102.693 118.987 102.352 118.855 102.035C118.722 101.718 118.528 101.43 118.283 101.189C118.038 100.948 117.748 100.757 117.429 100.629C117.11 100.501 116.769 100.438 116.425 100.443H84.4489ZM97.4176 110.99C97.0727 110.99 96.7312 111.059 96.4132 111.192C96.0951 111.326 95.8069 111.521 95.5654 111.767C95.3239 112.014 95.1339 112.305 95.0066 112.626C94.8793 112.947 94.8171 113.289 94.8239 113.634C95.0955 126.83 101.546 135.437 108.35 140.484C115.153 145.531 121.98 147.245 124.642 147.586C125.324 147.673 126.014 147.486 126.558 147.065C127.102 146.644 127.457 146.024 127.544 145.342C127.632 144.659 127.444 143.97 127.023 143.426C126.603 142.881 125.983 142.526 125.3 142.439C123.982 142.268 117.293 140.661 111.44 136.319C106.137 132.386 101.738 125.894 100.69 116.177H116.303C116.647 116.182 116.988 116.119 117.307 115.99C117.626 115.862 117.916 115.672 118.161 115.431C118.406 115.189 118.6 114.902 118.733 114.585C118.866 114.268 118.934 113.927 118.934 113.584C118.934 113.24 118.866 112.899 118.733 112.582C118.6 112.265 118.406 111.978 118.161 111.736C117.916 111.495 117.626 111.305 117.307 111.177C116.988 111.048 116.647 110.985 116.303 110.99H97.4176Z" fill="#4C475A"/>
<path d="M116.993 90.0676C116.384 90.0676 115.795 90.2818 115.328 90.6726C114.861 91.0634 114.547 91.6061 114.439 92.2054C114.439 92.2054 112.759 101.977 115.807 118.974C115.847 119.326 115.959 119.667 116.136 119.975C116.312 120.282 116.55 120.55 116.835 120.762C117.119 120.974 117.444 121.125 117.789 121.207C118.134 121.288 118.493 121.298 118.842 121.236C119.191 121.173 119.524 121.04 119.819 120.844C120.115 120.648 120.367 120.393 120.56 120.095C120.753 119.798 120.883 119.464 120.943 119.114C121.002 118.765 120.988 118.406 120.904 118.062C118.466 104.468 119.108 97.6455 119.404 95.2551H197.368C197.457 98.5699 197.706 112.454 194.106 128.629C192.08 137.736 188.834 146.933 183.873 154.04C178.912 161.147 172.397 166.159 163.295 167.495C162.681 167.587 162.121 167.897 161.715 168.367C161.31 168.837 161.087 169.437 161.086 170.058V195.966C161.082 196.309 161.145 196.651 161.273 196.97C161.401 197.289 161.592 197.579 161.833 197.823C162.074 198.068 162.362 198.263 162.679 198.395C162.996 198.528 163.336 198.597 163.68 198.597C164.024 198.597 164.364 198.528 164.681 198.395C164.998 198.263 165.286 198.068 165.527 197.823C165.769 197.579 165.959 197.289 166.087 196.97C166.215 196.651 166.279 196.309 166.274 195.966V171.761C175.661 169.674 183.022 164.324 188.128 157.009C193.676 149.06 197.044 139.273 199.162 129.754C203.398 110.716 202.576 92.5499 202.576 92.5499C202.548 91.8832 202.263 91.2533 201.782 90.791C201.301 90.3288 200.66 90.0696 199.993 90.0676H116.993ZM119.911 124.81C119.527 124.817 119.15 124.91 118.806 125.081C118.463 125.252 118.162 125.497 117.924 125.798C117.687 126.1 117.519 126.45 117.433 126.824C117.348 127.198 117.346 127.586 117.428 127.961C117.546 128.528 117.656 128.894 117.722 129.095C117.788 129.297 117.788 129.282 117.894 129.734C117.959 130.078 118.094 130.405 118.289 130.696C118.484 130.987 118.735 131.235 119.029 131.426C119.323 131.617 119.652 131.747 119.997 131.807C120.342 131.868 120.696 131.857 121.036 131.777C121.377 131.697 121.699 131.549 121.981 131.341C122.263 131.134 122.5 130.871 122.678 130.569C122.856 130.268 122.971 129.933 123.016 129.586C123.061 129.238 123.035 128.885 122.94 128.548C122.805 127.972 122.692 127.614 122.646 127.474C122.601 127.334 122.599 127.365 122.504 126.907C122.388 126.308 122.064 125.77 121.589 125.386C121.115 125.003 120.521 124.798 119.911 124.81H119.911ZM124.115 139.308C123.687 139.296 123.262 139.39 122.879 139.581C122.496 139.773 122.166 140.056 121.919 140.407C121.672 140.757 121.516 141.163 121.464 141.588C121.413 142.013 121.467 142.445 121.623 142.844C126.696 156.481 135.794 168.622 150.711 171.892V180.241V183.321V195.104C150.707 195.448 150.77 195.79 150.898 196.109C151.026 196.428 151.217 196.717 151.458 196.962C151.699 197.207 151.987 197.401 152.304 197.534C152.621 197.667 152.961 197.735 153.305 197.735C153.649 197.735 153.989 197.667 154.306 197.534C154.623 197.401 154.911 197.207 155.152 196.962C155.394 196.717 155.584 196.428 155.712 196.109C155.84 195.79 155.904 195.448 155.899 195.104V183.321V180.241V170.058C155.898 169.436 155.673 168.835 155.266 168.364C154.859 167.894 154.296 167.585 153.68 167.495C139.66 165.438 131.489 154.48 126.486 141.031C126.311 140.538 125.99 140.11 125.567 139.803C125.144 139.495 124.638 139.323 124.115 139.308Z" fill="#4C475A"/>
<path d="M146.973 193.858C140.721 193.858 135.443 198.684 135.443 204.801C135.438 205.144 135.501 205.485 135.629 205.804C135.758 206.123 135.948 206.414 136.189 206.658C136.431 206.903 136.718 207.098 137.035 207.23C137.352 207.363 137.693 207.431 138.036 207.431C138.38 207.431 138.72 207.363 139.038 207.23C139.355 207.098 139.642 206.903 139.884 206.658C140.125 206.414 140.315 206.123 140.443 205.804C140.572 205.485 140.635 205.144 140.63 204.801C140.63 201.663 143.324 199.046 146.973 199.046H170.306C173.955 199.046 176.649 201.663 176.649 204.801C176.644 205.144 176.707 205.485 176.836 205.804C176.964 206.123 177.154 206.414 177.395 206.658C177.637 206.903 177.924 207.098 178.241 207.23C178.559 207.363 178.899 207.431 179.243 207.431C179.586 207.431 179.927 207.363 180.244 207.23C180.561 207.098 180.848 206.903 181.09 206.658C181.331 206.414 181.521 206.123 181.65 205.804C181.778 205.485 181.841 205.144 181.836 204.801C181.836 198.684 176.558 193.858 170.306 193.858H146.973Z" fill="#4C475A"/>
<path d="M138.32 204.193C128.307 204.193 120.164 212.336 120.164 222.349C120.159 222.693 120.222 223.034 120.351 223.353C120.479 223.672 120.669 223.962 120.91 224.207C121.152 224.452 121.439 224.646 121.756 224.779C122.074 224.911 122.414 224.979 122.758 224.979C123.101 224.979 123.442 224.911 123.759 224.779C124.076 224.646 124.363 224.452 124.605 224.207C124.846 223.962 125.036 223.672 125.165 223.353C125.293 223.034 125.356 222.693 125.351 222.349C125.351 215.121 131.092 209.38 138.32 209.38H178.959C186.187 209.38 191.917 215.121 191.917 222.349C191.913 222.693 191.976 223.034 192.104 223.353C192.232 223.672 192.423 223.962 192.664 224.207C192.905 224.452 193.193 224.646 193.51 224.779C193.827 224.911 194.168 224.979 194.511 224.979C194.855 224.979 195.195 224.911 195.512 224.779C195.829 224.646 196.117 224.452 196.358 224.207C196.6 223.962 196.79 223.672 196.918 223.353C197.046 223.034 197.11 222.693 197.105 222.349C197.105 212.336 188.972 204.193 178.959 204.193H138.32Z" fill="#4C475A"/>
<path d="M120.204 219.796C114.37 219.796 109.181 223.851 109.181 229.411V230.616C109.181 230.767 109.179 230.615 109.181 230.668C109.18 230.696 109.18 230.724 109.181 230.751V248.33C109.181 249.018 109.454 249.678 109.941 250.164C110.427 250.65 111.087 250.924 111.775 250.924H120.204H196.72H205.15C205.838 250.924 206.497 250.65 206.984 250.164C207.47 249.678 207.743 249.018 207.743 248.33V230.751C207.744 230.724 207.744 230.696 207.743 230.668C207.744 230.651 207.744 230.634 207.743 230.616V229.411C207.743 223.851 202.554 219.796 196.72 219.796H120.204ZM120.204 224.983H196.72C200.239 224.983 202.556 227.189 202.556 229.411V230.616C202.556 230.316 202.552 230.347 202.546 230.699C202.544 230.788 202.548 230.876 202.556 230.964V245.736H196.72H120.204H114.368V230.934C114.374 230.873 114.377 230.813 114.379 230.752C114.379 230.321 114.368 230.326 114.368 230.622V229.416C114.368 227.195 116.685 224.989 120.204 224.989V224.983Z" fill="#4C475A"/>
</svg>




